<?xml version="1.0" standalone="no"?>
<!DOCTYPE svg PUBLIC "-//W3C//DTD SVG 20010904//EN"
 "http://www.w3.org/TR/2001/REC-SVG-20010904/DTD/svg10.dtd">
<svg version="1.0" xmlns="http://www.w3.org/2000/svg"
 width="568.000000pt" height="568.000000pt" viewBox="0 0 568.000000 568.000000"
 preserveAspectRatio="xMidYMid meet">
<metadata>
Created by potrace 1.16, written by Peter Selinger 2001-2019
</metadata>
<g transform="translate(0.000000,568.000000) scale(0.100000,-0.100000)"
fill="#000000" stroke="none">
<path d="M0 5014 c0 -531 2 -664 12 -658 10 6 10 5 1 -7 -8 -10 -11 -105 -12
-320 -1 -260 1 -306 14 -306 8 0 12 4 9 9 -3 4 2 5 10 2 9 -3 14 -9 12 -13 -3
-4 5 -8 17 -8 17 -2 19 0 7 7 -10 7 -11 10 -2 10 6 0 12 8 12 18 0 23 30 52
55 52 10 0 16 3 12 6 -8 8 16 33 25 27 4 -2 5 3 2 12 -4 10 -13 13 -25 10 -11
-4 -19 -2 -19 5 0 6 4 9 9 5 5 -3 12 -1 16 5 4 6 12 7 18 3 7 -4 6 1 -2 10
-13 16 -16 16 -38 2 -23 -15 -23 -15 -11 5 10 15 22 20 51 18 38 -3 38 -4 34
-39 -2 -20 -7 -41 -11 -48 -4 -6 -2 -11 3 -11 6 0 10 -5 9 -12 -5 -21 30 -20
51 1 12 12 23 21 25 21 2 0 6 -18 10 -39 7 -44 24 -55 62 -41 34 13 32 15 48
-25 8 -19 22 -35 30 -35 9 0 16 -7 16 -15 0 -18 35 -34 67 -30 14 1 20 -2 16
-11 -9 -23 71 -35 237 -33 88 1 160 4 160 8 -2 21 -28 48 -47 46 -12 -1 -22 1
-21 4 1 19 -17 51 -29 51 -9 0 -13 6 -10 15 4 8 2 17 -3 20 -13 8 -13 25 1 25
6 0 19 10 30 23 l18 22 1 -22 c0 -12 5 -25 10 -28 6 -3 10 0 10 9 0 33 79 26
117 -12 24 -24 30 -42 22 -72 -3 -10 3 -15 16 -15 26 0 36 -15 25 -36 -5 -9
-6 -19 -3 -23 3 -3 91 -6 194 -6 l188 0 16 -57 c9 -32 26 -105 36 -163 11 -58
23 -114 28 -125 8 -19 9 -19 16 -2 4 10 1 34 -8 55 -9 20 -25 84 -36 142 -12
58 -24 115 -27 128 l-6 22 143 -1 c128 -1 140 -3 109 -14 -19 -7 -39 -10 -45
-6 -5 3 -27 6 -48 7 -20 0 -32 -3 -26 -7 6 -4 9 -11 6 -15 -3 -5 11 -9 31 -9
21 0 44 -3 53 -7 22 -10 132 -14 146 -5 6 4 14 3 18 -3 9 -14 27 -1 19 13 -4
7 4 2 18 -10 39 -37 128 -48 202 -27 34 9 72 18 86 19 42 3 46 5 30 15 -13 9
-13 11 0 20 12 7 7 11 -20 17 -24 6 15 10 125 13 88 3 169 2 180 -2 14 -5 15
-7 4 -7 -15 -1 -59 -40 -59 -53 0 -13 34 -18 43 -6 6 10 7 9 4 -4 -3 -9 1 -19
9 -22 17 -7 19 -46 2 -46 -10 0 -10 -2 -1 -8 6 -4 13 -29 14 -56 2 -40 -1 -52
-19 -66 -28 -23 -28 -28 1 -26 22 1 22 -1 25 -129 2 -71 1 -139 -3 -152 -8
-32 -25 -29 -25 5 -1 26 -1 26 -15 8 -8 -11 -15 -14 -15 -8 0 8 -12 11 -30 10
-17 -1 -30 -5 -30 -8 0 -3 -34 -6 -76 -8 -41 -1 -78 -3 -82 -3 -23 -4 -42 2
-37 11 3 6 -3 10 -14 10 -11 0 -22 4 -25 9 -12 18 -50 5 -66 -23 -9 -16 -22
-32 -29 -34 -8 -3 -11 0 -7 6 4 6 -9 43 -29 82 -48 95 -62 92 -92 -20 -12 -47
-22 -79 -22 -72 -1 9 -7 8 -25 -4 -25 -15 -25 -15 -23 12 2 25 -2 29 -36 35
-45 7 -53 14 -39 31 14 18 3 68 -15 68 -12 0 -14 -13 -11 -64 1 -35 0 -62 -4
-59 -5 2 -8 0 -8 -5 0 -5 -8 -12 -17 -16 -10 -3 -23 -8 -29 -11 -6 -3 -10 4
-10 17 1 19 -5 24 -30 26 -30 3 -32 6 -36 53 -3 27 -8 52 -11 55 -16 16 -25
-13 -24 -76 2 -50 -2 -71 -11 -75 -32 -12 -37 -4 -40 67 -3 79 -6 88 -28 88
-12 0 -15 -13 -14 -67 2 -93 3 -90 -22 -95 -22 -4 -23 -2 -23 81 0 74 -2 86
-17 89 -13 3 -18 -3 -18 -20 0 -13 4 -28 9 -34 6 -5 4 -14 -4 -21 -11 -10 -19
-4 -40 33 -38 65 -50 53 -50 -49 0 -51 -4 -85 -10 -84 -5 1 -9 -4 -8 -10 2 -9
-9 -11 -38 -8 -35 5 -40 3 -35 -11 4 -11 2 -15 -7 -11 -8 3 -20 1 -27 -3 -9
-6 -18 -3 -26 8 -11 15 -12 14 -10 -10 2 -20 -1 -25 -12 -20 -11 4 -13 2 -7
-8 5 -7 4 -11 -1 -8 -5 3 -38 0 -74 -8 -36 -7 -93 -14 -128 -14 -56 0 -64 -2
-73 -24 -7 -14 -17 -22 -25 -19 -8 3 -14 0 -14 -6 0 -6 4 -11 9 -11 30 0 36
-160 14 -352 -9 -75 -9 -327 0 -373 7 -35 9 -131 4 -160 -2 -11 5 -27 17 -37
14 -11 16 -17 7 -18 -9 0 -11 -8 -7 -24 5 -20 1 -26 -16 -32 l-23 -8 25 -6
c14 -4 24 -11 23 -17 -2 -10 728 -15 829 -6 l46 5 -1 141 c-1 78 2 153 7 167
7 21 7 23 -5 13 -8 -7 -20 -8 -28 -4 -19 12 5 19 54 14 22 -2 119 3 215 12
160 13 382 28 820 55 91 6 237 15 325 21 88 6 192 9 230 7 67 -3 70 -4 70 -28
0 -22 4 -25 40 -25 38 0 40 2 40 31 l0 30 185 12 c101 6 188 8 192 4 6 -6 22
-122 48 -352 6 -52 15 -165 20 -250 10 -148 11 -156 36 -178 14 -12 20 -22 13
-22 -7 0 -10 -3 -7 -6 4 -3 16 0 28 6 12 7 20 7 16 2 -4 -6 8 -9 31 -6 88 9
374 25 405 23 18 -1 44 1 58 5 49 13 305 33 327 25 23 -9 23 -6 42 -229 6 -63
18 -191 26 -285 8 -93 20 -224 26 -290 6 -66 14 -141 18 -166 4 -26 7 -68 7
-95 -1 -48 -2 -49 -35 -52 -33 -3 -111 25 -111 40 0 4 -7 5 -15 2 -8 -4 -13
-10 -10 -14 11 -18 -28 -31 -102 -34 -43 -2 -89 -7 -103 -10 -51 -14 -335 -42
-338 -34 -5 12 -40 10 -44 -2 -2 -6 -35 -13 -75 -17 l-71 -6 5 28 c4 17 1 30
-8 36 -10 6 -2 9 23 9 27 0 42 6 57 26 33 42 27 54 -24 54 -25 0 -53 -4 -63
-9 -9 -5 -30 -14 -45 -20 -31 -12 -32 -33 -3 -37 26 -4 45 -25 29 -31 -7 -3
-13 -15 -13 -28 0 -13 -4 -26 -8 -29 -18 -11 -738 -69 -807 -65 -51 3 -59 7
-45 24 20 24 7 58 -28 72 -29 12 -34 11 -49 -7 -18 -20 -39 -28 -28 -10 3 5
-1 10 -9 10 -9 0 -16 -3 -16 -7 0 -5 -11 -13 -25 -19 -18 -9 -25 -9 -28 0 -3
6 -8 -2 -12 -18 -5 -20 -4 -31 6 -37 28 -18 -10 -31 -133 -44 -32 -4 -60 -10
-63 -15 -7 -11 51 -27 130 -35 33 -3 89 -13 124 -22 35 -8 74 -13 87 -10 20 3
50 0 179 -19 22 -3 58 -7 81 -8 22 -1 46 -6 53 -10 7 -4 24 -5 39 -2 20 5 23
4 12 -4 -11 -7 -5 -10 25 -11 80 -2 141 -7 165 -14 31 -7 359 -7 372 1 4 3 7
1 6 -4 -2 -6 2 -10 7 -10 6 0 9 4 8 8 -3 11 17 7 44 -8 16 -9 24 -9 29 0 5 7
3 8 -6 3 -8 -5 -11 -4 -7 2 6 10 35 11 52 2 11 -6 71 -4 155 6 30 4 72 8 92 8
21 1 38 4 38 7 0 3 24 5 53 6 91 1 137 8 137 18 0 6 5 4 10 -4 7 -11 10 -11
10 -2 0 7 5 10 10 7 6 -3 10 -3 10 2 0 4 28 9 62 11 43 2 66 8 76 20 13 16 13
16 8 0 -3 -12 -1 -15 10 -11 7 3 14 10 14 15 0 6 7 7 16 4 8 -3 25 -1 36 5 13
7 18 7 14 1 -3 -6 -2 -13 4 -17 5 -3 10 1 10 11 0 14 3 14 16 4 8 -8 14 -9 13
-4 -4 21 2 24 17 10 8 -9 20 -14 25 -11 16 11 79 13 85 3 3 -5 12 -4 21 3 8 7
35 12 60 10 33 -2 48 2 60 16 8 10 12 13 9 7 -3 -7 1 -15 10 -18 8 -3 13 -2
10 3 -3 5 1 11 9 15 8 3 15 1 15 -4 0 -5 12 -5 28 -1 15 4 40 6 55 4 18 -2 26
0 22 7 -4 7 2 7 21 0 15 -6 29 -8 32 -5 3 3 -1 5 -8 5 -7 0 -11 3 -8 6 4 3 15
1 27 -5 11 -7 22 -7 25 -2 7 11 25 9 45 -3 10 -7 12 -6 6 4 -6 10 -4 12 7 7 9
-3 27 0 41 8 18 9 28 10 36 2 8 -8 11 743 11 2751 l0 2762 -30 0 c-16 0 -31
-4 -34 -8 -3 -5 -23 -7 -45 -6 -23 1 -41 -2 -41 -8 0 -5 -5 -6 -10 -3 -6 4
-10 3 -9 -2 4 -25 -3 -35 -21 -30 -11 3 -23 1 -26 -4 -10 -16 -24 -9 -17 9 5
14 3 13 -10 -3 -9 -11 -17 -16 -17 -12 0 4 -8 3 -18 -2 -13 -7 -23 -6 -32 2
-10 9 -11 9 -6 0 6 -10 -13 -13 -78 -13 -47 0 -88 5 -91 10 -3 6 -3 10 2 10 4
0 64 11 133 25 69 14 133 24 143 21 9 -2 17 0 17 5 0 5 -71 9 -159 9 -141 0
-173 -3 -282 -29 -120 -28 -129 -29 -280 -21 -125 6 -164 12 -201 29 -34 15
-67 21 -119 21 -66 0 -75 -3 -113 -33 -38 -30 -46 -33 -106 -31 -36 1 -67 3
-70 4 -3 1 -13 2 -22 1 -10 -1 -18 3 -18 8 0 6 -6 11 -13 11 -7 0 -18 9 -25
20 -13 22 -51 27 -69 9 -8 -8 -13 -8 -17 0 -10 15 -56 14 -56 -1 0 -9 -4 -8
-10 2 -8 13 -10 13 -10 -2 0 -9 4 -19 9 -22 5 -3 11 -14 14 -25 4 -16 -1 -18
-27 -17 -20 1 -30 -3 -29 -11 2 -7 -4 -13 -12 -13 -19 0 -19 -4 0 -39 8 -16
22 -32 32 -35 15 -6 15 -8 3 -16 -12 -8 -11 -13 6 -32 21 -24 24 -49 9 -82 -6
-13 -3 -21 9 -28 11 -6 15 -16 11 -29 -8 -24 20 -37 45 -21 14 8 21 7 32 -6
32 -37 26 -72 -12 -72 -12 1 -11 4 4 15 23 17 14 20 -15 5 -12 -7 -19 -21 -19
-38 0 -36 11 -73 19 -68 4 3 13 1 21 -5 13 -7 12 -9 -2 -9 -19 0 -25 -25 -8
-35 6 -4 8 -12 4 -18 -3 -7 4 -1 15 13 14 17 21 20 21 10 0 -27 -29 -202 -34
-207 -3 -3 -8 7 -12 22 -5 19 -10 23 -17 16 -18 -18 -37 -13 -46 11 l-8 22
-12 -22 c-19 -35 -42 -28 -34 11 5 26 3 30 -8 20 -21 -20 -49 -16 -49 7 0 11
-4 20 -9 20 -11 0 -9 40 4 59 6 11 1 13 -23 9 -27 -4 -31 -1 -34 23 -3 16 -1
34 4 42 5 10 3 17 -7 21 -8 3 -15 12 -15 21 0 8 -4 15 -8 15 -5 0 -8 18 -6 40
l2 41 -33 -7 c-44 -8 -75 3 -75 26 0 10 -5 20 -11 22 -13 4 -14 80 -3 136 4
19 10 23 27 18 14 -3 36 5 64 23 l43 29 -35 6 c-38 8 -46 25 -15 33 26 7 25
11 -7 45 -23 24 -25 30 -13 38 8 6 21 8 28 5 6 -2 12 0 12 5 0 6 -5 10 -11 10
-6 0 -9 7 -5 15 4 11 -2 15 -23 15 -41 0 -54 -20 -35 -51 l16 -24 -21 23 c-14
17 -26 21 -44 17 -19 -5 -25 -2 -30 14 -4 16 -13 20 -47 19 l-42 0 5 -38 c4
-32 2 -39 -14 -43 -10 -3 -22 -1 -25 4 -10 17 -42 9 -47 -11 -4 -17 -14 -20
-62 -20 l-57 0 7 30 c4 19 2 36 -5 45 -6 8 -9 19 -5 25 7 12 -163 14 -181 2
-14 -9 -13 -112 1 -112 6 0 4 -4 -3 -9 -8 -4 -14 -12 -15 -17 -2 -20 -33 -64
-44 -64 -14 0 -63 -72 -63 -94 0 -15 -36 -23 -157 -33 -53 -4 -74 -3 -70 5 4
5 2 12 -4 14 -7 2 -11 33 -11 81 -1 59 -4 77 -14 77 -16 0 -19 26 -4 35 6 3 7
18 4 32 -4 15 -2 28 6 33 9 6 8 14 -5 34 l-18 27 -138 -2 c-117 -1 -141 -4
-150 -17 -10 -16 -10 -16 -5 0 5 16 -62 17 -1087 18 -1085 0 -1092 0 -1105
-20 -16 -26 -32 -26 -32 0 0 19 -7 20 -90 20 l-90 0 0 -666z m5040 515 c0 -5
-4 -9 -10 -9 -23 0 -29 -38 -14 -83 14 -42 66 -97 92 -97 5 0 15 -7 22 -15 7
-8 20 -15 30 -15 10 0 28 -9 41 -20 15 -12 18 -19 9 -18 -8 2 -14 -3 -12 -10
1 -8 -2 -10 -8 -7 -6 4 -20 -1 -31 -11 -15 -13 -16 -20 -7 -31 6 -8 7 -13 2
-12 -21 4 -55 -2 -51 -8 3 -5 -8 -8 -25 -7 -33 1 -98 -25 -98 -39 0 -5 -6 -4
-14 2 -12 10 -14 8 -10 -11 2 -13 2 -17 -2 -10 -3 6 -10 12 -15 12 -6 0 -7 -4
-4 -10 3 -5 1 -10 -6 -10 -7 0 -9 9 -6 23 l6 22 -20 -24 c-17 -21 -19 -21 -20
-5 -1 16 -2 17 -6 2 -5 -21 -43 -19 -43 2 0 13 -1 13 -10 0 -8 -13 -10 -12
-10 3 0 10 -4 16 -9 13 -4 -3 -8 11 -7 32 1 30 5 37 21 35 20 -2 20 -1 0 13
-24 17 -26 44 -5 61 13 11 13 12 -4 13 -12 0 -16 5 -12 16 3 8 -1 22 -9 31 -8
8 -13 19 -10 24 4 5 -3 9 -15 9 -13 0 -19 -4 -14 -12 5 -7 3 -8 -5 -4 -7 5
-10 14 -7 21 3 10 -2 12 -17 9 -47 -11 -67 -11 -67 -1 0 5 -5 5 -13 -2 -8 -6
-17 -7 -21 -3 -4 4 -6 0 -4 -8 2 -9 -3 -14 -11 -12 -12 3 -12 0 -1 -12 11 -14
9 -16 -10 -16 -20 0 -21 -2 -9 -17 12 -16 11 -16 -8 0 -20 18 -21 18 -27 0 -3
-10 -16 -19 -31 -19 -14 -1 -23 2 -20 6 3 5 -4 8 -15 7 -13 -1 -19 -6 -15 -15
2 -7 -3 -16 -13 -19 -9 -4 -20 -11 -24 -17 -5 -7 -8 -7 -8 2 0 21 -19 13 -25
-11 -5 -18 -13 -23 -36 -23 -23 0 -28 3 -24 15 3 8 3 12 -1 8 -4 -4 -14 -1
-22 6 -11 8 -14 8 -9 0 10 -17 -28 -26 -53 -13 -11 6 -20 13 -20 16 0 2 9 0
21 -6 11 -6 25 -9 32 -6 7 2 5 5 -5 5 -9 1 -25 12 -36 26 -11 13 -22 22 -25
19 -3 -3 -8 0 -13 7 -4 7 -3 10 3 6 6 -4 13 0 17 8 4 10 -1 15 -14 15 -11 0
-20 4 -20 8 0 10 64 28 165 47 44 9 158 38 255 65 96 27 198 55 227 62 57 14
193 12 193 -3z m-1965 -144 c-9 -20 -13 -40 -9 -47 5 -8 2 -9 -9 -5 -22 8 -21
4 3 -18 18 -17 20 -17 14 -2 -5 13 -1 17 16 17 11 0 18 4 15 10 -3 5 -1 18 4
27 6 10 11 13 11 7 0 -12 37 -28 55 -24 6 1 5 -4 -2 -11 -10 -10 -6 -19 17
-46 34 -38 37 -48 15 -57 -9 -3 -24 4 -37 19 -22 25 -50 36 -29 12 6 -8 8 -17
4 -20 -9 -10 -25 -9 -19 1 3 5 -4 16 -14 25 -10 8 -20 12 -22 6 -5 -14 -78 56
-78 75 0 10 12 35 27 56 23 32 29 35 41 23 12 -12 12 -19 -3 -48z m-109 -72
c11 -26 13 -84 3 -77 -5 3 -9 0 -9 -5 0 -6 5 -11 11 -11 8 0 8 -4 0 -14 -8
-10 -9 -16 -1 -21 14 -9 23 18 17 58 l-4 34 28 -14 c30 -15 99 -90 99 -107 0
-6 -6 -23 -14 -38 -13 -24 -12 -28 5 -44 29 -26 23 -31 -28 -27 -45 5 -50 3
-81 -31 -21 -23 -32 -45 -30 -58 3 -21 4 -20 34 5 33 28 73 36 75 15 0 -10 2
-10 6 0 7 19 25 14 62 -18 22 -19 34 -38 36 -59 1 -17 5 -34 8 -37 3 -4 -1
-17 -10 -30 -8 -13 -12 -24 -8 -24 4 0 2 -7 -5 -15 -7 -8 -21 -15 -31 -15 -11
0 -19 -4 -19 -10 0 -13 -56 -13 -81 0 -10 6 -19 17 -19 24 0 7 -10 18 -22 24
-13 7 -35 22 -50 34 -27 21 -53 19 -30 -4 8 -8 6 -15 -5 -27 -9 -9 -18 -15
-20 -13 -2 1 -16 -4 -31 -11 -15 -8 -32 -12 -38 -10 -6 2 -17 -3 -24 -12 -10
-12 -16 -13 -26 -4 -20 16 -17 28 5 24 16 -3 19 2 17 30 -1 18 2 31 6 29 5 -3
8 0 8 5 0 13 -30 14 -50 1 -21 -13 -30 7 -17 40 10 25 8 32 -15 55 -15 15 -28
38 -30 53 -2 18 -9 26 -25 27 -26 2 -40 12 -30 21 3 4 25 -1 49 -11 24 -9 49
-19 56 -22 6 -3 12 1 12 8 -1 23 -34 55 -63 63 -15 3 -27 13 -27 22 0 8 4 12
10 9 6 -4 7 1 3 11 -5 13 -2 15 15 9 13 -4 22 -2 22 4 0 6 -5 11 -10 11 -7 0
-7 6 -1 19 6 10 9 27 7 38 -6 29 9 47 41 48 23 0 28 5 26 22 -2 19 4 23 45 28
26 3 54 8 62 9 44 10 78 5 86 -11z m-826 -218 c8 -7 25 -11 36 -9 15 2 23 -3
27 -17 3 -11 11 -18 17 -17 17 4 52 -90 43 -116 -4 -11 -8 -29 -8 -40 0 -19
-6 -24 -65 -49 -63 -27 -75 -26 -78 11 -2 17 -9 32 -15 32 -7 0 -6 4 3 10 9 6
10 10 3 10 -6 0 -15 -5 -18 -10 -6 -10 -70 -8 -80 2 -3 3 -6 16 -7 31 -1 16
-10 28 -23 32 -20 6 -20 6 3 17 12 6 22 18 21 27 0 10 -2 12 -6 4 -2 -7 -9
-13 -14 -13 -4 0 -6 6 -3 14 3 8 0 24 -6 36 -10 18 -10 21 2 14 25 -16 44 -14
23 3 -19 15 -19 15 8 9 18 -4 27 -2 28 6 0 10 2 10 6 1 2 -7 12 -13 21 -13 10
0 13 -3 7 -8 -17 -12 -41 -47 -27 -38 10 6 11 2 7 -16 -4 -17 1 -30 19 -48 23
-20 26 -21 26 -6 0 12 5 16 15 12 16 -6 39 37 32 58 -3 6 3 20 12 31 16 19 15
19 -11 2 -29 -18 -62 -13 -54 8 2 7 -1 18 -7 24 -9 9 -8 10 7 5 15 -6 18 -4
13 9 -4 12 -2 14 11 10 9 -3 24 -12 32 -18z m-1420 -95 c27 0 50 -36 50 -78 0
-14 8 -30 17 -37 16 -12 16 -15 -7 -35 -17 -15 -20 -20 -7 -16 27 9 20 -2 -13
-19 -17 -9 -36 -13 -42 -9 -6 4 -8 3 -5 -3 4 -6 -3 -13 -16 -17 -12 -3 -32
-14 -43 -25 -21 -19 -22 -19 -53 0 -17 10 -31 24 -31 31 0 7 -9 19 -20 26 -26
16 -18 53 21 103 16 20 29 42 29 49 0 7 6 10 13 7 8 -3 20 4 28 14 9 13 21 18
34 15 11 -3 31 -6 45 -6z m3856 -8 c-6 -10 49 -63 57 -55 4 3 2 14 -4 24 -7
15 -6 17 5 13 8 -3 16 -18 18 -32 2 -21 9 -27 28 -28 14 0 35 4 48 10 30 12
49 -7 54 -53 3 -38 -18 -56 -24 -20 -4 30 -24 35 -37 10 -8 -14 -8 -28 -1 -46
9 -23 8 -26 -5 -21 -8 3 -15 1 -15 -4 0 -6 -9 -10 -20 -10 -15 0 -20 7 -20 25
0 14 -5 25 -10 25 -6 0 -8 -11 -4 -25 6 -26 -10 -36 -20 -12 -4 8 -5 7 -5 -3
1 -8 1 -22 0 -30 -1 -13 -2 -13 -12 0 -7 10 -12 11 -15 4 -6 -15 -54 -5 -61
12 -3 9 -20 14 -45 14 -34 0 -39 3 -33 19 4 13 -2 25 -21 38 -23 17 -25 22
-15 41 9 17 18 21 36 16 19 -5 25 -2 25 10 0 9 5 16 10 16 10 0 14 -14 11 -37
-1 -8 5 -10 14 -6 11 4 15 13 11 26 -7 28 19 87 39 87 9 0 14 -4 11 -8z
m-1026 -101 c0 -11 -4 -31 -9 -44 -9 -24 -9 -25 20 -17 18 5 27 5 24 -1 -4 -5
-13 -9 -21 -9 -22 0 -38 -51 -24 -74 10 -16 9 -18 -4 -13 -11 5 -16 1 -16 -13
0 -10 5 -22 10 -25 15 -9 12 -25 -4 -25 -8 0 -17 -6 -20 -12 -4 -9 -5 -8 -5 2
2 29 -1 40 -11 40 -5 0 -10 -7 -10 -15 0 -8 -4 -15 -10 -15 -5 0 -10 7 -10 15
0 8 -4 15 -9 15 -5 0 -11 11 -13 25 -3 14 -1 25 4 25 5 0 6 5 3 11 -4 6 -13 8
-21 5 -19 -7 -23 5 -13 33 7 19 12 22 21 13 14 -14 48 -16 48 -3 0 5 -10 11
-22 14 -21 3 -21 5 8 16 25 10 30 16 27 36 -4 16 0 25 14 28 35 9 43 7 43 -12z
m346 -32 c4 -7 10 -7 16 -1 5 5 20 7 34 4 19 -3 22 -7 12 -13 -10 -7 -9 -9 5
-9 9 0 17 -5 17 -11 0 -5 4 -8 9 -4 5 3 12 1 16 -5 3 -5 -4 -10 -17 -10 -37 1
-63 -5 -68 -15 -14 -29 -34 -44 -46 -34 -10 8 -12 4 -8 -17 3 -16 10 -32 16
-35 8 -5 8 -18 2 -41 -7 -25 -18 -36 -42 -44 -33 -10 -33 -10 -12 -29 11 -10
20 -24 20 -32 0 -21 17 -15 39 13 l21 27 0 -27 c0 -16 5 -26 15 -26 18 0 18
-5 4 -33 -16 -30 -15 -30 -39 -17 -31 16 -54 -5 -27 -24 16 -13 16 -14 -5 -19
-12 -4 -25 -1 -29 5 -4 6 -12 7 -19 3 -7 -5 0 -15 22 -32 18 -14 25 -23 16
-20 -12 4 -18 1 -18 -8 0 -8 -3 -15 -7 -16 -5 0 -19 -2 -32 -5 -20 -4 -22 -2
-11 11 7 9 10 18 6 22 -3 3 -6 0 -6 -7 0 -7 -3 -10 -7 -7 -7 8 -33 -11 -33
-25 0 -5 5 -6 10 -3 6 3 10 4 10 2 0 -3 -18 -14 -41 -25 l-40 -20 -11 24 c-7
14 -17 23 -24 20 -7 -3 -14 8 -18 30 -4 19 -11 34 -17 34 -6 0 -7 5 -4 10 4 6
15 8 25 5 13 -4 23 7 44 49 15 31 38 64 52 75 14 11 24 26 23 33 -5 38 2 48
30 48 34 0 42 14 28 53 -11 34 -2 103 19 135 15 23 58 30 70 11z m-2035 -174
c43 -1 65 -16 71 -50 8 -41 -7 -53 -42 -32 l-30 18 10 -27 c8 -21 8 -29 -2
-36 -20 -12 -38 -9 -45 8 -5 13 -9 12 -26 -7 l-21 -22 -8 25 c-7 19 -14 25
-28 21 -15 -4 -20 0 -20 14 0 10 -5 24 -11 30 -13 13 34 53 62 53 11 0 19 5
19 11 0 7 7 8 18 3 9 -4 33 -8 53 -9z m2803 -191 c28 -11 17 -26 -13 -19 -35
7 -51 -11 -25 -29 10 -8 15 -20 11 -29 -4 -11 1 -20 13 -27 12 -6 20 -21 20
-35 0 -13 5 -27 10 -30 17 -11 11 -52 -8 -57 -16 -5 -18 -12 -12 -56 3 -28 3
-49 -1 -46 -5 2 -11 -12 -14 -33 -4 -21 -9 -45 -12 -53 -4 -8 -5 -18 -5 -22 1
-5 -8 -8 -19 -8 -22 0 -22 5 -3 83 5 21 3 27 -10 27 -9 0 -16 5 -16 11 0 5 5
7 10 4 6 -3 10 -1 10 5 0 22 -25 3 -26 -20 -1 -13 -10 -29 -20 -37 -10 -7 -12
-13 -6 -13 7 0 12 -11 12 -25 0 -16 -6 -25 -16 -25 -9 0 -12 5 -8 13 4 6 -2 4
-14 -7 -12 -10 -20 -22 -17 -26 2 -3 -10 -4 -26 -2 -24 4 -31 0 -36 -17 -6
-24 -16 -27 -32 -8 -8 10 -7 17 2 26 9 10 8 11 -6 5 -12 -4 -17 -15 -15 -33 3
-22 -1 -26 -25 -29 -15 -2 -34 4 -43 12 -18 18 -42 20 -64 6 -12 -8 -11 -10 8
-11 50 -3 59 -10 37 -29 -23 -19 -89 0 -93 28 -2 14 -10 22 -23 22 -10 0 -19
5 -19 10 0 6 8 10 18 10 19 0 22 9 23 73 0 21 4 35 9 32 4 -3 16 3 26 12 13
13 14 18 3 22 -7 2 -15 -1 -17 -8 -2 -6 -8 -8 -14 -5 -5 3 0 13 11 21 22 15
28 49 10 55 -19 6 1 36 22 31 25 -7 24 9 -1 27 -19 14 -29 37 -11 26 5 -3 22
1 37 9 19 10 30 11 35 4 4 -6 9 -4 13 7 4 10 1 21 -6 25 -7 4 -10 11 -6 14 3
4 17 0 30 -8 20 -13 28 -13 56 -1 36 16 43 34 12 34 -22 0 -27 15 -8 26 6 4
20 -3 31 -17 19 -22 20 -22 15 -3 -3 14 1 25 13 32 23 15 66 16 74 2 10 -17
23 -11 31 13 13 44 43 58 88 41z m-2253 -65 c16 -16 23 -18 34 -9 21 17 52 3
59 -26 9 -35 -32 -77 -74 -77 -26 0 -29 -3 -24 -21 3 -12 10 -25 14 -29 10
-11 0 -48 -10 -42 -5 3 -11 1 -15 -5 -4 -6 -18 -1 -35 12 -31 23 -31 38 1 38
10 0 19 5 19 11 0 5 6 7 13 3 8 -5 7 -2 -2 10 -8 9 -20 15 -28 12 -7 -3 -13
-1 -13 5 0 6 -4 7 -10 4 -5 -3 -20 4 -32 16 -16 15 -19 23 -10 26 6 3 10 8 7
13 -8 13 44 50 61 43 9 -3 14 2 14 16 0 26 5 26 31 0z m-1421 -149 c0 -6 8 -5
20 2 16 10 22 10 32 -1 10 -11 10 -12 1 -7 -7 4 -13 2 -13 -4 0 -8 9 -10 24
-6 24 6 24 4 19 -31 -7 -45 -8 -47 -50 -61 -25 -8 -33 -8 -33 1 0 8 -3 8 -12
-1 -18 -18 -42 -14 -72 12 l-28 23 40 42 c36 38 72 54 72 31z m1612 -86 c32
-31 48 -62 54 -108 2 -16 13 -35 24 -43 22 -15 70 -100 50 -88 -9 5 -10 1 -4
-16 4 -13 8 -33 10 -44 1 -11 3 -21 3 -22 1 -2 1 -6 0 -9 0 -4 10 -12 23 -18
36 -18 33 -46 -11 -96 -27 -30 -36 -47 -28 -52 8 -5 7 -8 -4 -8 -9 0 -19 3
-23 7 -4 4 -23 6 -42 4 -26 -2 -39 3 -53 21 -11 13 -23 19 -27 15 -5 -4 -2
-12 6 -17 13 -8 12 -10 -2 -10 -10 0 -18 6 -19 13 0 9 -2 9 -5 0 -3 -7 -12 -9
-20 -6 -8 3 -14 0 -14 -7 0 -10 -3 -10 -15 0 -20 16 -19 20 10 54 30 35 31 39
8 32 -40 -12 -134 -16 -128 -5 4 5 14 8 24 5 14 -5 14 -5 -1 7 -20 16 -15 48
14 89 23 34 23 42 -2 35 -11 -3 -18 -1 -14 4 8 13 -10 11 -24 -3 -9 -9 -12 -9
-12 1 0 7 -4 10 -9 7 -5 -3 -14 0 -20 8 -8 10 -6 17 10 32 17 16 22 16 29 4 9
-14 15 -6 11 14 -1 5 5 4 14 -4 14 -11 14 -14 -2 -27 -17 -13 -17 -14 2 -11
12 2 20 11 20 23 0 11 4 26 8 33 10 14 -5 21 -48 21 -67 1 -76 5 -52 30 10 11
10 14 0 18 -16 6 -17 39 -2 49 17 10 109 13 109 3 0 -5 7 -9 15 -9 17 0 20
-16 5 -25 -5 -3 -10 -11 -10 -17 0 -7 4 -7 13 1 8 6 18 7 22 3 5 -4 5 -1 0 7
-6 11 -1 13 24 9 28 -4 30 -3 16 12 -8 9 -12 19 -9 23 3 3 -11 8 -32 12 -22 3
-65 12 -98 20 -32 7 -65 11 -72 8 -8 -3 -14 0 -14 6 0 17 45 24 104 17 50 -7
55 -5 61 15 6 19 12 21 52 16 31 -3 54 -14 75 -33z m-725 -104 c15 0 18 -36 3
-45 -7 -4 -6 -13 1 -26 8 -17 7 -23 -8 -35 -10 -7 -21 -14 -26 -14 -4 0 -12
-11 -17 -25 -9 -24 -40 -36 -40 -15 0 7 -14 8 -37 4 -36 -7 -37 -6 -23 11 14
17 14 17 -6 5 -12 -7 -29 -10 -38 -7 -16 6 -16 9 -2 29 9 12 13 31 11 42 -8
33 8 50 34 36 21 -10 21 -10 9 10 -11 19 -10 24 11 41 26 22 67 25 74 7 3 -9
7 -6 13 6 7 19 8 19 17 -2 6 -12 16 -22 24 -22z m-997 -45 c52 -71 51 -98 -7
-139 l-43 -30 -47 25 c-38 19 -47 29 -46 47 2 16 -3 22 -16 22 -23 0 -46 25
-31 35 5 3 7 17 4 31 -9 34 18 52 78 51 27 0 51 3 55 6 10 10 10 11 53 -48z
m3390 -135 c12 -16 29 -30 38 -30 9 0 26 -7 36 -15 31 -23 36 -18 20 20 -13
31 -13 35 1 35 8 0 15 -4 15 -10 0 -16 41 -34 49 -21 12 19 30 -30 27 -69 -2
-19 -4 -45 -5 -57 -2 -34 -17 -28 -34 15 -12 28 -16 32 -16 15 -1 -19 -7 -23
-36 -23 -30 0 -35 -3 -35 -24 0 -30 16 -41 52 -37 14 1 29 -4 34 -11 4 -7 4
-10 -1 -6 -4 4 -16 3 -27 -3 -14 -7 -27 -6 -50 5 -17 9 -41 16 -52 16 -20 -1
-20 -1 -3 -14 18 -14 17 -14 -2 -21 -12 -3 -21 -13 -21 -21 0 -11 6 -13 19 -9
11 3 23 0 27 -6 4 -8 3 -9 -5 -5 -20 13 -24 -25 -12 -105 15 -89 22 -229 13
-244 -9 -14 -9 -15 -12 -92 -1 -38 -4 -60 -7 -50 -4 17 -6 16 -25 -5 -11 -13
-18 -32 -15 -45 2 -13 -1 -21 -7 -20 -6 1 -11 -7 -11 -18 -1 -11 -4 -26 -8
-33 -5 -6 -6 -16 -3 -20 3 -5 1 -25 -5 -45 -19 -68 -19 -97 -1 -97 13 0 13 -2
-4 -15 -10 -8 -14 -15 -9 -15 6 0 4 -4 -3 -8 -7 -5 -15 -21 -18 -37 -3 -16 -7
-32 -10 -37 -3 -4 -8 -34 -11 -65 -3 -32 -9 -66 -14 -75 -5 -9 -9 -29 -9 -43
0 -14 -4 -34 -10 -44 -11 -21 -21 -66 -23 -98 -1 -13 -4 -23 -7 -23 -4 0 -7
-6 -7 -13 0 -18 -44 -110 -56 -118 -5 -4 -6 -12 -3 -18 4 -6 2 -11 -4 -11 -14
0 -9 37 37 285 20 105 37 201 39 215 2 14 11 63 19 109 8 47 12 87 10 90 -3 2
-5 -1 -5 -7 0 -6 -8 -9 -17 -6 -11 4 -14 2 -8 -3 12 -9 13 -28 3 -39 -5 -4 -8
-12 -8 -18 0 -6 5 -4 10 4 13 20 12 3 -2 -45 -6 -22 -11 -46 -9 -52 1 -7 -8
-13 -21 -14 -22 0 -22 -1 -3 -9 13 -6 15 -9 5 -9 -11 -1 -12 -3 -3 -9 9 -6 8
-12 -7 -22 -18 -13 -18 -14 -2 -26 15 -12 15 -13 1 -14 -8 0 -21 6 -28 13 -11
10 -13 9 -7 -1 5 -8 1 -11 -14 -9 -23 4 -53 40 -42 52 4 5 2 5 -4 2 -7 -4 -17
0 -24 9 -11 12 -15 12 -21 2 -12 -19 -11 -30 3 -22 6 4 8 3 4 -4 -3 -6 -2 -13
4 -17 6 -4 7 -11 4 -17 -4 -6 -1 -8 7 -6 8 3 13 11 11 17 -1 7 2 10 8 6 6 -3
7 -12 3 -18 -4 -7 -8 -15 -8 -19 0 -3 -4 -10 -9 -15 -5 -4 -6 -3 -3 3 4 7 0
15 -9 18 -9 4 -14 9 -10 13 7 7 -22 43 -35 43 -5 0 -6 -8 -3 -17 5 -15 4 -16
-5 -3 -10 13 -12 13 -21 0 -7 -11 -8 -3 -4 25 3 22 3 37 0 34 -5 -4 -13 -38
-15 -62 -1 -5 -5 -6 -10 -2 -5 3 -13 -4 -16 -16 -6 -17 -9 -19 -16 -8 -7 12
-9 11 -9 -1 -1 -9 -6 -5 -15 10 -13 23 -14 23 -16 5 -1 -11 -1 -24 0 -29 1 -5
-4 -5 -11 0 -18 14 -44 11 -41 -4 3 -11 -18 -17 -41 -13 -5 1 -4 -4 2 -11 8
-11 6 -17 -10 -27 -11 -7 -17 -8 -13 -2 4 7 -3 10 -17 8 -16 -1 -23 3 -22 15
1 10 -4 14 -12 11 -10 -4 -11 -10 -4 -23 8 -14 5 -19 -12 -23 -24 -7 -41 3
-20 10 6 3 10 9 7 14 -8 13 -33 -13 -28 -28 3 -8 -4 -13 -18 -13 -19 0 -21 2
-9 10 9 6 10 10 3 10 -6 0 -15 -4 -18 -10 -3 -5 -11 -10 -16 -10 -6 0 -7 5 -4
10 3 6 -4 14 -16 18 -19 8 -20 9 -5 15 10 4 15 11 11 16 -3 5 -1 12 5 16 5 3
10 12 10 18 0 8 -3 8 -8 2 -13 -18 -31 -15 -29 5 1 10 5 16 9 14 4 -3 8 0 8 5
0 6 -6 11 -12 11 -10 0 -10 2 0 9 11 6 10 10 -3 15 -14 5 -15 9 -5 21 9 10 9
15 1 15 -16 0 -8 36 14 60 14 16 16 21 5 18 -12 -2 -16 16 -18 105 -1 60 1
106 6 103 5 -3 8 25 8 62 -1 37 2 81 5 99 5 24 3 30 -7 26 -10 -4 -12 0 -7 13
4 12 3 15 -5 10 -7 -4 -12 -2 -12 3 0 14 -11 13 -33 -3 -12 -10 -19 -32 -23
-77 -2 -35 -9 -89 -14 -119 -5 -30 -19 -127 -30 -215 -12 -88 -30 -212 -40
-275 -10 -63 -21 -139 -25 -168 -4 -28 -10 -50 -14 -48 -14 9 -40 -22 -71 -82
-17 -34 -34 -62 -37 -62 -3 0 -2 39 2 88 11 145 12 262 3 262 -12 0 -8 141 7
235 6 41 10 96 9 122 -2 42 -1 44 6 18 7 -23 8 -15 6 32 -2 35 0 66 5 69 5 3
6 16 3 30 -3 13 -1 31 6 39 6 8 9 18 6 24 -4 5 -1 60 5 123 11 110 17 183 24
280 1 25 5 50 9 56 3 5 7 43 8 83 1 41 4 66 6 57 3 -15 14 -18 57 -18 30 0 65
-4 78 -9 14 -6 112 -12 219 -15 106 -3 247 -9 312 -12 112 -6 378 5 329 14
-24 4 -30 17 -13 27 8 5 7 11 -1 21 -6 7 -15 11 -20 8 -5 -3 -6 2 -3 11 4 9
-1 24 -10 34 -16 18 -15 19 13 29 26 9 31 8 36 -8 6 -19 7 -19 29 3 l22 22
-22 22 c-13 13 -29 23 -37 23 -8 0 -22 9 -33 21 -10 11 -26 18 -36 16 -10 -3
-21 0 -25 5 -3 6 -2 8 3 5 6 -3 16 -2 24 4 8 5 29 9 47 9 24 0 37 -7 53 -30z"/>
<path d="M4220 3615 c-14 -7 -29 -11 -35 -7 -5 3 -5 -1 1 -9 18 -23 23 -58 9
-69 -7 -5 -11 -21 -10 -34 2 -18 -1 -23 -11 -19 -10 4 -12 0 -8 -11 3 -9 1
-16 -5 -16 -6 0 -11 5 -11 11 0 8 -6 7 -17 -2 -15 -13 -15 -12 -2 9 8 12 18
22 24 22 5 1 -3 12 -20 26 -20 18 -23 22 -8 15 12 -6 24 -8 27 -3 8 14 -9 67
-23 70 -11 2 -12 0 -4 -10 15 -20 24 -50 13 -43 -6 3 -10 13 -10 21 0 8 -9 14
-19 14 -11 0 -22 4 -25 9 -3 5 -16 7 -28 3 -11 -3 -19 -1 -16 4 4 5 -10 10
-30 11 -34 2 -36 1 -18 -13 11 -8 26 -14 33 -14 7 0 18 -12 23 -26 13 -33 13
-34 -6 -34 -8 0 -12 -5 -9 -10 4 -6 11 -8 16 -5 5 4 9 1 9 -4 0 -9 -46 -16
-97 -14 -7 1 -13 -5 -13 -13 0 -8 -6 -11 -15 -8 -8 4 -15 1 -15 -5 0 -6 -4
-11 -10 -11 -19 0 -10 17 15 28 19 9 25 19 25 42 0 22 -4 29 -12 24 -7 -4 -10
-4 -6 1 4 4 2 15 -5 23 -6 9 -7 13 -1 9 6 -3 11 0 11 7 0 14 -25 15 -46 1 -10
-6 -12 -4 -7 6 6 10 4 10 -6 -1 -12 -13 -25 -17 -79 -23 -20 -2 -18 -32 2 -32
8 0 13 6 11 13 -1 6 2 13 8 13 5 1 16 2 23 3 12 2 27 -12 27 -26 0 -5 -6 -7
-12 -5 -8 1 -12 -7 -10 -23 1 -19 0 -21 -7 -10 -6 8 -13 11 -17 8 -4 -4 -15
-3 -25 3 -13 7 -19 6 -19 -1 0 -6 -4 -8 -10 -5 -5 3 -10 -1 -10 -9 0 -9 6 -13
14 -10 12 4 14 -1 10 -21 -3 -18 -1 -24 6 -20 6 4 9 13 7 19 -3 7 -1 19 4 27
7 11 9 10 9 -6 0 -15 2 -17 9 -6 6 9 11 10 15 2 4 -6 4 -11 -1 -11 -4 0 -1 -5
7 -10 8 -5 10 -10 5 -10 -16 0 -16 -38 1 -44 8 -3 11 -13 9 -23 -3 -10 0 -8 6
5 7 12 16 22 21 22 5 0 6 5 3 10 -4 6 -15 8 -26 5 -29 -10 -23 4 8 16 18 7 30
6 37 -1 7 -7 6 -10 -3 -10 -7 0 -9 -4 -6 -10 3 -5 13 -10 21 -10 8 0 13 4 10
9 -3 5 1 11 9 15 8 3 17 1 20 -4 4 -6 2 -10 -4 -10 -5 0 -9 -9 -8 -19 0 -11 5
-17 9 -15 5 3 5 10 2 16 -5 7 -1 9 9 5 14 -5 15 -2 7 18 -9 23 -8 24 9 13 11
-7 18 -20 15 -32 -3 -14 -1 -17 8 -8 8 8 17 8 30 1 11 -6 27 -7 36 -4 30 13
86 14 102 2 8 -7 15 -20 15 -29 0 -10 3 -17 6 -15 3 1 13 -4 22 -12 9 -7 24
-10 33 -7 15 6 15 4 3 -11 -9 -11 -10 -14 -1 -9 7 4 12 2 12 -6 0 -10 2 -10 9
1 6 9 10 10 13 1 2 -6 3 7 3 29 0 23 -3 41 -6 41 -7 0 -27 131 -31 207 -3 41
-3 41 -28 28z"/>
<path d="M3670 3554 c-14 -7 -37 -11 -52 -8 -28 6 -40 -10 -15 -19 6 -2 2 -3
-10 -1 -16 3 -20 0 -16 -15 3 -10 0 -22 -7 -26 -14 -9 -57 37 -52 56 2 8 -3 7
-12 -5 -9 -11 -20 -15 -28 -10 -7 4 0 -5 15 -21 21 -22 25 -31 15 -38 -10 -6
-8 -7 4 -4 9 3 19 3 21 -1 2 -4 3 -2 1 4 -1 6 10 11 26 11 26 0 27 -2 19 -30
-6 -21 -5 -27 2 -20 5 5 11 26 12 46 1 19 6 33 10 30 4 -2 6 -23 3 -44 -4 -33
-2 -38 9 -29 8 7 14 15 13 18 -3 25 4 62 11 62 5 0 8 -12 6 -26 -2 -20 1 -25
15 -21 10 2 17 -1 17 -10 0 -9 -7 -13 -19 -10 -10 3 -18 1 -18 -4 0 -5 4 -9 8
-9 5 0 14 -11 20 -25 7 -16 17 -23 27 -19 8 3 13 10 10 14 -3 5 1 11 7 14 7 3
0 4 -16 0 l-29 -5 16 25 c10 14 25 38 34 52 14 22 14 27 2 35 -13 8 -5 13 14
10 5 -1 5 3 2 9 -5 8 -13 6 -25 -5 -16 -14 -18 -14 -31 2 -12 15 -12 16 3 10
10 -3 20 -2 23 3 10 16 -10 18 -35 4z"/>
<path d="M400 3264 c0 -10 -5 -14 -16 -10 -8 3 -12 2 -9 -3 3 -5 -4 -12 -14
-16 -11 -3 -18 -12 -15 -19 3 -7 -2 -16 -10 -19 -9 -4 -13 -13 -10 -22 3 -8
11 -12 16 -9 6 4 5 10 -3 15 -8 5 -9 9 -4 9 6 0 16 -4 23 -8 10 -7 8 -12 -6
-25 -19 -18 -20 -67 -1 -67 5 0 9 -12 9 -26 0 -15 12 -38 30 -56 17 -16 30
-35 30 -41 0 -7 4 -6 10 3 9 13 10 13 10 0 0 -13 1 -13 10 0 5 8 10 10 10 3 0
-14 26 -11 42 5 18 18 18 190 1 204 -11 9 -12 13 -1 19 10 6 8 12 -7 24 -11 9
-15 14 -8 11 7 -4 10 1 9 11 -2 12 -12 18 -34 18 -17 0 -34 4 -38 8 -12 12
-24 8 -24 -9z"/>
<path d="M453 1913 c-18 -9 -33 -24 -33 -33 0 -9 -3 -20 -7 -24 -12 -12 -10
-48 4 -53 7 -3 10 -10 6 -17 -3 -6 -3 -8 2 -4 4 4 15 2 23 -4 42 -35 94 -13
123 51 19 44 18 79 -5 93 -19 13 -79 8 -113 -9z"/>
<path d="M2377 1815 c-15 -8 -31 -14 -35 -13 -4 0 -13 -12 -21 -27 -41 -84 68
-145 141 -78 19 17 25 83 8 83 -5 0 -10 9 -10 19 0 32 -38 40 -83 16z"/>
<path d="M3361 1692 c-15 -29 -6 -120 15 -143 39 -43 84 -12 84 59 0 65 -18
96 -57 100 -23 2 -34 -2 -42 -16z"/>
<path d="M3186 1691 c-3 -4 -8 -34 -11 -66 -3 -32 -9 -63 -13 -69 -3 -6 -7
-18 -7 -26 0 -8 -8 -16 -19 -18 -11 -3 -16 0 -12 7 4 6 4 44 0 86 -5 53 -11
75 -20 75 -15 0 -16 -6 -14 -100 1 -44 6 -69 16 -76 13 -10 10 -16 -17 -43
-17 -17 -43 -34 -58 -36 -14 -2 -35 -5 -45 -7 -10 -2 -21 3 -23 10 -3 7 4 12
16 12 44 0 31 31 -19 43 -20 5 -29 1 -39 -16 -11 -18 -11 -20 0 -9 18 17 28
15 24 -5 -1 -12 -9 -17 -21 -14 -18 3 -18 2 -1 -16 17 -20 14 -33 -9 -33 -9 0
-11 6 -7 18 6 15 4 15 -9 4 -13 -10 -22 -11 -40 -2 -21 10 -21 10 -6 -3 17
-13 16 -15 -4 -33 -13 -10 -17 -12 -11 -4 9 12 8 20 -4 35 -15 19 -15 19 -9
-5 l7 -25 -15 25 c-9 14 -15 20 -16 13 0 -17 -31 -9 -46 12 -15 20 -49 31 -38
13 8 -13 -13 -2 -38 20 -10 8 -26 12 -38 9 -11 -3 -20 -1 -20 5 0 5 -6 6 -12
1 -19 -12 -80 -11 -68 1 6 6 10 18 10 27 0 25 28 31 40 9 12 -22 36 -26 43 -7
2 6 0 25 -5 42 -4 16 -8 44 -8 61 0 45 -20 57 -80 49 -27 -4 -52 -10 -54 -14
-3 -4 0 -41 5 -82 9 -58 16 -79 35 -96 14 -13 21 -23 17 -23 -4 0 -14 -13 -21
-30 -9 -20 -21 -30 -36 -30 -12 0 -27 -5 -32 -10 -6 -6 -42 -10 -82 -11 -79
-1 -77 1 -73 -74 2 -26 11 -48 26 -64 20 -21 33 -24 97 -25 40 -1 76 -5 80
-11 5 -6 8 -5 8 3 0 7 12 17 26 23 15 5 24 12 21 15 -3 4 7 17 24 31 16 14 27
29 23 34 -3 5 5 9 18 9 18 0 20 2 8 10 -12 8 -10 10 10 10 20 0 22 2 10 10
-13 8 -13 11 -1 22 8 7 11 8 8 2 -4 -7 0 -15 9 -18 12 -5 15 -2 10 9 -3 9 -2
13 4 10 6 -3 10 -1 10 4 0 6 8 11 18 11 13 0 14 -2 4 -9 -10 -6 -5 -11 17 -20
16 -7 34 -10 40 -7 5 4 12 2 16 -3 3 -6 11 -8 18 -6 7 2 66 6 132 10 66 3 130
8 144 12 13 3 37 7 53 8 15 1 39 2 52 3 13 1 26 9 30 17 5 13 2 14 -17 4 -20
-11 -20 -10 3 13 14 13 28 23 32 21 4 -2 5 4 1 13 -4 11 -2 15 4 11 7 -4 9 10
7 40 -1 26 1 52 6 58 4 5 10 21 12 35 5 24 5 24 18 -8 14 -37 36 -38 32 0 -4
42 -36 131 -49 135 -6 2 -14 -5 -18 -16 -8 -27 -25 -27 -25 -1 0 20 -24 28
-34 11z"/>
<path d="M2696 1655 c-11 -11 -14 -30 -10 -67 7 -87 41 -118 93 -82 21 15 23
22 17 72 -4 31 -14 64 -23 74 -20 22 -56 23 -77 3z"/>
<path d="M2130 1578 c0 -88 10 -128 31 -128 14 0 19 7 19 29 0 24 5 30 30 35
39 7 56 46 38 84 -11 23 -20 27 -66 30 l-52 3 0 -53z"/>
<path d="M4562 1433 c-6 -3 -9 -10 -6 -15 4 -7 2 -8 -4 -4 -7 4 -23 -5 -37
-20 -19 -21 -22 -30 -14 -45 5 -11 14 -17 18 -15 9 6 7 -37 -3 -52 -11 -19 42
-54 86 -57 24 -1 53 -5 66 -8 18 -5 25 -1 32 16 10 27 -11 47 -50 47 -28 0
-69 35 -56 47 4 4 11 1 15 -6 6 -9 11 -10 15 -2 4 6 4 11 1 11 -4 0 3 12 14
26 23 29 20 44 -10 44 -10 0 -19 3 -19 8 0 12 -34 29 -48 25z"/>
<path d="M922 1154 c-23 -6 -43 -9 -46 -6 -7 6 -56 -45 -56 -58 0 -5 5 -12 10
-15 6 -3 10 -15 10 -26 0 -10 5 -19 10 -19 6 0 9 -6 8 -12 -2 -7 3 -12 10 -10
6 1 12 -2 12 -8 0 -13 60 -80 72 -80 5 0 17 -7 25 -16 16 -15 45 -15 88 1 16
5 17 5 5 -4 -20 -14 -7 -14 27 2 32 14 73 53 65 61 -3 3 -1 6 4 6 5 0 10 12
11 26 0 15 7 30 15 35 10 6 10 9 1 9 -7 0 -13 7 -13 15 0 8 -6 15 -13 15 -7 0
-19 9 -27 20 -39 55 -146 86 -218 64z"/>
<path d="M4568 1085 c-35 -9 -48 -10 -52 -1 -2 6 -5 4 -5 -4 -1 -8 -15 -21
-32 -29 -28 -12 -29 -15 -14 -31 10 -11 27 -16 51 -14 26 1 50 -6 82 -27 71
-45 152 -34 152 20 0 15 -6 21 -21 21 -11 0 -18 4 -15 8 2 4 -9 14 -25 21 -18
8 -28 19 -27 29 4 21 -32 23 -94 7z"/>
<path d="M2430 1045 c-74 -7 -155 -18 -180 -24 -25 -6 -62 -11 -82 -11 -21 0
-38 -4 -38 -8 0 -5 24 -6 54 -4 41 3 73 -3 130 -23 41 -15 80 -24 86 -20 5 3
10 1 10 -6 0 -8 5 -7 17 2 9 8 14 9 10 3 -4 -7 0 -17 7 -23 11 -9 16 -9 22 0
5 8 3 9 -6 4 -9 -5 -11 -4 -6 4 5 8 12 9 19 2 7 -5 44 -12 82 -16 39 -4 75 -8
80 -9 6 0 11 31 13 72 l3 72 -43 -1 c-24 -1 -104 -7 -178 -14z"/>
<path d="M3315 1008 c-33 -15 -77 -80 -72 -105 4 -20 0 -23 -27 -23 -17 0 -40
-7 -51 -16 -17 -13 -18 -16 -5 -25 43 -28 47 -29 66 -6 l19 22 -25 -20 -25
-20 19 22 c10 12 21 22 25 21 3 0 8 0 11 2 22 8 50 8 50 0 0 -6 -6 -10 -12
-10 -9 0 -10 -3 -2 -8 6 -4 14 -39 17 -79 4 -39 10 -78 13 -87 9 -22 55 -24
87 -3 31 21 35 42 10 56 -17 9 -17 10 0 16 18 8 24 35 6 35 -5 0 -7 -5 -3 -11
4 -7 0 -9 -13 -5 -13 4 -25 0 -33 -9 -18 -21 -30 -2 -30 48 0 26 4 37 15 37 8
0 15 -4 15 -9 0 -6 8 -10 18 -10 9 0 31 -2 47 -5 23 -4 25 -4 6 2 l-24 7 27
12 c15 8 26 9 26 3 0 -6 9 -10 21 -10 11 0 17 -5 14 -10 -4 -6 -10 -8 -15 -5
-5 3 -8 -23 -7 -57 1 -41 -3 -68 -11 -77 -12 -12 -11 -16 3 -23 13 -8 14 -13
4 -24 -6 -8 -9 -15 -5 -15 3 -1 10 -2 15 -3 5 0 13 -5 18 -10 4 -5 3 -6 -4 -2
-6 3 -15 1 -19 -6 -4 -7 -4 -10 1 -6 9 9 47 -10 41 -20 -2 -4 8 -7 22 -7 30
-1 55 24 41 41 -5 6 -3 19 6 31 13 19 13 23 -1 37 -8 9 -20 14 -25 11 -5 -4
-9 -1 -9 6 0 8 -4 8 -15 -1 -12 -10 -15 -9 -15 8 0 25 47 36 68 15 13 -13 17
-13 29 0 13 13 10 24 -27 91 -23 41 -39 79 -36 84 3 5 -6 7 -21 4 -21 -4 -25
-2 -20 12 4 9 2 16 -4 16 -7 0 -9 -10 -4 -27 5 -21 4 -24 -7 -16 -7 6 -26 8
-41 6 -33 -5 -60 13 -53 34 4 9 1 11 -6 7 -7 -5 -9 -2 -6 7 6 16 -12 42 -47
71 -15 11 -25 13 -40 6z"/>
<path d="M3809 961 c-1 -3 -1 -9 0 -13 0 -5 -5 -8 -11 -8 -9 0 -8 -3 2 -10 8
-5 11 -12 7 -16 -3 -4 -14 -1 -22 6 -27 23 -70 21 -95 -2 l-23 -22 5 28 c5 25
4 25 -12 11 -9 -8 -25 -15 -34 -15 -13 0 -16 -5 -12 -16 5 -14 4 -15 -9 -4
-13 11 -14 10 -9 -4 3 -9 11 -16 18 -16 15 0 66 -58 66 -74 0 -7 3 -16 8 -20
4 -4 7 -11 8 -14 2 -25 30 -62 46 -62 22 0 33 27 49 117 7 38 18 75 25 83 7 8
13 19 13 25 0 5 5 11 12 14 6 2 9 -1 6 -6 -3 -5 0 -10 8 -10 10 0 12 4 5 12
-5 7 -8 14 -6 16 2 2 -7 5 -20 5 -13 1 -25 -1 -25 -5z"/>
<path d="M2951 669 c-10 -23 -16 -28 -22 -18 -7 11 -9 11 -9 1 0 -7 -4 -10
-10 -7 -15 9 -12 -10 8 -49 21 -43 65 -51 77 -13 4 14 8 17 12 9 7 -19 -4 -42
-21 -42 -8 0 -27 -11 -41 -24 -15 -14 -35 -23 -47 -21 -14 3 -18 0 -14 -10 3
-9 -3 -19 -15 -26 -11 -6 -18 -17 -15 -24 3 -8 -9 -27 -25 -43 l-30 -29 23
-15 c38 -24 66 -28 80 -9 12 14 11 15 -4 2 -10 -7 -18 -9 -18 -3 0 14 28 23
35 11 4 -5 10 -7 15 -4 5 3 12 1 15 -5 4 -6 3 -10 -2 -9 -16 4 -43 -13 -43
-27 0 -7 -8 -17 -17 -23 -10 -5 -15 -13 -11 -17 4 -4 1 -12 -7 -18 -14 -10
-14 -14 -2 -30 17 -23 46 -15 54 15 4 15 8 17 13 8 6 -9 12 -8 25 5 10 9 22
15 29 13 6 -2 19 7 28 21 14 22 14 27 2 39 -20 20 -18 26 16 45 17 9 30 13 30
8 0 -6 9 -10 20 -10 11 0 20 7 20 15 0 8 -5 14 -11 12 -6 -1 -14 4 -16 11 -3
7 1 10 10 6 18 -7 29 9 21 30 -5 13 -9 14 -20 5 -17 -14 -19 2 -2 19 10 10 15
7 25 -10 7 -13 13 -16 12 -8 -1 8 1 23 6 33 4 10 5 21 1 24 -3 4 -6 -1 -6 -10
0 -22 -17 -22 -23 1 -4 16 -5 16 -6 0 -2 -31 -20 -20 -24 15 -3 26 -4 24 -3
-8 0 -22 -4 -39 -9 -37 -5 1 -8 20 -6 42 2 35 0 39 -16 33 -17 -6 -17 -6 -1
10 9 10 15 26 13 36 -3 14 1 18 15 14 12 -3 17 -12 15 -24 -2 -11 0 -17 4 -15
17 11 5 61 -17 71 -15 7 -22 19 -22 37 0 26 -3 28 -38 28 -32 0 -39 -4 -51
-31z"/>
<path d="M3282 639 c2 -8 -12 -15 -32 -19 -56 -10 -79 -27 -86 -65 -3 -19 -10
-33 -14 -30 -5 3 -7 -13 -5 -35 3 -26 0 -42 -9 -47 -18 -11 -27 -76 -10 -69 7
3 17 -1 23 -8 19 -23 56 -14 59 14 8 81 30 110 85 115 11 1 22 7 26 14 4 7 21
13 37 14 26 2 29 6 32 41 3 38 3 39 -25 33 -16 -3 -35 -1 -43 4 -11 8 -9 9 8
4 23 -7 32 9 10 18 -10 4 -10 6 -1 6 6 1 15 -3 18 -9 8 -12 45 -13 45 -1 0 13
-24 20 -56 16 -16 -1 -37 1 -47 6 -12 7 -17 6 -15 -2z"/>
<path d="M1148 145 c-3 -4 -20 -7 -37 -7 -17 -1 -28 -5 -25 -9 3 -5 -2 -6 -10
-3 -10 4 -16 1 -16 -7 0 -8 -6 -5 -15 7 -15 19 -15 19 -34 -3 -11 -13 -25 -23
-32 -23 -8 0 -5 8 7 23 l19 22 -26 -22 c-14 -13 -33 -23 -42 -23 -9 0 -19 -5
-22 -10 -4 -6 -11 -8 -16 -4 -6 3 -17 -2 -25 -12 -12 -17 -13 -17 -8 -1 10 27
-5 20 -16 -8 -8 -22 -13 -24 -29 -16 -15 8 -20 7 -25 -5 -3 -8 -10 -12 -16 -9
-5 3 -10 0 -10 -7 0 -9 -3 -9 -10 2 -6 9 -10 10 -10 3 0 -11 -9 -11 -74 3 -30
7 -116 -13 -116 -27 0 -5 166 -9 369 -9 366 0 370 0 376 21 4 11 4 23 1 26 -3
4 -6 0 -6 -8 -1 -8 -8 0 -17 16 -10 17 -16 33 -15 37 1 3 -9 5 -22 4 -16 -2
-23 1 -19 9 2 7 -1 16 -8 21 -7 4 -10 3 -6 -3 3 -5 0 -10 -7 -10 -8 0 -12 6
-9 14 3 7 1 13 -5 13 -6 0 -17 2 -24 5 -8 3 -17 3 -20 0z"/>
</g>
</svg>
