<?xml version="1.0" standalone="no"?>
<!DOCTYPE svg PUBLIC "-//W3C//DTD SVG 20010904//EN"
 "http://www.w3.org/TR/2001/REC-SVG-20010904/DTD/svg10.dtd">
<svg version="1.0" xmlns="http://www.w3.org/2000/svg"
 width="568.000000pt" height="568.000000pt" viewBox="0 0 568.000000 568.000000"
 preserveAspectRatio="xMidYMid meet">

<g transform="translate(0.000000,568.000000) scale(0.100000,-0.100000)"
fill="#000000" stroke="none">
<path d="M3132 5660 c-13 -12 -35 -20 -57 -20 -19 0 -35 -4 -35 -10 0 -5 -18
-10 -40 -10 -22 0 -40 -4 -40 -10 0 -5 7 -10 15 -10 16 0 20 -18 7 -35 -9 -13
-62 -16 -62 -4 0 4 -8 5 -17 2 -15 -6 -15 -7 1 -12 15 -6 15 -9 -5 -30 -17
-18 -23 -20 -30 -9 -8 11 -11 11 -18 -2 -5 -8 -7 -18 -5 -22 3 -5 0 -7 -6 -6
-7 2 -14 -5 -15 -15 -2 -11 -7 -22 -11 -25 -4 -4 -4 1 -1 11 4 9 2 17 -3 17
-6 0 -10 -5 -10 -11 0 -6 -11 -8 -27 -5 -16 3 -39 -1 -53 -9 -19 -11 -21 -14
-7 -15 9 0 23 -11 29 -25 8 -18 19 -25 39 -25 15 0 31 5 34 10 16 26 114 -38
115 -75 0 -14 58 -36 62 -24 5 14 68 -10 68 -26 0 -7 16 -20 35 -29 19 -9 40
-26 46 -37 10 -19 11 -19 23 -3 12 15 14 15 34 -6 12 -13 19 -26 17 -30 -7
-11 59 -22 87 -15 34 9 57 -14 60 -57 2 -21 8 -38 15 -38 6 0 13 -5 15 -11 2
-6 13 -9 23 -6 19 5 19 5 -2 12 -13 4 -23 12 -23 17 0 6 7 7 16 4 9 -3 26 -6
40 -6 17 0 22 -4 17 -16 -4 -10 1 -17 15 -21 12 -3 24 -13 27 -23 13 -42 84
-100 122 -100 13 0 24 -8 28 -19 6 -20 6 -20 26 0 24 24 42 20 104 -22 41 -28
71 -67 43 -56 -7 2 -24 7 -38 11 -21 6 -22 5 -7 -4 9 -6 17 -21 17 -33 0 -26
33 -80 43 -71 4 4 0 12 -9 18 -21 16 -7 46 21 46 13 0 25 -3 27 -7 2 -5 23
-15 48 -24 37 -13 46 -21 51 -48 7 -36 -5 -50 -20 -24 -6 10 -11 14 -11 9 0
-4 -9 2 -20 15 l-20 24 7 -30 c4 -16 7 -46 6 -66 0 -33 2 -35 25 -31 20 4 24
2 19 -12 -8 -21 -2 -20 31 2 42 27 63 22 87 -23 13 -21 28 -41 34 -43 8 -3 8
-9 -1 -25 l-11 -21 -8 22 c-5 12 -13 22 -20 22 -6 0 -9 -7 -6 -14 4 -9 -2 -17
-14 -21 -10 -4 -19 -13 -19 -21 0 -8 -5 -14 -11 -14 -8 0 -10 12 -6 35 3 19 2
35 -2 35 -14 0 -55 -111 -57 -154 -1 -23 -2 -47 -3 -53 -2 -20 -54 -43 -74
-32 -14 9 -16 6 -11 -20 7 -33 -27 -101 -50 -101 -13 0 -30 -28 -41 -67 -3
-12 -19 -26 -35 -32 -24 -8 -32 -19 -42 -56 -7 -25 -20 -55 -30 -65 -19 -20
-24 -50 -9 -50 12 0 -3 -66 -21 -88 -19 -25 -31 -32 -55 -32 -15 0 -21 -5 -17
-13 3 -8 -2 -20 -11 -27 -8 -7 -15 -19 -15 -27 0 -14 -91 -113 -105 -113 -11
0 -55 -49 -55 -61 0 -5 -6 -9 -14 -9 -7 0 -19 -7 -26 -15 -7 -8 -16 -12 -21
-9 -5 3 -9 -9 -9 -25 0 -17 4 -31 9 -31 16 0 0 -70 -26 -117 -14 -23 -28 -43
-33 -43 -4 0 -6 -8 -3 -19 6 -25 -33 -54 -57 -41 -16 8 -17 5 -13 -23 6 -47
-11 -83 -51 -109 -19 -13 -38 -33 -41 -45 -3 -13 -10 -23 -16 -23 -6 0 -9 7
-5 15 3 8 1 15 -3 15 -5 0 -13 -12 -19 -27 -5 -16 -20 -38 -31 -51 -21 -21
-23 -21 -38 -6 -16 15 -18 14 -31 -22 -13 -37 -12 -64 3 -110 5 -15 -2 -29
-25 -52 -30 -31 -47 -33 -77 -9 -10 7 -13 2 -13 -19 0 -33 8 -48 30 -57 8 -4
-1 -4 -21 -1 -22 4 -39 1 -43 -5 -4 -6 -16 -11 -27 -11 -12 0 -28 -9 -37 -19
-19 -21 -78 -35 -87 -21 -3 6 -15 10 -26 10 -19 0 -19 -1 -5 -16 9 -8 16 -17
16 -20 0 -7 -25 1 -32 11 -5 6 -8 3 -8 -6 0 -9 10 -19 22 -22 17 -5 19 -9 10
-20 -7 -8 -9 -17 -5 -20 3 -4 1 -7 -5 -7 -6 0 -9 -6 -6 -14 3 -7 -6 -21 -20
-30 -15 -9 -26 -22 -26 -30 0 -14 -27 -73 -43 -94 -8 -10 -14 -9 -28 4 -18 16
-19 16 -19 -10 0 -14 -9 -51 -19 -82 -11 -30 -18 -61 -15 -69 6 -15 -60 -85
-80 -85 -8 0 -16 7 -20 15 -9 23 -23 18 -23 -9 0 -14 -15 -39 -32 -58 -17 -18
-29 -39 -26 -46 7 -18 -12 -62 -27 -62 -7 0 -20 -13 -29 -29 -11 -18 -28 -31
-47 -36 -18 -4 -32 -14 -35 -26 -5 -17 -9 -19 -26 -9 -19 10 -21 8 -21 -24 0
-19 -4 -37 -9 -40 -5 -3 -12 -21 -15 -39 -3 -19 -17 -44 -31 -57 -14 -13 -25
-31 -24 -39 0 -11 2 -12 6 -3 10 26 21 10 11 -18 -6 -20 -19 -32 -36 -37 -15
-3 -49 -30 -77 -60 -27 -29 -55 -53 -60 -53 -6 0 -19 -14 -28 -30 -10 -17 -24
-30 -32 -30 -8 0 -20 -12 -27 -27 -8 -17 -26 -31 -45 -37 -18 -5 -33 -13 -33
-18 0 -5 -5 -6 -11 -2 -7 4 -10 1 -7 -7 3 -8 -8 -40 -23 -71 -16 -32 -29 -65
-29 -73 0 -21 -46 -63 -87 -80 -25 -11 -33 -20 -33 -39 0 -24 -8 -30 -27 -23
-5 1 -7 6 -5 10 1 5 -2 6 -8 2 -5 -3 -10 -12 -10 -19 0 -37 -96 -100 -136 -90
-16 4 -24 0 -29 -15 -3 -11 -15 -23 -25 -26 -29 -9 -51 -65 -50 -126 1 -85 -1
-97 -17 -103 -8 -3 -11 -11 -8 -16 4 -7 18 1 35 19 28 28 40 30 40 5 0 -17
-55 -74 -73 -74 -8 0 -20 -7 -27 -15 -10 -12 -10 -18 1 -31 17 -20 56 -10 80
21 11 13 48 52 83 87 35 35 66 72 70 83 7 21 98 95 117 95 18 0 86 75 81 89
-3 8 0 11 7 7 6 -4 11 -3 11 2 0 16 100 116 100 101 1 -8 7 1 15 19 8 18 19
31 24 28 5 -3 7 3 4 14 -4 15 0 20 15 20 12 0 26 -8 31 -17 6 -10 11 -13 11
-6 0 7 -6 18 -13 25 -11 10 -10 18 7 45 12 17 27 32 34 33 6 0 12 5 12 11 0 6
7 8 17 5 10 -4 14 -4 11 0 -7 6 81 53 125 68 9 3 17 14 17 25 0 10 7 22 16 25
9 3 14 12 11 19 -6 19 25 36 56 30 17 -4 27 -1 27 6 0 7 -4 10 -8 7 -4 -2 -14
-1 -22 5 -12 7 -11 9 4 9 11 0 17 3 13 6 -3 4 1 13 9 21 8 9 12 23 9 31 -8 22
16 34 30 15 10 -13 14 -13 20 -3 5 9 4 11 -4 6 -8 -6 -10 4 -5 36 6 44 29 72
50 64 7 -3 14 11 18 35 5 31 14 44 36 57 16 9 30 20 30 25 0 4 7 7 15 7 8 0
15 5 15 10 0 6 8 10 17 10 21 0 63 46 63 69 0 12 2 13 8 3 5 -7 16 -10 26 -6
14 5 14 9 4 22 -11 13 -10 14 2 10 19 -6 63 39 56 58 -3 9 0 11 12 7 15 -6 15
-5 3 10 -12 15 -11 17 8 17 16 0 21 6 21 26 0 15 4 23 10 19 6 -4 10 -3 9 2
-1 4 -1 19 0 33 1 19 4 21 13 12 16 -16 28 -15 28 2 0 8 9 21 20 29 21 15 15
27 -20 40 -12 4 -11 6 3 6 9 1 17 6 17 11 0 6 9 10 20 10 11 0 20 4 20 8 0 9
91 57 103 54 5 -2 6 2 3 7 -9 14 32 40 55 34 11 -3 19 0 19 8 0 7 3 10 6 6 8
-8 56 16 79 39 12 12 13 19 5 24 -9 5 -9 9 -1 14 6 4 11 2 11 -3 0 -21 31 -11
42 14 6 13 14 22 19 20 4 -3 10 4 14 15 5 15 15 20 41 20 20 0 45 5 57 12 12
7 53 15 90 18 l69 5 -4 -27 c-4 -21 -2 -25 8 -17 7 6 23 8 35 4 17 -6 19 -9 8
-17 -11 -8 -11 -11 -1 -15 10 -4 10 -8 1 -19 -7 -8 -7 -14 -1 -14 19 0 20 -40
1 -64 -21 -27 -25 -41 -8 -30 6 3 3 -8 -6 -26 -9 -18 -12 -29 -7 -26 6 3 13 0
16 -6 3 -7 3 -2 0 12 -7 28 -2 26 15 -7 10 -19 9 -21 -9 -18 -14 3 -20 -2 -20
-15 0 -10 4 -21 9 -24 15 -9 1 -45 -15 -39 -8 3 -14 -1 -14 -8 0 -7 3 -9 7 -6
3 4 12 2 19 -4 10 -8 15 -4 19 18 3 15 10 35 16 43 5 8 12 22 15 30 3 8 13 33
24 55 10 22 21 49 24 61 4 12 22 35 40 52 19 17 38 37 43 45 4 7 24 24 43 37
19 13 46 33 60 46 14 12 40 25 59 29 39 8 89 41 147 95 32 30 47 37 70 35 16
-2 65 -9 109 -15 44 -6 105 -14 135 -18 30 -4 62 -12 70 -17 8 -5 28 -10 43
-11 47 -3 105 -34 117 -63 8 -21 9 -22 6 -3 -2 12 -1 21 2 19 48 -21 62 -34
67 -58 3 -15 13 -30 21 -33 11 -4 11 -1 -2 19 -22 34 -6 31 39 -6 30 -25 38
-37 35 -59 -2 -21 5 -34 25 -50 32 -26 36 -16 5 17 -12 13 -18 26 -14 30 11
12 56 -45 56 -70 0 -13 9 -30 20 -40 11 -9 20 -27 20 -40 0 -13 4 -27 9 -32
11 -13 24 -128 13 -121 -5 3 -9 -9 -9 -27 -3 -65 -9 -94 -31 -130 -12 -20 -17
-37 -12 -37 17 0 11 -46 -10 -73 -14 -18 -19 -34 -14 -51 4 -19 0 -31 -19 -50
-14 -14 -28 -39 -32 -55 -4 -20 -20 -41 -46 -58 -21 -16 -39 -33 -39 -39 0
-16 -34 -44 -52 -44 -15 0 -19 22 -6 35 3 3 -3 29 -14 57 -10 28 -15 54 -10
57 13 9 23 41 12 41 -6 0 -10 7 -10 15 0 8 -7 15 -15 15 -8 0 -15 6 -15 14 0
8 -4 16 -9 18 -5 2 -11 10 -13 18 -2 8 -11 21 -20 30 -10 8 -19 25 -21 37 -2
13 -13 34 -25 48 -12 14 -22 30 -22 35 0 6 -9 10 -20 10 -10 0 -23 6 -27 14
-11 17 -47 36 -71 36 -11 0 -22 7 -26 15 -3 8 -12 15 -21 15 -10 0 2 -17 32
-45 26 -25 50 -45 54 -45 3 0 19 -19 35 -42 16 -24 35 -47 41 -51 19 -12 43
-62 43 -90 0 -12 5 -28 11 -34 15 -15 31 -94 33 -161 1 -29 6 -56 12 -60 14
-9 26 -70 15 -76 -5 -3 -11 -18 -14 -33 -7 -41 -44 -133 -60 -152 -8 -9 -17
-28 -21 -43 -3 -15 -21 -44 -39 -63 -63 -70 -112 -115 -124 -115 -7 0 -13 -6
-13 -13 0 -19 -33 -47 -53 -47 -9 0 -28 -13 -43 -29 -14 -16 -39 -32 -56 -35
-18 -3 -40 -14 -50 -23 -10 -9 -35 -19 -56 -23 l-37 -8 42 -1 c50 -1 170 36
196 60 10 9 34 20 52 23 19 4 47 20 64 35 17 16 31 27 31 24 0 -3 21 8 48 23
47 27 56 35 142 116 24 24 51 43 60 43 8 0 15 7 15 15 0 29 25 60 49 60 26 0
76 50 77 78 0 14 2 13 9 -3 5 -11 9 -14 9 -7 1 7 5 11 10 8 5 -3 15 2 22 11
12 14 12 16 -1 8 -9 -5 -12 -5 -7 1 5 5 13 10 18 10 5 1 14 2 19 3 6 0 10 8
10 16 0 8 7 15 15 15 9 0 18 7 21 15 3 8 14 17 24 20 11 3 22 15 26 27 5 16 8
18 15 7 7 -11 9 -10 9 4 0 10 5 15 10 12 6 -3 10 2 10 12 0 11 7 28 15 39 8
10 15 27 15 37 0 9 7 17 15 17 9 0 22 15 30 33 12 27 14 28 15 10 0 -13 5 -23
10 -23 6 0 10 9 10 20 0 20 32 44 44 33 3 -3 6 -1 6 6 0 6 11 16 25 21 14 5
25 14 25 20 0 5 14 10 30 10 17 0 30 4 30 9 0 5 10 11 23 14 12 2 30 8 40 12
13 5 17 2 17 -13 0 -17 10 -11 55 32 30 29 55 57 55 63 0 11 32 43 43 43 4 0
7 -7 7 -15 0 -10 10 -15 31 -15 44 0 117 -20 130 -36 7 -9 31 -14 61 -14 27 0
57 -4 66 -9 9 -4 38 -11 65 -14 l47 -7 0 524 c0 287 -3 526 -7 530 -17 17 -25
116 -10 134 18 22 22 1923 5 1952 -10 15 -10 22 0 32 16 16 17 418 2 418 -7 0
-7 6 0 19 6 11 10 89 10 180 l0 161 -1263 0 c-1249 0 -1263 0 -1285 -20z m708
-160 c0 -5 -5 -10 -11 -10 -5 0 -7 5 -4 10 3 6 8 10 11 10 2 0 4 -4 4 -10z
m108 -8 c8 8 12 9 12 1 0 -12 -23 -23 -46 -23 -8 0 -14 7 -14 15 0 12 4 13 18
6 13 -7 23 -6 30 1z m-47 -51 c18 -43 16 -51 -13 -51 -17 0 -22 14 -19 53 1 9
-3 17 -8 17 -6 0 -11 5 -11 10 0 6 8 10 18 10 10 0 23 -15 33 -39z m-100 18
c-16 -6 -28 -6 -35 1 -7 7 1 10 25 9 32 0 33 -1 10 -10z m175 -46 c-10 -10
-19 5 -10 18 6 11 8 11 12 0 2 -7 1 -15 -2 -18z m-28 -57 c3 -12 -1 -17 -10
-14 -7 3 -21 1 -30 -3 -23 -12 -32 6 -12 26 21 20 48 16 52 -9z m1722 3 c0
-14 -27 -10 -33 5 -4 10 0 12 14 9 10 -3 19 -9 19 -14z m-232 -126 c2 -12 12
-29 23 -39 24 -22 24 -39 -1 -66 -21 -23 -23 -20 -20 25 1 19 -3 27 -15 27 -8
0 -18 7 -21 15 -4 10 -14 13 -29 9 -25 -6 -42 18 -22 34 33 26 81 23 85 -5z
m-918 -73 c-15 -9 8 -50 27 -50 7 0 13 -10 13 -21 0 -18 -2 -19 -15 -9 -12 10
-15 9 -15 -5 0 -14 -3 -15 -14 -5 -8 6 -12 18 -9 26 7 19 -27 31 -37 13 -5 -7
-12 -11 -15 -7 -10 10 14 48 29 48 8 0 17 7 20 16 3 8 11 12 17 8 8 -5 8 -9
-1 -14z m386 -10 c20 0 30 -30 13 -41 -12 -8 -12 -11 1 -19 12 -8 13 -10 1
-10 -8 0 -22 -7 -32 -16 -10 -9 -23 -13 -30 -8 -9 5 -6 10 9 15 25 9 29 42 8
61 -10 10 -11 17 -2 31 9 15 12 15 14 2 2 -8 10 -15 18 -15z m-121 -70 c-3 -5
-11 -10 -16 -10 -6 0 -7 5 -4 10 3 6 11 10 16 10 6 0 7 -4 4 -10z m11 -45
c-18 -18 -21 -46 -6 -61 5 -5 6 -15 0 -23 -6 -11 -13 -8 -34 15 -14 16 -26 34
-26 41 0 19 62 65 73 54 6 -6 4 -15 -7 -26z m119 -18 c-8 -13 -12 -26 -9 -30
8 -8 -57 -47 -79 -47 -27 0 -11 18 23 25 23 5 30 12 30 31 0 15 6 24 15 24 8
0 15 5 15 10 0 6 5 10 10 10 6 0 4 -10 -5 -23z m-385 -4 c0 -19 -20 -26 -35
-13 -21 18 -18 25 10 25 14 0 25 -5 25 -12z m-950 -47 c0 -3 -4 -8 -10 -11 -5
-3 -10 -1 -10 4 0 6 5 11 10 11 6 0 10 -2 10 -4z m79 -30 c29 -26 26 -38 -5
-25 -15 5 -29 7 -32 4 -7 -7 -32 15 -32 29 0 19 46 13 69 -8z m336 -327 c-3
-4 -12 -6 -20 -3 -8 4 -13 10 -10 15 3 4 12 6 20 3 8 -4 13 -10 10 -15z m1533
-65 c22 -6 22 -7 6 -25 -10 -11 -17 -33 -17 -49 0 -25 -7 -33 -39 -47 -23 -10
-37 -23 -35 -32 4 -30 -27 -16 -34 14 -4 17 -11 41 -14 55 -7 24 -7 24 20 -5
24 -26 27 -27 21 -8 -6 18 -4 22 8 17 8 -3 24 0 36 6 18 10 21 18 17 46 -6 36
-5 37 31 28z m-804 -166 c50 -46 31 -127 -29 -127 -18 0 -17 2 8 22 30 25 34
52 13 80 -16 21 -55 20 -73 -3 -11 -13 -12 -13 -13 3 0 11 9 21 20 24 11 3 20
9 20 14 0 16 29 9 54 -13z m425 -37 c8 -5 10 -14 5 -22 -7 -12 -5 -12 9 -1 14
12 17 10 23 -15 4 -15 10 -32 14 -38 12 -16 -1 -75 -16 -75 -20 0 -25 16 -9
30 16 13 21 35 7 26 -5 -3 -23 10 -40 30 -42 47 -37 93 7 65z m256 -140 c-3
-5 1 -15 8 -23 11 -12 23 -44 42 -115 6 -22 -9 -31 -40 -23 -5 2 -17 3 -26 2
-8 0 -21 9 -28 20 -12 19 -11 19 20 13 37 -8 50 5 40 44 -7 22 -13 26 -46 26
-49 0 -53 14 -12 43 33 23 52 29 42 13z m71 -98 c-10 -10 -19 5 -10 18 6 11 8
11 12 0 2 -7 1 -15 -2 -18z m118 -474 c-2 -4 -19 -2 -37 4 -42 15 -44 17 -28
26 14 9 73 -18 65 -30z m-94 -19 c0 -5 -2 -10 -4 -10 -3 0 -8 5 -11 10 -3 6
-1 10 4 10 6 0 11 -4 11 -10z m-1960 -21 c0 -11 -10 -29 -21 -38 -13 -11 -23
-31 -24 -52 l-3 -34 11 28 c14 36 27 34 27 -4 0 -18 -4 -28 -10 -24 -6 3 -13
-1 -17 -11 -5 -14 -8 -14 -25 7 -17 21 -19 22 -14 4 3 -11 8 -45 11 -76 4 -45
2 -58 -10 -63 -9 -3 -15 -18 -15 -36 0 -18 -6 -33 -15 -36 -8 -4 -15 -12 -15
-20 0 -8 -7 -14 -15 -14 -8 0 -15 7 -15 15 0 22 -18 18 -25 -5 -3 -11 -15 -24
-25 -30 -10 -5 -24 -26 -30 -45 -6 -19 -16 -35 -21 -35 -6 0 -4 -9 4 -21 15
-20 12 -59 -3 -59 -5 0 -11 -13 -15 -30 -4 -16 -10 -30 -15 -30 -4 0 -6 -9 -3
-20 4 -13 0 -20 -9 -20 -35 0 -82 -80 -79 -134 1 -16 -6 -37 -15 -47 -10 -11
-13 -19 -9 -19 5 0 -1 -9 -13 -20 -12 -12 -22 -27 -22 -35 0 -7 -21 -32 -46
-54 -40 -35 -48 -39 -58 -26 -9 12 -11 8 -12 -20 -1 -46 -19 -78 -53 -93 -22
-10 -30 -21 -35 -51 -6 -37 -19 -54 -63 -79 -17 -9 -23 -9 -23 -1 0 24 -37
-22 -50 -61 -7 -22 -16 -40 -19 -40 -4 0 -15 -13 -24 -30 -10 -17 -25 -30 -33
-30 -8 0 -14 -3 -14 -7 0 -13 -46 -30 -76 -29 -35 1 -67 -25 -62 -50 2 -13 -7
-24 -29 -34 -24 -11 -33 -22 -33 -41 0 -17 -8 -30 -22 -38 -13 -6 -16 -10 -7
-7 15 4 15 0 6 -32 -7 -20 -20 -46 -30 -57 -15 -16 -21 -17 -37 -7 -28 17 -28
17 -23 -31 4 -42 2 -45 -49 -88 -75 -64 -108 -83 -108 -65 0 7 10 16 23 20 18
5 19 8 8 15 -19 12 -64 -28 -50 -45 13 -15 -11 -59 -42 -78 -14 -8 -26 -21
-26 -28 -1 -43 -15 -58 -55 -58 -32 0 -43 -25 -33 -76 7 -38 4 -41 -19 -18
-15 14 -16 14 -17 -3 -3 -57 -26 -113 -45 -113 -8 0 -14 -4 -14 -10 0 -5 -9
-10 -20 -10 -10 0 -23 -6 -27 -13 -4 -8 -21 -17 -38 -21 -23 -5 -26 -4 -15 4
12 9 12 11 -5 8 -11 -2 -19 -11 -19 -20 1 -11 -5 -14 -19 -10 -14 3 -18 1 -13
-6 4 -7 2 -12 -3 -12 -6 0 -11 -6 -11 -12 -1 -18 -31 -52 -52 -61 -10 -3 -18
-13 -18 -22 0 -8 -4 -15 -10 -15 -15 0 -12 17 7 36 19 18 20 24 29 99 7 69 8
70 47 89 23 10 37 25 39 39 2 14 11 23 24 25 15 2 24 12 28 32 4 22 13 31 33
36 15 4 46 27 68 51 22 24 46 43 53 43 6 0 12 4 12 9 0 5 8 12 18 15 10 4 36
46 62 100 25 52 47 93 51 90 4 -2 9 14 13 35 5 33 12 42 43 58 24 11 39 26 41
40 3 23 34 41 40 24 2 -6 8 -11 14 -11 5 0 8 6 6 12 -3 7 1 24 8 37 7 14 11
29 7 33 -3 5 4 12 16 15 12 3 21 10 21 15 0 5 5 6 10 3 6 -3 13 2 17 12 3 10
30 41 59 68 37 35 56 62 63 92 7 23 17 46 24 50 7 4 21 36 32 71 10 34 21 62
25 62 4 0 10 14 14 31 7 37 31 58 65 59 13 0 22 3 19 6 -6 6 11 26 47 54 10 8
16 10 12 4 -10 -17 32 -25 54 -11 16 10 25 41 20 71 -1 5 5 6 14 3 8 -4 15 -3
15 2 0 4 31 27 70 51 38 24 67 46 65 48 -2 3 7 13 20 24 20 16 24 26 20 56 -7
52 1 69 35 76 26 5 30 10 30 36 0 48 17 71 48 68 18 -2 27 2 28 12 1 8 2 23 3
32 0 10 12 20 26 24 28 7 69 73 59 97 -3 8 4 25 15 38 43 50 91 118 89 126 -1
4 3 17 9 28 17 32 26 95 13 95 -18 0 -1 37 31 70 17 17 35 28 40 24 5 -3 9 3
9 14 0 10 11 24 25 30 14 6 25 16 25 22 0 5 5 10 10 10 6 0 10 -9 10 -21z
m1774 15 c9 -3 14 -10 11 -14 -3 -4 2 -13 10 -20 8 -7 15 -21 15 -31 0 -23
-28 -25 -37 -4 -4 12 -17 15 -51 13 -40 -3 -47 0 -50 17 -4 19 -4 19 16 2 19
-17 19 -17 15 7 -4 19 0 25 18 29 13 2 27 5 31 6 3 0 13 -2 22 -5z m309 -37
c3 -7 -4 -19 -15 -26 -25 -15 -28 -12 -17 17 9 25 24 29 32 9z m-218 -28 c12
-19 -5 -23 -22 -6 -16 16 -16 17 -1 17 9 0 20 -5 23 -11z m-255 -59 c0 -5 3
-16 7 -26 5 -13 3 -16 -9 -11 -11 4 -18 -1 -22 -17 -5 -19 -11 -22 -36 -18
-18 2 -30 10 -30 19 0 9 -6 13 -14 10 -13 -5 -36 10 -36 24 0 4 9 9 20 12 11
3 20 1 20 -5 0 -15 27 -38 46 -38 10 0 14 3 11 7 -4 3 -2 12 4 19 6 8 9 20 6
28 -4 10 0 12 14 9 10 -3 19 -9 19 -13z m217 -25 c8 -9 12 -19 9 -23 -12 -12
-54 -13 -62 -1 -5 9 0 10 15 6 18 -4 21 -2 16 14 -8 23 1 24 22 4z m-280 -61
c-3 -3 -12 -4 -19 -1 -8 3 -5 6 6 6 11 1 17 -2 13 -5z m484 -275 c8 -15 8 -24
0 -32 -8 -8 -11 -8 -11 0 0 6 -9 13 -20 16 -11 3 -20 12 -20 21 0 23 37 20 51
-5z m-65 -10 c3 -6 2 -14 -3 -18 -6 -3 -12 -13 -15 -21 -4 -11 -7 -10 -17 8
-6 12 -9 27 -6 32 8 13 32 13 41 -1z m104 -30 c0 -5 -4 -9 -10 -9 -5 0 -10 7
-10 16 0 8 5 12 10 9 6 -3 10 -10 10 -16z m-23 -56 c-9 -9 -19 -14 -22 -11 -3
3 2 13 11 22 9 9 19 14 22 11 3 -3 -2 -13 -11 -22z m-2586 -120 c-8 -15 -10
-15 -11 -2 0 17 10 32 18 25 2 -3 -1 -13 -7 -23z m-87 -188 c-4 -8 -8 -15 -10
-15 -2 0 -4 7 -4 15 0 8 4 15 10 15 5 0 7 -7 4 -15z m2696 -220 c6 -8 9 -19 5
-25 -3 -5 -1 -26 6 -45 7 -19 9 -38 5 -42 -12 -12 -37 29 -30 50 3 11 -1 23
-11 30 -10 8 -14 19 -9 30 8 21 18 22 34 2z m-20 -125 c0 -5 -7 -10 -16 -10
-8 0 -12 5 -9 10 3 6 10 10 16 10 5 0 9 -4 9 -10z m23 -40 c-3 -11 -10 -23
-16 -27 -6 -3 -7 -1 -3 5 7 12 -5 16 -31 13 -7 -1 -13 6 -13 15 0 9 6 14 13
11 8 -3 20 -1 27 3 20 12 29 3 23 -20z m-58 -41 c11 -17 -1 -21 -15 -4 -8 9
-8 15 -2 15 6 0 14 -5 17 -11z m-31 -37 c3 -5 -1 -9 -9 -9 -8 0 -12 4 -9 9 3
4 7 8 9 8 2 0 6 -4 9 -8z m37 -39 c13 -16 12 -17 -3 -4 -17 13 -22 21 -14 21
2 0 10 -8 17 -17z m-3871 -1103 c0 -5 -5 -9 -12 -7 -6 1 -22 -19 -35 -45 -12
-27 -30 -48 -38 -48 -24 0 -18 19 20 58 19 20 35 40 35 45 0 4 7 7 15 7 8 0
15 -4 15 -10z m-135 -122 c-18 -66 -38 -98 -62 -98 -16 0 -22 -4 -17 -12 5 -8
0 -9 -14 -6 -13 4 -20 2 -16 -4 9 -14 -29 -46 -63 -53 l-28 -6 28 18 c15 10
27 21 27 24 0 10 90 99 100 99 5 0 16 14 25 30 18 35 29 39 20 8z m-141 -96
c-6 -4 -16 -16 -22 -27 -6 -11 -12 -14 -12 -7 0 6 -5 12 -11 12 -5 0 -7 -4 -4
-10 3 -5 -1 -10 -11 -10 -14 0 -14 3 -4 15 7 9 20 13 28 10 12 -4 13 -3 2 10
-11 13 -8 15 16 15 16 0 24 -4 18 -8z"/>
<path d="M5480 4450 c0 -5 5 -10 11 -10 5 0 7 5 4 10 -3 6 -8 10 -11 10 -2 0
-4 -4 -4 -10z"/>
<path d="M3377 3279 c7 -7 15 -10 18 -7 3 3 -2 9 -12 12 -14 6 -15 5 -6 -5z"/>
<path d="M2990 2639 c0 -5 5 -7 10 -4 6 3 10 8 10 11 0 2 -4 4 -10 4 -5 0 -10
-5 -10 -11z"/>
<path d="M2418 1977 c-3 -19 -2 -25 4 -19 6 6 8 18 6 28 -3 14 -5 12 -10 -9z"/>
<path d="M2310 1916 c0 -9 5 -16 10 -16 6 0 10 4 10 9 0 6 -4 13 -10 16 -5 3
-10 -1 -10 -9z"/>
<path d="M2390 1920 c0 -5 5 -10 11 -10 5 0 7 5 4 10 -3 6 -8 10 -11 10 -2 0
-4 -4 -4 -10z"/>
<path d="M2246 1781 c-4 -7 -5 -15 -2 -18 9 -9 19 4 14 18 -4 11 -6 11 -12 0z"/>
<path d="M2830 5300 c0 -5 5 -10 10 -10 6 0 10 5 10 10 0 6 -4 10 -10 10 -5 0
-10 -4 -10 -10z"/>
<path d="M2843 5254 c0 -23 1 -24 9 -10 7 12 7 21 0 28 -6 6 -9 0 -9 -18z"/>
<path d="M2562 5160 c0 -14 2 -19 5 -12 2 6 2 18 0 25 -3 6 -5 1 -5 -13z"/>
<path d="M2789 5079 c-10 -10 -13 -22 -9 -29 6 -9 11 -7 20 9 15 29 9 41 -11
20z"/>
<path d="M2565 4850 c3 -5 8 -10 11 -10 2 0 4 5 4 10 0 6 -5 10 -11 10 -5 0
-7 -4 -4 -10z"/>
<path d="M3243 4836 c-19 -22 -21 -66 -2 -66 7 0 9 10 7 25 -3 13 -1 22 3 19
5 -3 9 4 9 15 0 24 -1 25 -17 7z"/>
<path d="M3710 4830 c0 -5 5 -10 10 -10 6 0 10 5 10 10 0 6 -4 10 -10 10 -5 0
-10 -4 -10 -10z"/>
<path d="M2720 4770 c0 -5 5 -10 10 -10 6 0 10 5 10 10 0 6 -4 10 -10 10 -5 0
-10 -4 -10 -10z"/>
<path d="M3382 4710 c-6 -11 -12 -22 -12 -25 0 -11 20 6 30 26 14 25 -2 25
-18 -1z"/>
<path d="M2248 4670 c-3 -16 -3 -30 -2 -30 9 0 51 50 46 54 -16 17 -40 4 -44
-24z"/>
<path d="M3518 4593 c5 -25 6 -25 18 -8 8 10 14 24 14 29 0 6 -5 4 -10 -4 -6
-10 -10 -11 -10 -2 0 6 -4 12 -9 12 -4 0 -6 -12 -3 -27z"/>
<path d="M2430 4590 c0 -5 -6 -7 -14 -4 -11 4 -13 0 -9 -15 3 -12 10 -21 17
-21 14 0 37 35 29 44 -10 9 -23 7 -23 -4z"/>
<path d="M3660 4516 c0 -9 5 -16 10 -16 6 0 10 4 10 9 0 6 -4 13 -10 16 -5 3
-10 -1 -10 -9z"/>
<path d="M3140 4510 c0 -5 4 -10 9 -10 6 0 13 5 16 10 3 6 -1 10 -9 10 -9 0
-16 -4 -16 -10z"/>
<path d="M2592 4490 c-14 -23 -16 -40 -3 -40 9 0 25 49 19 56 -2 2 -9 -6 -16
-16z"/>
<path d="M3562 4490 c0 -14 2 -19 5 -12 2 6 2 18 0 25 -3 6 -5 1 -5 -13z"/>
<path d="M3794 4417 c3 -10 6 -23 6 -28 0 -5 5 -9 10 -9 14 0 12 13 -6 36 -14
17 -15 17 -10 1z"/>
<path d="M3302 4408 c6 -18 28 -21 28 -4 0 9 -7 16 -16 16 -9 0 -14 -5 -12
-12z"/>
<path d="M2735 4389 c-4 -6 -5 -12 -2 -15 2 -3 7 2 10 11 7 17 1 20 -8 4z"/>
<path d="M2886 4314 c-9 -23 -2 -28 13 -10 7 8 8 17 3 20 -6 3 -13 -1 -16 -10z"/>
<path d="M3455 4320 c-8 -13 4 -32 16 -25 12 8 12 35 0 35 -6 0 -13 -4 -16
-10z"/>
<path d="M2350 4309 c0 -5 5 -7 10 -4 6 3 10 8 10 11 0 2 -4 4 -10 4 -5 0 -10
-5 -10 -11z"/>
<path d="M3445 4270 c-3 -5 -1 -10 4 -10 6 0 11 5 11 10 0 6 -2 10 -4 10 -3 0
-8 -4 -11 -10z"/>
<path d="M1877 4233 c-12 -11 -8 -50 7 -62 11 -9 15 -7 20 13 9 38 -8 69 -27
49z"/>
<path d="M3031 4213 c-18 -20 -6 -29 14 -10 8 9 12 18 8 20 -5 3 -14 -2 -22
-10z"/>
<path d="M3626 4214 c-3 -9 -13 -14 -21 -10 -17 6 -30 -10 -15 -19 5 -3 10
-15 10 -26 0 -18 2 -19 30 -4 16 8 35 15 43 15 24 0 42 29 28 43 -9 9 -16 9
-31 -1 -17 -10 -20 -10 -20 3 0 20 -16 19 -24 -1z"/>
<path d="M2500 4189 c0 -5 5 -7 10 -4 6 3 10 8 10 11 0 2 -4 4 -10 4 -5 0 -10
-5 -10 -11z"/>
<path d="M3170 4115 c-7 -8 -9 -23 -5 -32 6 -16 8 -15 20 7 8 14 14 28 15 33
0 12 -17 8 -30 -8z"/>
<path d="M2660 4090 c-6 -11 -8 -20 -6 -20 3 0 10 9 16 20 6 11 8 20 6 20 -3
0 -10 -9 -16 -20z"/>
<path d="M1760 4030 c0 -5 5 -10 11 -10 5 0 7 5 4 10 -3 6 -8 10 -11 10 -2 0
-4 -4 -4 -10z"/>
<path d="M3530 4015 c0 -8 5 -15 10 -15 6 0 10 7 10 15 0 8 -4 15 -10 15 -5 0
-10 -7 -10 -15z"/>
<path d="M3331 4005 c-8 -14 -14 -16 -17 -7 -3 6 -9 12 -14 12 -4 0 -3 -11 3
-25 15 -30 23 -31 37 -4 15 27 7 49 -9 24z"/>
<path d="M2805 4001 c-3 -5 -1 -12 4 -15 5 -3 11 1 15 9 6 16 -9 21 -19 6z"/>
<path d="M3505 3931 c-3 -12 -10 -21 -15 -21 -4 0 -7 -11 -6 -25 2 -34 8 -32
30 10 14 25 16 39 9 46 -8 8 -13 5 -18 -10z"/>
<path d="M2940 3880 c6 -11 13 -20 15 -20 3 0 5 9 5 20 0 11 -7 20 -15 20 -13
0 -14 -4 -5 -20z"/>
<path d="M3122 3802 c-7 -5 -10 -16 -6 -25 9 -25 22 -20 22 8 0 14 -1 25 -2
25 0 0 -7 -4 -14 -8z"/>
<path d="M2535 3789 c-4 -6 -5 -12 -2 -15 2 -3 7 2 10 11 7 17 1 20 -8 4z"/>
<path d="M1530 3723 c0 -23 8 -48 21 -63 l20 -25 -7 35 c-8 39 -8 49 -3 69 2
8 -4 17 -13 19 -15 3 -18 -4 -18 -35z"/>
<path d="M1983 3728 c-13 -6 -23 -15 -23 -20 0 -10 36 7 45 22 7 12 7 12 -22
-2z"/>
<path d="M776 3709 c-21 -12 -47 -19 -57 -16 -10 3 -18 2 -17 -2 1 -3 -3 -15
-9 -27 -16 -27 -64 -37 -363 -74 -135 -16 -264 -32 -287 -36 -42 -5 -43 -6
-43 -45 l0 -39 38 4 c20 3 91 10 157 16 66 6 147 15 180 20 33 5 94 12 135 15
41 3 86 8 100 11 44 10 84 16 100 14 8 -1 30 -2 48 -2 17 -1 32 -6 32 -11 0
-6 21 -7 53 -2 28 4 121 9 206 11 162 4 171 7 171 52 0 21 -3 22 -97 23 -82 0
-213 14 -177 18 15 1 24 45 13 63 -6 9 -17 10 -47 2 -30 -8 -41 -7 -48 2 -16
22 -48 23 -88 3z"/>
<path d="M3285 3678 c-11 -6 -21 -12 -23 -13 -2 -2 0 -14 3 -27 l6 -25 30 29
c43 43 34 64 -16 36z"/>
<path d="M2120 3615 c-11 -13 -10 -14 4 -9 9 3 16 10 16 15 0 13 -6 11 -20 -6z"/>
<path d="M2825 3581 c3 -5 1 -12 -5 -16 -6 -4 -8 -11 -5 -16 4 -5 13 -3 21 6
15 15 11 35 -7 35 -6 0 -8 -4 -4 -9z"/>
<path d="M3252 3523 c2 -10 8 -18 15 -18 6 0 15 -3 19 -7 13 -13 27 -9 16 5
-6 6 -10 16 -9 21 1 5 -8 11 -21 13 -18 2 -23 -1 -20 -14z"/>
<path d="M3003 3488 c-21 -28 -24 -38 -9 -38 8 0 18 9 21 21 8 25 2 34 -12 17z"/>
<path d="M1831 3428 c-1 -16 4 -28 9 -28 12 0 12 8 0 35 -8 18 -9 17 -9 -7z"/>
<path d="M2406 3415 c-11 -8 -15 -15 -9 -15 6 0 16 7 23 15 16 19 11 19 -14 0z"/>
<path d="M2720 3240 c0 -5 5 -10 11 -10 5 0 7 5 4 10 -3 6 -8 10 -11 10 -2 0
-4 -4 -4 -10z"/>
<path d="M2132 3198 c-15 -15 -16 -38 -2 -38 12 0 23 25 18 40 -2 7 -7 7 -16
-2z"/>
<path d="M2956 3165 c-3 -9 -18 -15 -39 -15 -44 0 -64 -21 -42 -44 15 -14 18
-14 41 0 13 9 24 13 24 9 0 -4 6 -2 13 4 8 6 17 8 21 4 13 -14 24 20 13 39
-14 22 -23 23 -31 3z"/>
<path d="M2117 3134 c-8 -8 31 -54 45 -54 5 0 4 6 -2 13 -6 6 -16 20 -23 30
-7 10 -16 15 -20 11z"/>
<path d="M2290 3096 c-12 -34 -12 -36 0 -36 16 0 33 41 21 53 -7 7 -13 2 -21
-17z"/>
<path d="M1790 3050 c0 -5 5 -10 11 -10 5 0 7 5 4 10 -3 6 -8 10 -11 10 -2 0
-4 -4 -4 -10z"/>
<path d="M2280 3034 c0 -8 5 -12 10 -9 6 4 8 11 5 16 -9 14 -15 11 -15 -7z"/>
<path d="M2168 3014 c-5 -4 -8 -20 -8 -34 0 -15 -7 -33 -15 -40 -8 -7 -13 -16
-10 -20 3 -5 -4 -12 -16 -15 -17 -6 -19 -9 -8 -16 23 -14 39 -10 39 10 0 10 7
35 16 56 15 36 16 74 2 59z"/>
<path d="M2462 3000 c-7 -11 -8 -20 -3 -20 9 0 24 30 18 36 -1 2 -8 -6 -15
-16z"/>
<path d="M1750 2956 c0 -2 7 -7 16 -10 8 -3 12 -2 9 4 -6 10 -25 14 -25 6z"/>
<path d="M2611 2932 c-22 -41 -10 -54 25 -28 18 14 18 16 2 32 -15 15 -17 15
-27 -4z"/>
<path d="M960 2905 c0 -16 4 -36 9 -43 16 -26 21 16 6 45 l-15 28 0 -30z"/>
<path d="M2787 2836 c-11 -8 -14 -17 -8 -20 5 -4 15 3 21 14 13 23 11 24 -13
6z"/>
<path d="M1140 2785 c-7 -9 -10 -18 -7 -21 3 -3 10 4 17 15 13 25 8 27 -10 6z"/>
<path d="M1292 2728 c-13 -13 -16 -38 -6 -38 8 0 33 32 34 43 0 11 -15 8 -28
-5z"/>
<path d="M2694 2684 c3 -8 6 -18 6 -20 0 -3 5 -2 10 1 15 9 12 22 -6 29 -12 5
-15 2 -10 -10z"/>
<path d="M1451 2641 c-8 -5 -9 -11 -3 -15 5 -3 15 1 22 9 14 16 3 20 -19 6z"/>
<path d="M2570 2597 c0 -27 13 -36 26 -16 3 6 -1 18 -10 27 -15 15 -16 14 -16
-11z"/>
<path d="M3970 2560 c0 -5 5 -10 10 -10 6 0 10 5 10 10 0 6 -4 10 -10 10 -5 0
-10 -4 -10 -10z"/>
<path d="M2490 2541 c0 -5 7 -17 16 -25 20 -21 41 -21 24 -1 -7 8 -9 15 -4 15
11 0 -18 20 -28 20 -5 0 -8 -4 -8 -9z"/>
<path d="M1749 2522 c6 -11 11 -34 11 -50 0 -17 6 -32 15 -36 8 -3 15 0 15 7
0 7 3 22 6 33 4 16 -2 27 -26 44 -31 22 -32 22 -21 2z"/>
<path d="M2333 2517 c9 -8 17 -18 17 -24 0 -37 73 -30 83 8 4 15 0 19 -23 19
-15 0 -43 3 -61 6 -31 5 -32 4 -16 -9z"/>
<path d="M1160 2469 c0 -5 5 -7 10 -4 6 3 10 8 10 11 0 2 -4 4 -10 4 -5 0 -10
-5 -10 -11z"/>
<path d="M543 2429 c-17 -46 -16 -54 3 -35 8 9 14 28 12 43 -3 26 -3 26 -15
-8z"/>
<path d="M3984 2418 c5 -34 10 -41 31 -44 8 -1 15 5 15 15 0 9 5 22 12 29 15
15 8 22 -31 27 -31 3 -32 2 -27 -27z"/>
<path d="M4193 2405 c29 -26 47 -32 47 -16 0 5 -11 12 -25 15 -14 4 -25 11
-25 16 0 6 -6 10 -12 10 -7 0 0 -12 15 -25z"/>
<path d="M1936 2399 c-9 -12 -16 -23 -13 -25 2 -2 12 5 22 16 10 11 16 22 14
25 -3 2 -13 -5 -23 -16z"/>
<path d="M3710 2409 c0 -5 5 -7 10 -4 6 3 10 8 10 11 0 2 -4 4 -10 4 -5 0 -10
-5 -10 -11z"/>
<path d="M3823 2400 c-10 -11 -22 -20 -29 -20 -6 0 -11 -7 -11 -15 0 -10 9
-14 29 -11 33 3 33 3 42 39 8 32 -7 36 -31 7z"/>
<path d="M4176 2355 c18 -28 24 -31 24 -12 0 7 -9 18 -20 25 -20 12 -21 12 -4
-13z"/>
<path d="M687 2348 c-7 -25 0 -41 14 -33 12 8 12 55 0 55 -5 0 -11 -10 -14
-22z"/>
<path d="M2100 2326 c-8 -11 -9 -20 -1 -33 9 -16 11 -15 20 10 6 16 11 30 11
33 0 9 -18 3 -30 -10z"/>
<path d="M3631 2307 c-15 -38 -15 -37 14 -37 28 0 30 5 10 40 l-13 25 -11 -28z"/>
<path d="M3327 2305 c-4 -8 -2 -17 3 -20 6 -4 10 3 10 14 0 25 -6 27 -13 6z"/>
<path d="M4340 2299 c0 -10 4 -19 8 -19 13 0 48 29 37 30 -5 1 -18 3 -27 5
-12 2 -18 -3 -18 -16z"/>
<path d="M2290 2288 c0 -6 -8 -21 -17 -32 -16 -17 -14 -17 15 3 18 12 30 27
27 32 -9 13 -25 11 -25 -3z"/>
<path d="M4505 2280 c-8 -13 5 -13 25 0 13 8 13 10 -2 10 -9 0 -20 -4 -23 -10z"/>
<path d="M853 2248 c-5 -7 -7 -24 -3 -38 l6 -25 12 22 c22 40 9 72 -15 41z"/>
<path d="M3700 2245 c0 -2 18 -14 40 -25 22 -11 40 -17 40 -12 0 5 -16 16 -35
25 -38 18 -45 20 -45 12z"/>
<path d="M4580 2236 c0 -2 7 -9 15 -16 12 -10 15 -10 15 4 0 9 -7 16 -15 16
-8 0 -15 -2 -15 -4z"/>
<path d="M3941 2185 c-1 -16 -3 -17 -10 -6 -7 11 -11 10 -20 -7 -9 -17 -8 -22
10 -27 27 -9 31 -3 26 32 -2 17 -5 20 -6 8z"/>
<path d="M1046 2183 c-9 -9 -7 -33 3 -33 12 0 22 28 12 34 -5 3 -11 3 -15 -1z"/>
<path d="M1250 2180 c0 -5 5 -10 10 -10 6 0 10 5 10 10 0 6 -4 10 -10 10 -5 0
-10 -4 -10 -10z"/>
<path d="M4467 2168 c-7 -24 12 -43 27 -28 5 5 2 17 -7 30 l-14 21 -6 -23z"/>
<path d="M3521 2161 c-6 -10 -7 -21 -4 -25 9 -8 33 14 33 30 0 20 -18 17 -29
-5z"/>
<path d="M3811 2166 c-7 -8 -10 -20 -6 -26 3 -5 1 -10 -4 -10 -6 0 -11 -7 -11
-15 0 -24 26 -17 38 11 16 33 2 63 -17 40z"/>
<path d="M3280 2166 c0 -2 7 -7 16 -10 8 -3 12 -2 9 4 -6 10 -25 14 -25 6z"/>
<path d="M3585 2150 c3 -5 8 -10 11 -10 2 0 4 5 4 10 0 6 -5 10 -11 10 -5 0
-7 -4 -4 -10z"/>
<path d="M4110 2156 c0 -2 7 -9 15 -16 13 -11 14 -10 9 4 -5 14 -24 23 -24 12z"/>
<path d="M4427 2143 c-4 -3 -7 -11 -7 -17 0 -6 5 -5 12 2 6 6 9 14 7 17 -3 3
-9 2 -12 -2z"/>
<path d="M4621 2134 c0 -11 3 -14 6 -6 3 7 2 16 -1 19 -3 4 -6 -2 -5 -13z"/>
<path d="M1207 2103 c-4 -3 -7 -15 -7 -25 0 -11 -4 -16 -10 -13 -12 7 -12 3
-4 -19 9 -22 24 -20 24 3 0 11 5 23 10 26 6 3 10 13 10 21 0 15 -12 19 -23 7z"/>
<path d="M3919 2060 c13 -11 31 -20 41 -20 10 0 23 -7 30 -15 13 -16 38 -19
64 -9 16 6 23 26 9 22 -17 -4 -83 13 -83 22 0 5 -6 7 -13 4 -8 -3 -27 0 -43 6
l-29 10 24 -20z"/>
<path d="M4186 2051 c-16 -17 -16 -19 4 -24 16 -4 20 0 20 19 0 29 -2 29 -24
5z"/>
<path d="M1371 2008 c-1 -10 -5 -18 -10 -18 -5 0 -12 -8 -15 -17 -6 -15 -3
-14 15 3 12 12 19 28 16 35 -4 10 -6 9 -6 -3z"/>
<path d="M4485 1990 c3 -5 8 -10 11 -10 2 0 4 5 4 10 0 6 -5 10 -11 10 -5 0
-7 -4 -4 -10z"/>
<path d="M143 1978 c1 -7 -5 -14 -13 -14 -32 -3 -35 -5 -21 -13 20 -13 51 -1
51 20 0 11 -4 19 -10 19 -5 0 -9 -6 -7 -12z"/>
<path d="M4280 1956 c0 -2 7 -6 15 -10 8 -3 15 -1 15 4 0 6 -7 10 -15 10 -8 0
-15 -2 -15 -4z"/>
<path d="M1524 1925 c-9 -13 -20 -22 -25 -19 -5 3 -9 1 -9 -5 0 -21 16 -18 43
9 17 16 24 31 18 34 -6 4 -18 -5 -27 -19z"/>
<path d="M2035 1920 c-3 -5 -4 -10 -1 -10 2 0 12 -3 20 -6 12 -5 15 -2 10 10
-7 18 -20 21 -29 6z"/>
<path d="M3810 1911 c0 -6 5 -13 10 -16 6 -3 10 1 10 9 0 9 -4 16 -10 16 -5 0
-10 -4 -10 -9z"/>
<path d="M306 1865 c-3 -8 -1 -15 4 -15 6 0 10 7 10 15 0 8 -2 15 -4 15 -2 0
-6 -7 -10 -15z"/>
<path d="M1703 1850 c1 -20 8 -25 20 -14 7 8 -3 34 -13 34 -5 0 -8 -9 -7 -20z"/>
<path d="M4471 1854 c0 -11 3 -14 6 -6 3 7 2 16 -1 19 -3 4 -6 -2 -5 -13z"/>
<path d="M3996 1828 c3 -5 10 -6 15 -3 13 9 11 12 -6 12 -8 0 -12 -4 -9 -9z"/>
<path d="M4460 1819 c0 -5 5 -7 10 -4 6 3 10 8 10 11 0 2 -4 4 -10 4 -5 0 -10
-5 -10 -11z"/>
<path d="M1890 1820 c-7 -18 -5 -49 3 -41 5 5 7 17 4 27 -3 11 -6 17 -7 14z"/>
<path d="M3286 1805 c-3 -9 0 -15 9 -15 16 0 20 16 6 24 -5 3 -11 -1 -15 -9z"/>
<path d="M1667 1803 c-10 -9 -9 -23 2 -23 5 0 11 7 15 15 5 15 -5 20 -17 8z"/>
<path d="M3049 1778 c-1 -7 -1 -16 0 -20 0 -5 -3 -9 -9 -9 -5 -1 -16 -2 -22
-3 -7 -1 -19 3 -27 8 -11 8 -13 8 -8 -1 4 -6 2 -13 -4 -15 -6 -2 7 -12 28 -22
21 -10 35 -15 31 -10 -4 4 -3 13 3 20 11 13 23 64 14 64 -3 0 -6 -6 -6 -12z"/>
<path d="M2874 1748 c-4 -6 -3 -8 3 -5 5 3 21 0 36 -8 23 -12 29 -12 42 1 19
19 19 21 0 21 -8 0 -12 -4 -9 -9 7 -11 -9 -10 -40 2 -17 6 -27 6 -32 -2z"/>
<path d="M5345 1751 c-6 -5 -18 -11 -29 -13 -14 -2 -12 -5 11 -14 27 -10 29
-9 29 13 0 12 0 23 -1 23 -1 0 -5 -4 -10 -9z"/>
<path d="M3550 1720 c0 -19 3 -21 12 -12 9 9 9 15 0 24 -9 9 -12 7 -12 -12z"/>
<path d="M3773 1715 c-10 -11 -9 -13 6 -12 11 1 17 7 14 14 -6 16 -5 16 -20
-2z"/>
<path d="M5300 1710 c-9 -6 -10 -10 -3 -10 6 0 15 5 18 10 8 12 4 12 -15 0z"/>
<path d="M2270 1690 c0 -5 5 -10 11 -10 5 0 7 5 4 10 -3 6 -8 10 -11 10 -2 0
-4 -4 -4 -10z"/>
<path d="M4105 1670 c3 -5 11 -10 16 -10 6 0 7 5 4 10 -3 6 -11 10 -16 10 -6
0 -7 -4 -4 -10z"/>
<path d="M3172 1651 c-8 -5 -2 -15 19 -30 16 -12 35 -33 41 -46 6 -13 19 -25
28 -28 10 -3 28 -23 39 -45 12 -23 27 -45 35 -49 22 -12 68 -123 70 -168 0
-22 4 -44 7 -50 10 -16 1 -192 -11 -214 -5 -11 -10 -32 -10 -48 0 -20 -11 -39
-35 -62 -19 -18 -35 -42 -35 -55 0 -12 -13 -37 -29 -56 -15 -19 -31 -45 -35
-57 -4 -12 -21 -34 -39 -48 -18 -14 -45 -38 -62 -54 -16 -16 -40 -32 -52 -36
-12 -3 -25 -14 -28 -25 -15 -48 -121 -73 -380 -91 -17 -1 -16 -2 5 -9 31 -9
261 -2 315 10 22 5 51 11 65 14 14 3 40 19 58 36 18 16 39 30 47 30 7 0 32 15
54 34 23 19 50 38 61 41 11 4 20 9 20 13 0 4 23 30 50 59 28 29 50 58 50 65 0
7 11 22 25 32 13 10 22 23 18 29 -4 7 5 8 28 3 65 -14 145 -18 129 -7 -8 5
-18 7 -22 5 -5 -3 -42 2 -82 12 l-73 18 9 32 c5 18 8 36 7 41 -3 20 2 34 11
28 6 -3 10 3 10 15 0 12 7 28 16 37 8 9 13 22 10 30 -3 8 -6 48 -6 89 0 44 -4
73 -9 69 -5 -3 -9 8 -9 25 1 16 5 30 10 30 4 0 8 18 8 40 0 33 -3 40 -20 40
-11 0 -26 12 -35 29 -8 17 -23 36 -33 43 -10 7 -31 30 -46 51 -16 20 -35 37
-42 37 -8 0 -14 4 -14 8 0 4 -14 23 -31 42 -17 19 -27 28 -24 20 4 -8 -1 -6
-9 4 -9 11 -16 25 -16 30 -1 17 -45 45 -58 37z m288 -327 c0 -8 -19 -13 -24
-6 -3 5 1 9 9 9 8 0 15 -2 15 -3z"/>
<path d="M2203 1603 c-7 -3 -13 -12 -13 -21 0 -15 2 -15 17 1 18 18 16 27 -4
20z"/>
<path d="M3396 1570 c9 -16 17 -30 18 -30 7 0 2 37 -7 48 -18 23 -25 12 -11
-18z"/>
<path d="M2850 1569 c0 -5 5 -7 10 -4 6 3 10 8 10 11 0 2 -4 4 -10 4 -5 0 -10
-5 -10 -11z"/>
<path d="M916 1536 c-25 -39 -19 -52 10 -21 15 17 22 31 16 37 -5 5 -15 -1
-26 -16z"/>
<path d="M1567 1540 c-3 -12 0 -20 8 -20 7 0 15 9 18 20 3 12 0 20 -8 20 -7 0
-15 -9 -18 -20z"/>
<path d="M2150 1480 c0 -5 5 -10 11 -10 5 0 7 5 4 10 -3 6 -8 10 -11 10 -2 0
-4 -4 -4 -10z"/>
<path d="M1110 1462 c0 -5 -11 -21 -25 -35 -16 -15 -22 -28 -15 -32 11 -7 31
10 48 42 8 14 9 24 2 28 -5 3 -10 2 -10 -3z"/>
<path d="M3413 1455 c-9 -25 4 -29 17 -6 7 15 7 21 0 21 -6 0 -13 -7 -17 -15z"/>
<path d="M3896 1461 c-4 -7 -5 -15 -2 -18 9 -9 19 4 14 18 -4 11 -6 11 -12 0z"/>
<path d="M1257 1363 c-6 -32 -3 -38 12 -28 13 8 15 55 2 55 -5 0 -11 -12 -14
-27z"/>
<path d="M2320 1361 c0 -5 5 -13 10 -16 6 -3 10 -2 10 4 0 5 -4 13 -10 16 -5
3 -10 2 -10 -4z"/>
<path d="M2640 1291 c0 -5 7 -11 15 -15 8 -3 15 -1 15 3 0 5 -7 11 -15 15 -8
3 -15 1 -15 -3z"/>
<path d="M3631 1261 c-1 -32 2 -42 10 -34 7 7 7 21 1 44 l-10 34 -1 -44z"/>
<path d="M1832 1215 c4 -4 3 -14 -4 -22 -6 -7 -8 -16 -5 -19 3 -3 10 3 16 15
8 15 8 22 -1 27 -7 4 -10 4 -6 -1z"/>
<path d="M2965 1210 c-3 -5 1 -10 10 -10 9 0 13 5 10 10 -3 6 -8 10 -10 10 -2
0 -7 -4 -10 -10z"/>
<path d="M1516 1153 c-6 -14 -5 -15 5 -6 7 7 10 15 7 18 -3 3 -9 -2 -12 -12z"/>
<path d="M2528 1143 c7 -3 16 -2 19 1 4 3 -2 6 -13 5 -11 0 -14 -3 -6 -6z"/>
<path d="M3995 1110 c3 -5 8 -10 11 -10 2 0 4 5 4 10 0 6 -5 10 -11 10 -5 0
-7 -4 -4 -10z"/>
<path d="M2760 1091 c0 -12 6 -21 15 -21 8 0 15 3 15 6 0 3 -7 12 -15 20 -13
14 -15 13 -15 -5z"/>
<path d="M2530 995 c0 -8 2 -15 4 -15 2 0 6 7 10 15 3 8 1 15 -4 15 -6 0 -10
-7 -10 -15z"/>
<path d="M2840 920 c-15 -28 -8 -35 20 -20 13 7 19 15 14 19 -5 3 -12 10 -16
14 -3 5 -12 -1 -18 -13z"/>
<path d="M3146 873 c-12 -12 -6 -33 9 -33 8 0 15 6 15 14 0 17 -14 28 -24 19z"/>
<path d="M2260 860 c0 -5 7 -10 15 -10 8 0 15 5 15 10 0 6 -7 10 -15 10 -8 0
-15 -4 -15 -10z"/>
<path d="M3680 830 c-33 -7 -32 -7 17 -9 28 0 55 4 58 9 7 11 -22 11 -75 0z"/>
<path d="M2426 745 c-11 -8 -17 -17 -14 -20 2 -3 13 4 23 15 21 23 18 25 -9 5z"/>
<path d="M4505 750 c-4 -6 3 -10 14 -10 25 0 27 6 6 13 -8 4 -17 2 -20 -3z"/>
<path d="M2990 725 c0 -8 5 -15 10 -15 6 0 10 7 10 15 0 8 -4 15 -10 15 -5 0
-10 -7 -10 -15z"/>
<path d="M870 680 c0 -6 7 -10 15 -10 8 0 15 2 15 4 0 2 -7 6 -15 10 -8 3 -15
1 -15 -4z"/>
<path d="M2800 680 c0 -5 5 -10 11 -10 5 0 7 5 4 10 -3 6 -8 10 -11 10 -2 0
-4 -4 -4 -10z"/>
<path d="M960 670 c-12 -8 -10 -10 8 -10 13 0 20 4 17 10 -7 12 -6 12 -25 0z"/>
<path d="M2580 670 c0 -5 5 -10 10 -10 6 0 10 5 10 10 0 6 -4 10 -10 10 -5 0
-10 -4 -10 -10z"/>
<path d="M2630 490 c-12 -8 -11 -10 7 -10 12 0 25 5 28 10 8 13 -15 13 -35 0z"/>
</g>
</svg>
