<?xml version="1.0" standalone="no"?>
<!DOCTYPE svg PUBLIC "-//W3C//DTD SVG 20010904//EN"
 "http://www.w3.org/TR/2001/REC-SVG-20010904/DTD/svg10.dtd">
<svg version="1.0" xmlns="http://www.w3.org/2000/svg"
 width="660.000000pt" height="440.000000pt" viewBox="0 0 660.000000 440.000000"
 preserveAspectRatio="xMidYMid meet">

<g transform="translate(0.000000,440.000000) scale(0.100000,-0.100000)"
fill="#000000" stroke="none">
<path d="M4030 4350 c0 -5 5 -10 10 -10 6 0 10 5 10 10 0 6 -4 10 -10 10 -5 0
-10 -4 -10 -10z"/>
<path d="M4120 4291 c0 -5 -12 -12 -26 -15 -15 -4 -24 -9 -22 -12 3 -2 22 2
43 9 29 10 34 15 22 20 -9 3 -17 3 -17 -2z"/>
<path d="M671 3614 c0 -11 3 -14 6 -6 3 7 2 16 -1 19 -3 4 -6 -2 -5 -13z"/>
<path d="M6295 3278 c-159 -16 -291 -31 -293 -33 -9 -8 -25 -1126 -16 -1134 5
-5 114 -12 242 -16 200 -6 232 -5 232 7 0 18 -94 28 -254 28 -56 0 -125 3
-155 7 l-54 6 7 351 c10 523 17 710 24 718 4 4 115 16 247 28 337 30 325 28
325 51 0 10 -3 18 -7 18 -5 -1 -138 -15 -298 -31z"/>
<path d="M3010 3221 c0 -5 5 -11 12 -13 7 -3 5 -13 -7 -31 -9 -15 -15 -36 -12
-46 2 -10 1 -25 -4 -32 -6 -10 -9 -5 -9 15 0 32 -12 28 -17 -6 -2 -12 2 -26 9
-31 10 -7 10 -10 1 -14 -18 -7 -16 -16 7 -42 10 -13 22 -44 25 -69 9 -62 36
-152 47 -152 13 0 9 34 -13 105 -29 96 -21 131 48 200 56 56 78 64 115 44 15
-8 22 -8 28 1 5 7 17 -15 30 -56 26 -80 59 -148 67 -140 3 3 -5 37 -18 76 -19
58 -21 73 -10 80 11 6 9 9 -6 14 -10 3 -25 22 -32 41 -9 27 -18 35 -36 35 -14
0 -56 5 -95 12 -60 10 -73 10 -80 -2 -8 -12 -10 -12 -16 3 -6 18 -34 24 -34 8z"/>
<path d="M6375 3220 c-8 -12 20 -24 35 -15 6 3 8 11 5 16 -8 12 -32 12 -40 -1z"/>
<path d="M830 3149 c-96 -4 -80 -5 98 -7 117 -1 212 2 212 7 0 9 -122 9 -310
0z"/>
<path d="M426 3123 c-15 -15 -3 -23 36 -23 51 0 42 -12 -15 -19 -28 -4 -42
-11 -42 -21 0 -12 16 -16 74 -18 95 -4 110 1 86 28 -18 20 -17 20 48 20 76 0
94 19 20 21 -72 1 -155 8 -179 13 -12 3 -24 3 -28 -1z"/>
<path d="M1247 3122 l-248 -2 3 -73 3 -72 70 -5 70 -5 8 -90 c4 -49 10 -117
13 -150 l5 -60 52 1 c57 1 114 -13 67 -16 -23 -2 -79 -6 -107 -9 -22 -2 -14
-16 17 -34 17 -10 30 -27 30 -38 0 -13 7 -19 24 -19 17 0 26 -7 30 -25 4 -14
11 -25 16 -25 6 0 10 -8 10 -19 0 -15 -11 -19 -62 -25 -34 -3 -62 -7 -63 -9 0
-1 2 -36 5 -77 l5 -75 47 -3 47 -3 3 -77 c3 -71 5 -77 26 -80 14 -2 22 -10 22
-22 0 -15 -11 -20 -65 -25 l-65 -7 0 -39 c0 -32 3 -39 20 -39 17 0 20 -7 20
-40 0 -39 1 -40 35 -40 l35 0 0 -60 c0 -47 4 -64 20 -80 34 -34 25 -47 -45
-60 -66 -13 -71 -15 -56 -38 6 -10 32 -11 115 -6 l108 7 -6 91 c-14 214 -48
938 -44 942 3 2 29 1 59 -3 l54 -8 6 -105 c4 -58 15 -280 25 -495 18 -398 20
-415 58 -415 12 0 16 11 16 49 0 42 3 51 21 56 17 6 20 13 16 45 -4 34 -1 39
19 44 22 6 24 12 24 61 l0 55 -34 0 c-18 0 -48 3 -65 6 -27 6 -31 10 -31 40 0
19 5 34 11 34 5 0 7 -4 4 -10 -3 -5 -1 -10 4 -10 6 0 11 5 11 11 0 6 7 9 15 5
10 -4 17 6 25 35 6 22 8 44 5 49 -3 5 -1 11 5 15 5 3 10 18 10 32 0 14 6 31
13 37 8 8 11 38 9 104 l-3 92 -64 0 c-35 0 -67 5 -70 10 -9 15 4 68 22 85 8 8
25 15 39 15 20 0 24 5 24 33 0 24 3 28 10 17 8 -12 10 -10 10 11 0 14 4 29 8
35 5 5 5 68 1 139 -4 72 -8 171 -9 221 -2 51 -5 96 -9 102 -9 13 -119 17 -404
14z"/>
<path d="M954 3083 c3 -21 6 -49 6 -63 0 -20 2 -22 10 -10 16 24 10 110 -8
110 -11 0 -13 -8 -8 -37z"/>
<path d="M5770 3013 c0 -32 4 -43 15 -43 12 0 14 7 9 28 -13 52 -23 59 -24 15z"/>
<path d="M404 3008 c3 -13 8 -80 12 -150 l6 -128 95 0 95 0 -7 118 c-4 64 -8
122 -9 127 0 6 12 11 27 13 20 3 27 8 25 20 -3 15 -20 17 -126 20 l-123 3 5
-23z"/>
<path d="M680 3011 c0 -21 55 -31 174 -31 58 0 67 2 62 16 -3 9 -6 20 -6 25 0
5 -52 9 -115 9 -105 0 -115 -2 -115 -19z"/>
<path d="M5810 3000 c0 -23 13 -26 29 -6 9 11 8 15 -5 20 -23 9 -24 8 -24 -14z"/>
<path d="M1950 2943 c-15 -19 -17 -28 -9 -34 7 -4 19 -1 26 7 8 8 26 17 41 21
15 3 30 11 34 17 5 7 8 5 8 -5 0 -9 11 -21 24 -27 37 -17 73 -72 86 -134 7
-32 17 -55 22 -52 17 11 8 99 -16 149 -31 67 -60 85 -135 85 -53 0 -62 -3 -81
-27z"/>
<path d="M3252 2923 c-6 -2 -10 -9 -6 -14 8 -14 21 -11 28 6 6 15 1 17 -22 8z"/>
<path d="M874 2869 c-27 -10 -54 -47 -54 -74 0 -18 2 -17 13 5 14 27 86 67 96
53 3 -5 23 -20 45 -33 43 -26 96 -102 96 -136 0 -29 16 -39 35 -24 8 7 22 9
31 6 15 -6 16 1 11 53 -5 64 -16 85 -62 123 -25 21 -44 26 -110 30 -44 3 -90
2 -101 -3z"/>
<path d="M1915 2871 c-3 -5 -1 -12 4 -15 12 -8 41 3 41 15 0 12 -37 12 -45 0z"/>
<path d="M2262 2818 c2 -41 7 -54 21 -56 14 -3 17 5 17 52 0 50 -2 56 -21 56
-18 0 -20 -5 -17 -52z"/>
<path d="M2386 2835 c-3 -9 0 -15 9 -15 8 0 15 7 15 15 0 8 -4 15 -9 15 -5 0
-11 -7 -15 -15z"/>
<path d="M3115 2828 l-20 -20 25 4 c14 2 26 11 28 21 4 22 -8 21 -33 -5z"/>
<path d="M3381 2828 c0 -15 -5 -30 -11 -33 -5 -3 -10 -16 -10 -28 0 -19 2 -18
16 8 8 16 13 41 11 55 l-4 25 -2 -27z"/>
<path d="M1925 2810 c-19 -8 -19 -9 2 -9 12 -1 25 4 28 9 7 12 -2 12 -30 0z"/>
<path d="M1988 2813 c7 -3 16 -2 19 1 4 3 -2 6 -13 5 -11 0 -14 -3 -6 -6z"/>
<path d="M3166 2781 c-4 -5 -5 -30 -4 -55 1 -41 4 -46 25 -46 23 0 24 3 21 52
-2 40 -7 54 -20 56 -9 2 -19 -1 -22 -7z"/>
<path d="M2100 2760 c0 -5 5 -10 10 -10 6 0 10 5 10 10 0 6 -4 10 -10 10 -5 0
-10 -4 -10 -10z"/>
<path d="M3540 2740 c0 -5 9 -10 20 -10 11 0 20 5 20 10 0 6 -9 10 -20 10 -11
0 -20 -4 -20 -10z"/>
<path d="M826 2687 l-29 -42 33 31 c18 18 31 36 29 42 -2 6 -17 -8 -33 -31z"/>
<path d="M1910 2700 c0 -11 2 -20 4 -20 2 0 6 9 9 20 3 11 1 20 -4 20 -5 0 -9
-9 -9 -20z"/>
<path d="M3472 2695 c0 -16 2 -22 5 -12 2 9 2 23 0 30 -3 6 -5 -1 -5 -18z"/>
<path d="M516 2702 l-88 -3 6 -112 c4 -62 9 -128 12 -147 l5 -35 94 3 c103 4
132 22 35 22 -53 0 -60 2 -60 19 0 16 10 21 55 26 35 5 55 12 55 20 0 26 -12
44 -26 38 -8 -3 -14 0 -14 5 0 6 8 12 17 14 14 2 16 14 14 73 -1 39 -5 72 -9
75 -4 3 -47 4 -96 2z m24 -126 c0 -2 -7 -6 -15 -10 -8 -3 -15 -1 -15 4 0 6 7
10 15 10 8 0 15 -2 15 -4z m40 -46 c0 -11 -2 -20 -4 -20 -2 0 -6 9 -9 20 -3
11 -1 20 4 20 5 0 9 -9 9 -20z"/>
<path d="M950 2700 c20 -13 53 -13 45 0 -3 6 -18 10 -33 10 -21 0 -24 -2 -12
-10z"/>
<path d="M2380 2690 c0 -5 7 -10 15 -10 8 0 15 5 15 10 0 6 -7 10 -15 10 -8 0
-15 -4 -15 -10z"/>
<path d="M2440 2690 c0 -5 7 -10 15 -10 8 0 15 5 15 10 0 6 -7 10 -15 10 -8 0
-15 -4 -15 -10z"/>
<path d="M4618 2689 c-14 -7 -18 -22 -17 -57 1 -28 4 -36 6 -20 3 18 9 25 19
21 8 -3 14 0 14 7 0 9 21 11 75 8 41 -3 75 -1 75 3 0 4 -13 17 -29 28 -32 23
-112 28 -143 10z"/>
<path d="M3095 2680 c3 -5 8 -10 11 -10 2 0 4 5 4 10 0 6 -5 10 -11 10 -5 0
-7 -4 -4 -10z"/>
<path d="M2163 2662 c-31 -5 -29 -22 2 -22 22 0 25 -4 25 -35 0 -24 5 -35 15
-35 10 0 15 -10 15 -30 0 -26 4 -30 28 -30 36 0 40 5 34 35 -3 18 -10 24 -26
22 -18 -2 -22 4 -26 48 -5 53 -10 56 -67 47z"/>
<path d="M2703 2633 c3 -52 27 -56 27 -4 0 29 -4 41 -14 41 -10 0 -14 -11 -13
-37z"/>
<path d="M4560 2655 c-7 -9 -11 -17 -9 -20 3 -2 10 5 17 15 14 24 10 26 -8 5z"/>
<path d="M1443 2598 c4 -35 10 -138 13 -230 6 -145 9 -168 23 -168 43 1 44 9
37 191 -4 96 -10 195 -13 222 -5 44 -7 47 -36 47 l-30 0 6 -62z"/>
<path d="M3170 2605 c0 -52 1 -55 26 -55 25 0 26 1 20 53 -3 28 -5 53 -6 55 0
1 -9 2 -20 2 -18 0 -20 -7 -20 -55z"/>
<path d="M3540 2650 c-19 -12 -7 -22 21 -18 19 2 20 5 8 15 -9 7 -20 9 -29 3z"/>
<path d="M2330 2640 c0 -5 5 -10 10 -10 6 0 10 5 10 10 0 6 -4 10 -10 10 -5 0
-10 -4 -10 -10z"/>
<path d="M2380 2640 c0 -5 7 -10 16 -10 8 0 12 5 9 10 -3 6 -10 10 -16 10 -5
0 -9 -4 -9 -10z"/>
<path d="M2440 2640 c0 -5 7 -10 16 -10 8 0 12 5 9 10 -3 6 -10 10 -16 10 -5
0 -9 -4 -9 -10z"/>
<path d="M3600 2640 c0 -5 11 -10 25 -10 14 0 25 5 25 10 0 6 -11 10 -25 10
-14 0 -25 -4 -25 -10z"/>
<path d="M807 2610 c-19 -16 -42 -30 -51 -30 -20 0 -21 -27 0 -47 8 -9 13 -22
10 -29 -3 -7 0 -16 6 -20 7 -5 9 8 3 42 -8 57 0 56 14 -2 l10 -39 0 45 c-1 61
1 68 11 45 5 -11 9 -36 9 -57 1 -28 5 -36 18 -34 14 2 17 11 14 42 -8 76 -7
89 8 86 12 -3 12 0 1 12 -16 20 -14 21 -53 -14z"/>
<path d="M3233 2625 c0 -8 4 -15 9 -15 4 0 8 4 8 9 0 6 -4 12 -8 15 -5 3 -9
-1 -9 -9z"/>
<path d="M2640 2621 c0 -5 5 -13 10 -16 6 -3 10 -2 10 4 0 5 -4 13 -10 16 -5
3 -10 2 -10 -4z"/>
<path d="M3273 2595 c0 -22 2 -30 4 -17 2 12 2 30 0 40 -3 9 -5 -1 -4 -23z"/>
<path d="M3331 2614 c0 -11 3 -14 6 -6 3 7 2 16 -1 19 -3 4 -6 -2 -5 -13z"/>
<path d="M3348 2600 c-3 -16 -1 -30 4 -30 4 0 8 -7 8 -15 0 -8 5 -15 10 -15
12 0 13 15 4 59 -8 39 -20 40 -26 1z"/>
<path d="M3471 2604 c0 -11 3 -14 6 -6 3 7 2 16 -1 19 -3 4 -6 -2 -5 -13z"/>
<path d="M3430 2590 c0 -11 4 -20 9 -20 5 0 7 9 4 20 -3 11 -7 20 -9 20 -2 0
-4 -9 -4 -20z"/>
<path d="M4532 2590 c0 -14 2 -19 5 -12 2 6 2 18 0 25 -3 6 -5 1 -5 -13z"/>
<path d="M4729 2589 c-6 -3 -14 -23 -19 -43 -9 -43 -2 -49 52 -44 29 3 33 7
36 36 2 18 -2 39 -8 47 -11 14 -42 16 -61 4z m24 -29 c-3 -11 -9 -20 -14 -20
-10 0 -12 24 -2 33 13 13 21 7 16 -13z m21 -25 c-4 -8 -8 -15 -10 -15 -2 0 -4
7 -4 15 0 8 4 15 10 15 5 0 7 -7 4 -15z"/>
<path d="M948 2580 c-2 -6 -2 -29 0 -51 3 -30 8 -39 22 -39 16 0 18 6 13 38
-6 40 -28 73 -35 52z"/>
<path d="M2660 2580 c-13 -8 -12 -10 3 -10 9 0 17 5 17 10 0 12 -1 12 -20 0z"/>
<path d="M884 2558 c3 -13 6 -33 6 -45 0 -16 6 -23 19 -23 13 0 18 6 16 18
-13 63 -17 72 -31 72 -12 0 -15 -6 -10 -22z"/>
<path d="M3470 2560 c0 -11 5 -20 11 -20 6 0 9 6 6 14 -3 8 -1 17 6 20 7 2 4
5 -5 5 -12 1 -18 -6 -18 -19z"/>
<path d="M4603 2545 c0 -22 2 -30 4 -17 2 12 2 30 0 40 -3 9 -5 -1 -4 -23z"/>
<path d="M2660 2549 c0 -5 5 -7 10 -4 6 3 10 8 10 11 0 2 -4 4 -10 4 -5 0 -10
-5 -10 -11z"/>
<path d="M3547 2540 c3 -12 11 -16 24 -13 18 5 27 22 12 24 -5 0 -15 2 -24 4
-12 2 -15 -3 -12 -15z"/>
<path d="M3620 2546 c0 -18 35 -22 45 -6 3 6 2 10 -4 10 -5 0 -16 3 -25 6 -11
4 -16 1 -16 -10z"/>
<path d="M3690 2545 c0 -11 7 -15 23 -13 12 2 22 8 22 13 0 6 -10 11 -22 13
-16 2 -23 -2 -23 -13z"/>
<path d="M2707 2525 c7 -32 36 -34 31 -3 -2 13 -10 24 -19 26 -13 2 -15 -3
-12 -23z"/>
<path d="M3208 2533 c-25 -6 -23 -33 2 -33 13 0 20 7 20 20 0 11 -1 19 -2 19
-2 -1 -11 -3 -20 -6z"/>
<path d="M1000 2510 c0 -5 7 -10 16 -10 8 0 12 5 9 10 -3 6 -10 10 -16 10 -5
0 -9 -4 -9 -10z"/>
<path d="M2988 2513 c7 -3 16 -2 19 1 4 3 -2 6 -13 5 -11 0 -14 -3 -6 -6z"/>
<path d="M2251 2444 c0 -11 3 -14 6 -6 3 7 2 16 -1 19 -3 4 -6 -2 -5 -13z"/>
<path d="M2618 2413 c7 -3 16 -2 19 1 4 3 -2 6 -13 5 -11 0 -14 -3 -6 -6z"/>
<path d="M3388 2370 c5 -65 22 -65 22 0 0 33 -4 50 -12 50 -9 0 -12 -15 -10
-50z"/>
<path d="M452 2333 l3 -48 38 3 c31 2 37 0 37 -18 0 -16 -6 -20 -36 -20 l-37
0 7 -52 c3 -29 6 -66 6 -81 0 -27 2 -28 43 -25 36 3 42 6 45 28 2 14 7 29 12
33 4 5 5 26 3 48 -5 36 -4 39 19 39 21 0 24 4 20 34 -3 26 0 34 16 38 15 4 18
12 14 37 l-4 31 -95 0 -95 0 4 -47z m83 -195 c-1 -13 3 -27 9 -31 7 -5 3 -7
-9 -5 -17 3 -23 22 -16 53 4 16 17 1 16 -17z"/>
<path d="M4070 2346 c0 -14 5 -28 10 -31 6 -4 10 7 10 24 0 17 -4 31 -10 31
-5 0 -10 -11 -10 -24z"/>
<path d="M2177 2334 c-4 -4 -4 -18 0 -32 6 -24 5 -25 -31 -19 l-38 6 7 -42 c4
-23 12 -45 19 -49 6 -4 1 -6 -12 -5 -12 1 -21 6 -19 12 5 11 -149 4 -232 -10
l-44 -8 7 -70 c4 -39 8 -73 10 -75 3 -2 23 -6 46 -9 l42 -6 -6 57 c-5 36 -3
56 4 56 6 0 10 -23 10 -54 l0 -54 41 -4 c22 -2 42 -2 45 1 2 2 4 32 4 67 0 66
7 73 68 74 21 0 22 -4 22 -65 0 -69 13 -84 38 -45 10 17 10 21 -4 27 -9 3 -12
8 -5 12 7 5 6 16 -4 34 -8 15 -11 26 -7 23 5 -3 24 -1 43 3 28 6 36 5 36 -6 0
-7 -10 -16 -21 -19 -18 -4 -21 -11 -18 -42 l4 -37 56 5 57 5 -1 38 c-2 75 -3
75 -29 73 -13 -2 -22 1 -19 5 3 5 23 9 44 9 21 0 41 4 44 8 3 5 -23 7 -57 5
-60 -5 -63 -4 -65 19 -2 12 -4 32 -6 43 -2 11 -4 32 -5 48 -1 26 -11 34 -24
21z m-130 -140 c-3 -3 -12 -4 -19 -1 -8 3 -5 6 6 6 11 1 17 -2 13 -5z m-78
-96 c1 -34 0 -60 -2 -58 -10 11 -18 120 -9 120 5 0 10 -28 11 -62z m18 10 c-2
-13 -4 -5 -4 17 -1 22 1 32 4 23 2 -10 2 -28 0 -40z m-110 -5 c-3 -10 -5 -4
-5 12 0 17 2 24 5 18 2 -7 2 -21 0 -30z m31 -19 l-3 -39 -5 47 c-3 26 -1 43 3
39 5 -5 7 -26 5 -47z"/>
<path d="M2212 2315 c2 -15 10 -19 32 -18 30 2 61 22 50 32 -3 3 -23 6 -45 6
-34 0 -39 -3 -37 -20z"/>
<path d="M4220 2303 c0 -24 5 -43 10 -43 13 0 13 50 0 70 -7 11 -10 4 -10 -27z"/>
<path d="M4301 2314 c0 -11 3 -14 6 -6 3 7 2 16 -1 19 -3 4 -6 -2 -5 -13z"/>
<path d="M2320 2299 c0 -5 5 -7 10 -4 6 3 10 8 10 11 0 2 -4 4 -10 4 -5 0 -10
-5 -10 -11z"/>
<path d="M2370 2265 c0 -25 5 -45 10 -45 6 0 10 20 10 45 0 25 -4 45 -10 45
-5 0 -10 -20 -10 -45z"/>
<path d="M2657 2279 c7 -7 15 -10 18 -7 3 3 -2 9 -12 12 -14 6 -15 5 -6 -5z"/>
<path d="M361 2264 c0 -11 3 -14 6 -6 3 7 2 16 -1 19 -3 4 -6 -2 -5 -13z"/>
<path d="M2293 2251 c1 -16 5 -27 10 -24 10 6 9 53 -3 53 -5 0 -8 -13 -7 -29z"/>
<path d="M2225 2260 c-3 -5 -1 -10 4 -10 6 0 11 -6 11 -14 0 -23 16 -27 31 -9
12 15 12 16 -6 10 -18 -7 -19 -6 -3 6 10 8 15 17 11 20 -10 10 -41 8 -48 -3z"/>
<path d="M4260 2172 c0 -46 4 -72 11 -72 8 0 9 21 6 66 -8 90 -17 93 -17 6z"/>
<path d="M962 2174 c-6 -11 -5 -26 5 -45 18 -36 26 -38 13 -4 -9 23 -7 25 16
25 19 0 25 5 22 18 -4 23 -44 28 -56 6z"/>
<path d="M1488 2183 c-10 -2 -18 -9 -18 -14 0 -11 39 -2 55 12 9 9 -6 10 -37
2z"/>
<path d="M849 2159 c-8 -15 -8 -24 0 -32 8 -8 11 -8 11 1 0 7 11 12 25 12 28
0 34 24 9 34 -25 10 -33 7 -45 -15z"/>
<path d="M920 2165 c0 -8 5 -15 10 -15 6 0 10 7 10 15 0 8 -4 15 -10 15 -5 0
-10 -7 -10 -15z"/>
<path d="M2356 2162 c-3 -5 1 -9 9 -9 8 0 12 4 9 9 -3 4 -7 8 -9 8 -2 0 -6 -4
-9 -8z"/>
<path d="M805 2151 c-3 -5 -1 -12 5 -16 5 -3 10 1 10 9 0 18 -6 21 -15 7z"/>
<path d="M4136 2152 c-6 -10 -2 -39 7 -48 4 -4 7 7 7 24 0 32 -4 39 -14 24z"/>
<path d="M1012 2138 c-21 -21 -13 -38 17 -38 37 0 46 13 25 34 -19 19 -26 20
-42 4z"/>
<path d="M1486 2143 c-17 -5 -18 -13 -12 -151 4 -81 9 -182 13 -224 l6 -77 27
14 c23 12 28 20 25 42 -2 16 -7 112 -11 216 -4 131 -10 187 -18 186 -6 -1 -19
-3 -30 -6z"/>
<path d="M3393 2133 c9 -2 23 -2 30 0 6 3 -1 5 -18 5 -16 0 -22 -2 -12 -5z"/>
<path d="M897 2124 c-18 -19 -5 -34 29 -34 28 0 35 3 32 18 -3 17 -48 29 -61
16z"/>
<path d="M3293 2123 c-22 -8 -14 -18 12 -18 14 0 25 5 25 11 0 11 -16 14 -37
7z"/>
<path d="M2392 2100 c0 -14 2 -19 5 -12 2 6 2 18 0 25 -3 6 -5 1 -5 -13z"/>
<path d="M2325 2100 c-4 -6 5 -10 19 -10 14 0 26 5 26 10 0 6 -9 10 -19 10
-11 0 -23 -4 -26 -10z"/>
<path d="M2095 2091 c-3 -5 -1 -12 5 -16 5 -3 10 1 10 9 0 18 -6 21 -15 7z"/>
<path d="M2521 2033 c0 -30 3 -53 9 -53 11 0 11 31 0 75 -7 26 -8 22 -9 -22z"/>
<path d="M3601 2051 c-14 -25 -14 -41 -1 -41 6 0 10 7 10 15 0 20 12 19 40 -5
12 -11 31 -22 42 -26 12 -3 17 -12 13 -23 -2 -9 -1 -31 4 -49 6 -21 6 -32 0
-32 -6 0 -7 -5 -3 -11 9 -15 26 14 22 38 -2 13 5 19 25 21 23 3 27 0 27 -20 0
-29 17 -48 42 -48 14 0 18 8 18 40 0 38 2 40 29 40 28 0 30 -3 33 -42 2 -35 7
-43 23 -43 18 0 19 6 16 95 -1 52 -4 96 -5 97 -1 1 -75 5 -163 8 -154 5 -162
5 -172 -14z m322 -38 c-7 -2 -19 -2 -25 0 -7 3 -2 5 12 5 14 0 19 -2 13 -5z"/>
<path d="M3520 2039 c-7 -11 -8 -28 -5 -37 6 -14 9 -13 16 7 l10 25 25 -27
c14 -15 27 -27 30 -27 11 0 -28 60 -46 70 -15 8 -21 6 -30 -11z"/>
<path d="M4009 2041 c10 -7 12 -20 6 -57 -12 -70 -13 -124 -3 -124 4 0 8 20 8
46 l0 45 48 -3 47 -3 6 -55 6 -55 3 50 c2 28 3 56 3 63 -1 8 18 12 63 12 l64
0 0 -65 c0 -37 4 -65 10 -65 6 0 10 30 10 71 l0 72 46 -7 c26 -3 55 -6 65 -6
17 0 19 -8 19 -71 0 -38 3 -68 8 -66 4 3 6 50 4 104 l-3 100 -177 11 c-213 14
-252 15 -233 3z"/>
<path d="M2560 2011 c0 -5 5 -13 10 -16 6 -3 10 -2 10 4 0 5 -4 13 -10 16 -5
3 -10 2 -10 -4z"/>
<path d="M4506 2009 c5 -8 10 -51 10 -96 -1 -67 2 -83 17 -92 16 -10 17 -5 17
58 0 39 4 72 9 75 5 3 23 3 40 0 27 -6 31 -11 31 -38 0 -17 -4 -45 -8 -61 -13
-45 -5 -55 44 -55 42 0 44 1 44 29 0 21 -5 28 -17 27 -15 -1 -18 9 -20 57 -2
50 0 57 17 57 14 0 18 -5 13 -17 -7 -17 -6 -17 11 0 20 20 27 22 24 5 -2 -6 7
-14 19 -17 21 -6 22 -10 18 -77 l-4 -72 39 -4 c38 -3 40 -2 40 24 0 16 -5 28
-12 28 -9 0 -9 3 0 12 15 15 16 60 1 75 -18 18 -1 33 34 32 30 -1 31 -1 7 -9
-24 -7 -24 -7 10 -17 33 -9 35 -12 38 -56 3 -34 0 -47 -10 -47 -10 0 -9 -3 2
-10 10 -6 11 -10 3 -10 -7 0 -13 -7 -13 -15 0 -10 11 -15 35 -15 30 0 35 3 35
24 0 16 -7 27 -20 31 -15 5 -20 15 -20 45 0 21 5 42 11 46 8 5 10 -3 7 -24 -2
-17 -1 -29 3 -26 4 2 10 -6 12 -18 2 -13 5 13 6 58 l1 81 -122 7 c-373 20
-364 20 -352 5z m447 -66 c-7 -2 -19 -2 -25 0 -7 3 -2 5 12 5 14 0 19 -2 13
-5z"/>
<path d="M2270 2000 c0 -5 5 -10 11 -10 5 0 7 5 4 10 -3 6 -8 10 -11 10 -2 0
-4 -4 -4 -10z"/>
<path d="M2430 2000 c0 -5 5 -10 11 -10 5 0 7 5 4 10 -3 6 -8 10 -11 10 -2 0
-4 -4 -4 -10z"/>
<path d="M3137 1989 c4 -13 8 -18 11 -10 2 7 -1 18 -6 23 -8 8 -9 4 -5 -13z"/>
<path d="M1192 1940 c0 -19 2 -27 5 -17 2 9 2 25 0 35 -3 9 -5 1 -5 -18z"/>
<path d="M1121 1914 c0 -11 3 -14 6 -6 3 7 2 16 -1 19 -3 4 -6 -2 -5 -13z"/>
<path d="M2231 1914 c-52 -7 -96 -16 -99 -19 -6 -6 -3 -144 4 -168 4 -14 12
-16 39 -11 28 5 35 2 45 -16 7 -13 13 -39 14 -59 1 -29 5 -36 21 -36 17 0 19
6 17 40 -1 22 2 47 8 55 8 11 9 8 4 -12 -5 -24 -3 -28 16 -28 19 0 22 4 17 28
-4 19 -2 29 7 29 7 0 12 -9 12 -20 -1 -11 6 -21 17 -22 10 -2 17 3 17 13 0 13
2 14 9 4 11 -18 22 -17 33 3 6 10 6 21 -1 28 -7 9 -5 13 8 13 12 0 17 -6 13
-18 -3 -11 1 -18 11 -18 17 0 31 27 18 35 -5 3 -7 14 -4 25 3 12 -1 22 -11 26
-9 3 -16 15 -16 25 0 12 -5 16 -15 13 -8 -4 -15 -12 -15 -20 0 -8 -4 -14 -10
-14 -5 0 -10 6 -10 14 0 7 -6 19 -14 26 -8 6 -12 17 -10 25 3 7 -3 15 -13 18
-16 4 -16 5 0 6 11 1 17 9 17 26 0 29 4 29 -129 9z m69 -14 c0 -5 -2 -10 -4
-10 -3 0 -8 5 -11 10 -3 6 -1 10 4 10 6 0 11 -4 11 -10z m-100 -20 c0 -5 -4
-10 -10 -10 -5 0 -10 5 -10 10 0 6 5 10 10 10 6 0 10 -4 10 -10z m150 -86 c0
-8 -5 -12 -10 -9 -6 4 -8 11 -5 16 9 14 15 11 15 -7z m-53 -26 c-3 -7 -5 -2
-5 12 0 14 2 19 5 13 2 -7 2 -19 0 -25z m-91 -5 c16 3 23 0 21 -7 -2 -6 -9
-11 -14 -11 -6 0 -15 -3 -19 -7 -4 -5 -11 -8 -15 -8 -9 0 -18 48 -10 56 3 3 8
-2 9 -11 3 -12 11 -16 28 -12z m244 7 c0 -5 -4 -10 -10 -10 -5 0 -10 5 -10 10
0 6 5 10 10 10 6 0 10 -4 10 -10z m-40 -4 c0 -2 -7 -6 -15 -10 -8 -3 -15 -1
-15 4 0 6 7 10 15 10 8 0 15 -2 15 -4z m-55 -16 c-3 -5 -10 -10 -16 -10 -5 0
-9 5 -9 10 0 6 7 10 16 10 8 0 12 -4 9 -10z m-50 -10 c-3 -5 -10 -10 -16 -10
-5 0 -9 5 -9 10 0 6 7 10 16 10 8 0 12 -4 9 -10z m77 -22 c-9 -9 -15 -9 -24 0
-9 9 -7 12 12 12 19 0 21 -3 12 -12z"/>
<path d="M1032 1895 c0 -16 2 -22 5 -12 2 9 2 23 0 30 -3 6 -5 -1 -5 -18z"/>
<path d="M3141 1904 c0 -11 3 -14 6 -6 3 7 2 16 -1 19 -3 4 -6 -2 -5 -13z"/>
<path d="M4686 1903 c5 -5 12 -12 16 -18 4 -6 8 -2 8 8 0 9 -7 17 -17 17 -9 0
-12 -3 -7 -7z"/>
<path d="M3627 1887 c-3 -8 1 -21 9 -27 15 -13 17 -6 5 24 -6 17 -8 17 -14 3z"/>
<path d="M1257 1848 c4 -25 2 -38 -6 -38 -6 0 -11 -5 -11 -11 0 -8 5 -8 15 1
17 14 19 48 5 70 -6 10 -8 3 -3 -22z"/>
<path d="M1173 1825 c0 -27 2 -38 4 -22 2 15 2 37 0 50 -2 12 -4 0 -4 -28z"/>
<path d="M1085 1820 c3 -5 8 -10 11 -10 2 0 4 5 4 10 0 6 -5 10 -11 10 -5 0
-7 -4 -4 -10z"/>
<path d="M5323 1775 c-15 -17 -17 -29 -4 -21 5 4 12 0 14 -6 3 -7 6 -1 6 15 1
31 1 31 -16 12z"/>
<path d="M6574 1768 c1 -16 -4 -23 -16 -22 -10 1 -18 -3 -18 -8 0 -5 12 -8 28
-6 21 2 28 9 30 31 2 18 -1 27 -11 27 -8 0 -13 -10 -13 -22z"/>
<path d="M3766 1703 c2 -38 5 -126 7 -196 l3 -128 -28 6 c-24 6 -28 3 -28 -14
0 -23 35 -47 45 -31 3 5 1 10 -5 10 -6 0 -8 5 -5 10 16 25 25 6 22 -45 -2 -40
1 -55 10 -55 8 0 13 13 13 34 0 34 0 35 38 29 20 -3 42 -9 47 -14 6 -4 33 3
60 15 l50 23 -30 6 c-17 4 -60 12 -98 18 -56 9 -68 15 -72 33 -2 11 -6 92 -8
179 l-4 159 24 9 c32 12 29 19 -11 19 l-33 0 3 -67z"/>
<path d="M2060 1740 c0 -5 6 -10 13 -10 8 0 7 -3 -3 -9 -8 -6 -18 -7 -24 -4
-5 3 -6 1 -2 -5 14 -23 50 -4 40 21 -7 18 -24 23 -24 7z"/>
<path d="M1965 1733 c11 -3 27 -10 35 -17 13 -10 13 -9 1 7 -7 9 -23 16 -35
16 -20 -1 -20 -2 -1 -6z"/>
<path d="M5313 1700 c0 -25 2 -35 4 -22 2 12 2 32 0 45 -2 12 -4 2 -4 -23z"/>
<path d="M4200 1581 c0 -124 2 -139 18 -143 16 -4 17 5 14 126 -2 78 -8 132
-14 135 -6 2 -5 7 3 12 11 7 10 9 -3 9 -16 0 -18 -13 -18 -139z"/>
<path d="M5332 1700 c0 -14 2 -19 5 -12 2 6 2 18 0 25 -3 6 -5 1 -5 -13z"/>
<path d="M3508 1703 c-23 -4 -28 -9 -28 -34 0 -23 5 -29 23 -30 21 -1 21 -1
-3 -8 -14 -4 -37 -5 -52 -3 -24 4 -28 9 -28 38 0 19 -5 34 -11 34 -7 0 -10
-15 -7 -40 3 -32 0 -41 -14 -46 -10 -3 -16 -9 -14 -12 2 -4 -13 -6 -34 -4 -24
3 -37 8 -34 15 8 23 -14 40 -60 47 -42 6 -49 4 -65 -17 -11 -12 -25 -23 -32
-23 -8 0 5 -10 28 -22 23 -12 40 -25 37 -29 -2 -4 9 -10 26 -14 30 -7 30 -7
30 -73 -1 -61 -2 -65 -15 -48 -8 11 -15 24 -15 29 0 4 -4 5 -10 2 -5 -3 -10 3
-10 14 0 11 -4 23 -10 26 -6 4 -10 -10 -10 -34 0 -36 -3 -41 -22 -42 -62 -2
53 -21 265 -44 40 -5 57 -11 57 -21 0 -16 9 -18 29 -5 8 5 12 18 8 31 -3 14
-1 20 6 17 7 -3 11 -10 10 -16 -2 -6 6 -11 17 -11 11 0 21 5 21 10 1 6 2 14 3
19 2 18 16 24 16 8 0 -21 36 -23 44 -2 3 8 -2 21 -10 30 -17 16 -28 20 -20 6
6 -9 -62 -26 -70 -18 -2 2 -5 29 -5 61 -2 52 -3 56 -23 51 -11 -2 -15 -2 -8 1
6 3 12 13 12 21 0 12 -3 13 -13 4 -11 -8 -13 -4 -9 20 3 19 12 34 26 39 16 7
17 9 4 9 -11 1 -15 6 -12 16 4 10 0 15 -12 15 -16 0 -17 -2 -4 -10 13 -8 12
-10 -2 -10 -19 0 -22 8 -10 26 10 16 72 14 72 -3 0 -15 18 -17 38 -4 11 6 10
11 -3 25 -16 15 -39 18 -97 9z m-11 -96 c0 -9 -12 -13 -33 -13 -36 1 -33 12 6
19 14 2 25 5 26 6 0 0 1 -5 1 -12z m-77 -51 c0 -3 -4 -8 -10 -11 -5 -3 -10 -1
-10 4 0 6 5 11 10 11 6 0 10 -2 10 -4z m-67 -27 c3 -12 11 -16 25 -12 26 6 25
-29 -1 -39 -10 -4 -17 -16 -16 -25 3 -34 -1 -43 -21 -43 -22 0 -27 15 -7 24 6
3 2 3 -9 1 -25 -6 -30 3 -33 67 -2 46 -2 47 28 46 19 -1 31 -7 34 -19z"/>
<path d="M6570 1685 c0 -18 19 -40 26 -32 4 4 0 15 -9 24 -9 10 -17 13 -17 8z"/>
<path d="M5332 1637 c-1 -26 -6 -36 -14 -31 -7 5 -8 3 -3 -5 13 -21 27 4 22
40 l-4 34 -1 -38z"/>
<path d="M2640 1650 l-95 -6 95 -1 c52 -1 104 2 115 7 l20 9 -20 -2 c-11 0
-63 -4 -115 -7z"/>
<path d="M1369 1630 l-24 -21 33 16 c31 15 41 25 23 25 -5 0 -19 -9 -32 -20z"/>
<path d="M4260 1641 c0 -4 149 -24 331 -45 326 -38 333 -39 366 -21 18 10 31
20 29 22 -2 3 -17 -2 -33 -11 -27 -13 -55 -12 -324 19 -162 19 -311 36 -331
39 -21 2 -38 1 -38 -3z"/>
<path d="M1255 1630 c-8 -13 5 -13 25 0 13 8 13 10 -2 10 -9 0 -20 -4 -23 -10z"/>
<path d="M929 1596 c-2 -2 -22 -7 -44 -10 -82 -13 -105 -18 -105 -26 0 -4 12
-5 26 -2 32 6 25 -14 -10 -29 -21 -10 20 -7 104 6 76 13 80 15 80 40 0 20 -5
25 -23 25 -13 0 -26 -2 -28 -4z m-9 -26 c0 -13 -28 -25 -38 -16 -3 4 0 11 8
16 20 13 30 12 30 0z m-60 -20 c0 -5 -5 -10 -11 -10 -5 0 -7 5 -4 10 3 6 8 10
11 10 2 0 4 -4 4 -10z"/>
<path d="M1974 1581 c3 -5 15 -11 26 -14 17 -4 19 -3 9 9 -12 15 -44 20 -35 5z"/>
<path d="M1150 1548 c0 -9 5 -20 10 -23 13 -8 13 5 0 25 -8 13 -10 13 -10 -2z"/>
<path d="M5045 1549 c-3 -3 46 -12 108 -19 171 -18 154 -2 153 -138 -1 -98 1
-117 14 -117 12 0 15 17 14 100 -2 122 -4 146 -14 140 -5 -3 -10 -1 -12 4 -4
11 -257 40 -263 30z"/>
<path d="M5310 1551 c0 -5 5 -13 10 -16 6 -3 10 -2 10 4 0 5 -4 13 -10 16 -5
3 -10 2 -10 -4z"/>
<path d="M970 1513 c-30 -8 -67 -17 -83 -20 -21 -4 -25 -8 -17 -18 8 -10 6
-15 -10 -20 -50 -16 -6 -14 81 4 51 11 98 17 102 14 10 -6 -1 38 -12 48 -3 3
-31 -1 -61 -8z m0 -23 c0 -12 -28 -25 -36 -17 -9 9 6 27 22 27 8 0 14 -5 14
-10z m35 0 c3 -5 -1 -10 -10 -10 -9 0 -13 5 -10 10 3 6 8 10 10 10 2 0 7 -4
10 -10z m-90 -20 c-3 -5 -12 -10 -18 -10 -7 0 -6 4 3 10 19 12 23 12 15 0z"/>
<path d="M1084 1514 c3 -9 6 -17 6 -20 0 -2 7 -1 15 2 23 9 18 34 -6 34 -15 0
-19 -4 -15 -16z"/>
<path d="M2131 1503 c-13 -15 -12 -16 10 -10 13 4 30 7 37 7 7 0 10 5 7 10 -9
15 -38 11 -54 -7z"/>
<path d="M2698 1513 c7 -3 16 -2 19 1 4 3 -2 6 -13 5 -11 0 -14 -3 -6 -6z"/>
<path d="M5365 1510 c11 -5 108 -18 215 -30 254 -27 252 -27 257 -12 3 7 -1
10 -9 7 -8 -3 -112 6 -232 20 -237 27 -263 29 -231 15z"/>
<path d="M2688 1332 c3 -159 5 -182 19 -182 8 0 -8 325 -17 333 -3 3 -4 -65
-2 -151z"/>
<path d="M3181 1454 c0 -11 3 -14 6 -6 3 7 2 16 -1 19 -3 4 -6 -2 -5 -13z"/>
<path d="M3668 1445 c5 -28 29 -34 39 -10 6 18 5 20 -23 29 -19 6 -21 3 -16
-19z"/>
<path d="M1154 1435 c3 -9 6 -19 6 -21 0 -2 7 -4 16 -4 22 0 13 34 -10 38 -14
3 -17 0 -12 -13z"/>
<path d="M2118 1425 c2 -14 8 -22 13 -19 5 3 5 14 -1 25 -14 26 -18 24 -12 -6z"/>
<path d="M1317 1433 c-7 -6 -30 -10 -69 -12 -11 -1 -15 -6 -11 -17 4 -11 14
-13 37 -9 56 11 66 16 66 31 0 15 -12 19 -23 7z"/>
<path d="M1080 1420 c0 -5 5 -10 11 -10 5 0 7 5 4 10 -3 6 -8 10 -11 10 -2 0
-4 -4 -4 -10z"/>
<path d="M2238 1423 c7 -3 16 -2 19 1 4 3 -2 6 -13 5 -11 0 -14 -3 -6 -6z"/>
<path d="M4189 1410 c10 -5 9 -9 -3 -13 -8 -3 -16 -2 -18 3 -2 5 -29 -3 -62
-17 -47 -22 -55 -28 -40 -34 28 -11 89 -10 100 1 5 5 22 11 36 12 28 2 28 18
0 19 -13 0 -12 3 6 11 29 15 28 23 -5 25 -15 0 -21 -2 -14 -7z"/>
<path d="M1091 1373 c-16 -17 -12 -23 11 -14 10 3 14 11 10 17 -5 9 -11 8 -21
-3z"/>
<path d="M2131 1374 c0 -11 3 -14 6 -6 3 7 2 16 -1 19 -3 4 -6 -2 -5 -13z"/>
<path d="M3421 1244 c-1 -110 2 -143 12 -147 20 -8 100 30 92 43 -5 7 -12 5
-21 -7 -12 -16 -13 -8 -14 62 -1 84 -16 182 -20 135 -2 -18 -4 -20 -7 -7 -2 9
-9 17 -15 17 -5 0 -7 -7 -4 -16 3 -9 2 -12 -5 -9 -6 4 -8 12 -6 19 2 6 1 20
-4 31 -4 11 -8 -41 -8 -121z"/>
<path d="M3908 1289 c-82 -41 -98 -53 -98 -73 0 -22 3 -23 48 -18 26 3 49 9
50 13 2 5 12 9 22 9 10 0 26 8 36 17 9 10 24 19 33 21 29 8 164 2 175 -7 6 -5
22 -9 36 -10 24 0 125 -14 185 -25 17 -3 111 -20 210 -37 99 -17 205 -35 235
-40 102 -18 144 -16 148 5 2 10 0 22 -6 28 -5 5 -153 33 -328 63 -175 30 -353
61 -394 69 -89 18 -212 36 -237 35 -10 0 -62 -22 -115 -50z"/>
<path d="M1762 1290 c0 -19 2 -27 5 -17 2 9 2 25 0 35 -3 9 -5 1 -5 -18z"/>
<path d="M1995 1270 c3 -5 10 -10 16 -10 5 0 9 5 9 10 0 6 -7 10 -16 10 -8 0
-12 -4 -9 -10z"/>
<path d="M3660 1243 c0 -36 -4 -42 -30 -53 -17 -7 -33 -16 -36 -21 -2 -5 14 0
38 11 41 18 42 21 39 57 -4 52 -11 55 -11 6z"/>
<path d="M2046 1255 c-4 -11 2 -15 26 -15 26 0 29 2 18 15 -7 8 -18 15 -25 15
-7 0 -15 -7 -19 -15z"/>
<path d="M2153 1243 c14 -4 17 -14 16 -59 -1 -30 1 -57 4 -61 4 -3 7 6 7 20 0
21 6 28 28 34 l27 7 -25 6 c-18 4 -26 14 -28 33 -3 21 -9 27 -25 26 -17 -1
-18 -2 -4 -6z"/>
<path d="M5305 1228 c-31 -17 -105 -90 -99 -99 2 -4 -1 -11 -7 -15 -8 -4 -9
-3 -5 4 19 31 -15 5 -81 -60 -57 -57 -73 -68 -74 -53 -1 11 -5 2 -8 -20 -5
-32 -10 -39 -25 -37 -11 2 -15 -1 -11 -7 16 -26 50 -2 193 140 83 83 152 152
152 155 0 7 -14 4 -35 -8z"/>
<path d="M1738 1200 c12 -5 22 -11 22 -14 0 -2 -10 -2 -22 0 -21 4 -22 4 -3
-5 30 -14 65 -13 65 3 0 14 -30 26 -65 25 -18 0 -18 -1 3 -9z"/>
<path d="M1975 1200 c3 -5 11 -10 16 -10 6 0 7 5 4 10 -3 6 -11 10 -16 10 -6
0 -7 -4 -4 -10z"/>
<path d="M2040 1160 c0 -5 5 -10 11 -10 5 0 7 5 4 10 -3 6 -8 10 -11 10 -2 0
-4 -4 -4 -10z"/>
<path d="M5040 1140 c0 -23 5 -30 19 -30 11 0 21 -5 23 -10 2 -6 19 3 38 18
l34 29 -52 12 c-29 6 -55 11 -57 11 -3 0 -5 -13 -5 -30z"/>
<path d="M2100 1151 c0 -5 9 -7 20 -4 11 3 20 7 20 9 0 2 -9 4 -20 4 -11 0
-20 -4 -20 -9z"/>
<path d="M3550 1150 c-8 -5 -10 -10 -5 -10 6 0 17 5 25 10 8 5 11 10 5 10 -5
0 -17 -5 -25 -10z"/>
<path d="M1990 1120 c0 -5 5 -10 11 -10 5 0 7 5 4 10 -3 6 -8 10 -11 10 -2 0
-4 -4 -4 -10z"/>
<path d="M3342 930 c0 -19 2 -27 5 -17 2 9 2 25 0 35 -3 9 -5 1 -5 -18z"/>
<path d="M3485 950 c4 -6 -1 -7 -11 -3 -13 5 -16 3 -11 -10 4 -10 2 -16 -5
-14 -6 1 -13 -4 -15 -11 -4 -10 2 -10 26 2 29 16 43 46 20 46 -5 0 -7 -4 -4
-10z"/>
<path d="M3208 910 c4 -43 22 -66 22 -28 0 30 -11 68 -19 68 -4 0 -5 -18 -3
-40z"/>
<path d="M3261 908 c0 -13 4 -32 9 -43 7 -15 9 -10 9 23 1 23 -3 42 -9 42 -5
0 -10 -10 -9 -22z"/>
<path d="M3483 867 c-25 -11 -31 -27 -10 -27 19 0 40 16 36 28 -3 6 -12 6 -26
-1z"/>
<path d="M6573 855 c18 -13 17 -14 -5 -17 l-23 -5 25 -11 c17 -7 19 -11 8 -11
-11 -1 -15 -7 -11 -21 3 -11 0 -20 -6 -20 -6 0 -2 -9 9 -20 11 -11 22 -20 25
-20 3 0 5 32 5 70 0 66 -1 70 -22 70 -22 -1 -22 -1 -5 -15z"/>
<path d="M3656 758 c-23 -33 -20 -41 9 -22 14 9 23 20 20 24 -3 5 1 11 7 13 8
4 7 6 -4 6 -9 1 -24 -9 -32 -21z"/>
<path d="M3276 705 c-19 -14 -19 -15 0 -21 45 -14 64 -24 64 -34 0 -6 12 -4
30 5 37 19 38 32 3 46 -49 18 -77 20 -97 4z"/>
<path d="M3669 687 c-9 -7 -16 -20 -16 -29 0 -14 3 -15 14 -6 18 15 36 48 26
48 -4 0 -15 -6 -24 -13z"/>
<path d="M3175 653 l-29 -16 44 -17 c24 -9 46 -22 48 -28 3 -11 62 17 62 31 0
6 -85 49 -93 47 -1 -1 -15 -8 -32 -17z"/>
<path d="M3360 590 c11 -7 8 -11 -13 -21 -15 -7 -27 -16 -27 -21 0 -11 17 -10
24 1 7 11 46 2 46 -10 0 -5 11 -3 25 3 46 21 29 49 -33 54 -24 2 -31 0 -22 -6z"/>
<path d="M3080 560 c0 -5 5 -10 10 -10 6 0 10 5 10 10 0 6 -4 10 -10 10 -5 0
-10 -4 -10 -10z"/>
<path d="M3266 545 c-16 -12 -17 -15 -4 -15 9 0 18 7 22 15 7 18 6 18 -18 0z"/>
<path d="M3265 522 l-30 -16 33 -9 c17 -6 32 -16 32 -23 0 -18 6 -18 30 3 27
23 25 49 -2 57 -28 7 -26 7 -63 -12z"/>
<path d="M3141 468 c0 -33 3 -58 9 -58 12 0 12 20 1 75 -9 40 -9 39 -10 -17z"/>
<path d="M3410 460 c-14 -10 -22 -22 -18 -26 9 -8 58 22 58 36 0 15 -12 12
-40 -10z"/>
<path d="M3420 430 c-8 -5 -15 -20 -15 -32 0 -16 -6 -23 -18 -22 -9 1 -15 -2
-12 -6 5 -8 -45 -35 -60 -31 -5 2 -7 -1 -3 -5 4 -4 2 -14 -5 -22 -15 -19 -5
-14 68 36 71 49 85 63 84 81 -1 13 -2 13 -6 -1 -2 -10 -11 -18 -20 -18 -13 0
-13 3 -3 15 14 17 11 19 -10 5z"/>
<path d="M3040 412 c0 -9 44 -31 71 -35 8 -2 19 -6 26 -10 35 -22 96 -36 112
-26 14 9 14 10 -2 5 -18 -6 -55 10 -69 29 -5 6 -8 5 -8 -3 0 -10 -4 -10 -16 2
-8 9 -18 16 -22 17 -44 4 -66 10 -78 20 -8 7 -14 7 -14 1z"/>
<path d="M3321 400 c-16 -11 -22 -23 -18 -34 8 -20 21 -20 37 -1 7 8 9 15 5
15 -4 0 -2 6 4 14 18 22 -2 27 -28 6z m19 -24 c0 -2 -7 -7 -16 -10 -8 -3 -12
-2 -9 4 6 10 25 14 25 6z"/>
</g>
</svg>
