<?xml version="1.0" standalone="no"?>
<!DOCTYPE svg PUBLIC "-//W3C//DTD SVG 20010904//EN"
 "http://www.w3.org/TR/2001/REC-SVG-20010904/DTD/svg10.dtd">
<svg version="1.0" xmlns="http://www.w3.org/2000/svg"
 width="852.000000pt" height="568.000000pt" viewBox="0 0 852.000000 568.000000"
 preserveAspectRatio="xMidYMid meet">

<g transform="translate(0.000000,568.000000) scale(0.100000,-0.100000)"
fill="#000000" stroke="none">
<path d="M0 5590 c0 -49 2 -90 5 -90 7 0 48 23 55 30 3 3 28 15 56 27 49 20
83 43 108 71 6 7 19 22 29 33 17 19 15 19 -118 19 l-135 0 0 -90z"/>
<path d="M718 5658 c-7 -13 -17 -30 -23 -39 -5 -8 -20 -31 -32 -50 -12 -19
-27 -40 -33 -47 -6 -7 -29 -38 -50 -70 -54 -78 -65 -92 -78 -92 -6 0 -13 -9
-17 -19 -3 -11 -12 -22 -20 -25 -8 -3 -15 -10 -15 -15 0 -6 -11 -22 -25 -37
-13 -14 -23 -30 -20 -34 3 -4 -5 -19 -18 -33 -12 -14 -38 -44 -57 -68 -19 -24
-59 -67 -87 -95 -29 -29 -53 -57 -53 -63 0 -6 -7 -11 -15 -11 -11 0 -15 -11
-15 -38 0 -26 -6 -42 -19 -52 -11 -7 -18 -17 -16 -20 7 -11 -57 -77 -92 -94
l-33 -17 0 -2369 0 -2370 1519 0 1520 0 4 42 4 43 1 -42 c2 -38 5 -43 26 -43
22 0 25 5 29 42 l4 43 3 -45 3 -45 7 50 7 50 1 -47 2 -48 2695 0 2695 0 0
2400 c0 2393 0 2400 -20 2400 -11 0 -20 5 -20 10 0 6 -33 10 -79 10 -48 0 -81
4 -83 11 -2 7 -12 7 -32 -2 -24 -11 -27 -17 -22 -42 3 -16 6 -38 6 -48 0 -11
7 -19 15 -19 12 0 15 -16 15 -80 0 -73 -2 -80 -20 -80 -19 0 -20 7 -20 110 0
108 0 110 -23 110 -14 0 -32 -12 -45 -30 -15 -19 -31 -30 -47 -30 -22 0 -25
-4 -25 -39 0 -40 0 -40 42 -43 l43 -3 -23 -21 c-18 -17 -22 -32 -23 -95 l-2
-74 -47 -23 c-61 -29 -110 -30 -110 -2 0 26 -8 25 -31 -1 -15 -18 -27 -20 -74
-17 -30 1 -55 0 -55 -4 0 -12 -34 4 -51 24 -23 26 -29 23 -29 -17 0 -19 -5
-35 -11 -35 -23 0 -68 35 -71 54 -3 21 -3 21 -23 -1 -11 -13 -27 -23 -37 -23
-10 0 -18 -7 -18 -15 0 -18 -47 -65 -65 -65 -8 0 -15 -6 -15 -13 0 -12 -123
-147 -135 -147 -3 0 -22 -16 -43 -35 -39 -38 -61 -52 -127 -83 -66 -31 -107
-42 -124 -33 -20 10 -105 22 -191 25 -36 2 -73 6 -82 11 -12 4 -18 3 -18 -5 0
-8 -15 -11 -48 -8 -73 5 -161 -43 -122 -67 6 -3 10 -20 10 -36 0 -16 9 -39 20
-51 11 -12 20 -29 20 -38 0 -9 9 -26 20 -38 11 -12 20 -31 20 -42 0 -11 9 -30
20 -42 11 -12 20 -29 20 -39 0 -9 11 -27 24 -40 18 -17 23 -31 19 -50 -3 -15
0 -30 6 -33 14 -9 14 -76 1 -96 -8 -12 -10 -10 -10 9 0 19 -3 22 -12 13 -6 -6
-11 -25 -10 -43 1 -38 -40 -82 -103 -110 -47 -21 -155 -119 -155 -141 0 -8 -9
-23 -20 -33 -11 -10 -20 -30 -20 -45 0 -14 -4 -30 -9 -36 -11 -10 -41 -111
-48 -159 -5 -41 -25 -108 -35 -121 -4 -6 -4 -15 0 -19 4 -5 2 -5 -4 -2 -6 3
-18 -2 -27 -11 -31 -33 -43 -39 -94 -45 -46 -5 -53 -4 -58 14 -4 10 -13 19
-21 19 -12 0 -14 11 -9 63 5 54 33 226 66 407 5 30 23 143 40 250 17 107 35
222 40 255 5 33 12 98 15 145 3 47 9 98 15 114 5 16 9 40 9 53 0 15 4 22 11
17 8 -4 8 -1 0 13 -7 14 -6 33 4 66 8 26 10 47 5 47 -10 0 -74 -105 -85 -138
-4 -15 -2 -22 7 -22 9 0 10 -3 2 -8 -11 -7 -57 -222 -49 -230 2 -2 17 15 34
39 17 23 31 35 31 27 0 -8 -11 -26 -24 -39 -26 -27 -60 -88 -52 -96 2 -3 11 4
18 16 7 12 16 21 21 21 7 0 -19 -47 -33 -60 -7 -7 -37 -68 -54 -112 -9 -22
-22 -38 -31 -38 -8 0 -46 -30 -83 -67 -37 -36 -83 -73 -102 -81 -19 -8 -38
-19 -42 -25 -4 -6 -9 -9 -12 -7 -8 9 -10 106 -2 119 12 19 -4 28 -18 9 -7 -9
-28 -18 -47 -20 l-34 -4 25 -12 c24 -12 24 -12 -10 -11 -40 1 -80 -10 -80 -21
0 -10 -44 -21 -105 -27 -27 -2 -51 -8 -53 -14 -2 -5 -18 -9 -35 -9 -44 0 -103
-18 -121 -36 -12 -11 -29 -13 -78 -9 -44 5 -82 2 -128 -10 -36 -10 -92 -22
-125 -29 -37 -7 -70 -20 -85 -34 -14 -12 -35 -25 -47 -28 -12 -3 -25 -15 -28
-25 -4 -10 -11 -19 -16 -19 -26 0 -80 -50 -100 -92 -12 -27 -26 -48 -31 -48
-4 0 -8 -10 -8 -22 0 -13 -9 -47 -20 -76 -11 -29 -20 -71 -21 -95 0 -39 -17
-99 -18 -68 -1 23 -12 5 -21 -34 -6 -29 -5 -35 5 -31 7 2 16 -2 19 -10 4 -10
2 -12 -6 -8 -7 5 -9 2 -6 -8 4 -8 0 -15 -8 -15 -7 0 -11 4 -8 9 9 13 -2 9 -24
-11 -12 -10 -22 -26 -22 -35 0 -9 -4 -16 -9 -16 -5 0 -7 10 -4 23 5 21 5 21
-13 4 -19 -18 -19 -19 1 -34 16 -13 17 -15 3 -10 -12 4 -18 1 -18 -8 0 -9 -9
-15 -21 -15 -28 0 -19 -23 12 -31 23 -7 23 -7 2 -8 -21 -1 -23 -6 -25 -63 0
-35 -2 -72 -3 -83 -1 -11 -3 -28 -4 -38 -1 -11 -6 -15 -13 -11 -8 5 -9 2 -5
-10 9 -23 -49 -59 -83 -50 -52 12 -60 29 -60 134 0 54 3 111 6 128 6 31 7 31
50 25 26 -3 44 -2 44 4 0 5 -30 14 -67 19 l-68 9 32 18 c17 9 35 26 38 38 8
25 8 25 -32 32 -27 5 -33 3 -33 -11 0 -26 -27 -60 -53 -65 l-22 -4 22 -8 c22
-7 23 -9 16 -124 -8 -155 10 -191 109 -215 42 -10 141 38 120 58 -3 4 1 4 10
1 20 -8 53 -55 39 -55 -5 0 -13 9 -16 20 -3 11 -10 20 -15 20 -13 0 -21 -30
-7 -30 7 0 25 -28 41 -61 l30 -60 -17 -47 c-9 -26 -17 -57 -17 -69 0 -12 -6
-28 -14 -35 -15 -15 -28 -50 -32 -87 -4 -40 -26 -82 -40 -77 -7 3 -15 -2 -18
-10 -3 -8 1 -14 9 -14 8 0 15 -4 15 -9 0 -5 -9 -7 -21 -4 -17 5 -20 12 -17 39
3 23 0 34 -9 34 -7 0 -13 -12 -13 -27 l-1 -28 -15 28 c-20 36 -32 34 -40 -7
-6 -37 0 -57 19 -55 29 3 38 -3 54 -37 14 -29 15 -37 4 -43 -11 -7 -11 -9 0
-13 9 -3 6 -16 -13 -51 -20 -35 -23 -47 -12 -47 21 0 17 -18 -10 -43 -22 -21
-24 -31 -27 -147 -2 -69 -8 -129 -14 -133 -5 -5 6 -6 25 -3 19 3 30 3 23 0 -7
-3 -10 -11 -7 -18 5 -14 -225 29 -307 57 -237 82 -442 205 -582 350 -61 63
-127 157 -127 182 0 7 -5 17 -11 20 -6 4 -8 20 -4 38 5 25 4 29 -5 17 -9 -12
-11 -10 -9 10 1 14 -1 33 -5 42 -4 9 -5 21 -2 26 2 4 -3 46 -13 92 -13 59 -16
92 -9 109 5 13 6 31 3 39 -3 9 -1 18 5 22 7 4 5 17 -6 39 -31 62 -52 564 -59
1406 -3 302 -7 563 -10 580 -8 50 -15 145 -10 145 2 0 11 -12 19 -27 8 -16 15
-23 16 -16 0 7 -9 30 -20 51 -35 66 -46 141 -31 208 11 47 15 54 23 40 7 -12
7 -21 1 -25 -15 -9 1 -120 23 -166 10 -21 54 -75 98 -120 45 -45 65 -63 45
-41 -42 48 -91 119 -65 95 16 -15 22 -12 79 42 88 82 101 90 209 148 120 63
134 74 233 186 52 59 52 94 -4 156 -34 38 -38 40 -78 33 -23 -3 -56 -16 -75
-27 -18 -12 -35 -22 -38 -22 -3 -1 -21 -9 -40 -17 -45 -21 -20 -22 44 -3 27 8
53 15 58 15 19 0 5 -17 -29 -35 -21 -11 -46 -27 -55 -36 -37 -33 -109 -61
-139 -55 -17 3 -28 2 -24 -3 3 -5 -4 -7 -15 -4 -20 5 -20 7 -4 24 30 33 2 20
-32 -15 -18 -19 -35 -31 -38 -28 -3 3 -6 -2 -6 -11 0 -25 15 -20 29 9 6 14 17
24 23 22 20 -7 20 -26 -1 -33 -11 -3 -23 -15 -26 -25 -4 -11 -12 -17 -21 -13
-9 3 -14 -2 -14 -16 0 -12 -4 -21 -9 -21 -5 0 -9 -19 -9 -43 1 -41 -24 -97
-43 -97 -11 0 -12 17 0 24 4 3 11 31 14 62 3 31 12 63 20 73 35 41 32 56 -4
19 l-21 -23 15 30 c24 46 83 110 147 160 32 25 62 45 66 45 4 0 28 13 53 29
26 15 58 32 72 36 13 4 55 20 92 37 86 37 285 83 450 103 171 21 343 36 390
35 20 0 37 4 37 10 0 13 -93 13 -275 0 -547 -40 -917 -199 -1041 -447 -28 -57
-39 -115 -36 -191 2 -32 3 -33 20 -16 16 17 17 16 20 -11 2 -15 -2 -31 -9 -36
-10 -6 -10 -11 0 -22 8 -10 8 -17 2 -21 -19 -12 -58 88 -66 170 -3 27 -7 63
-11 79 -3 20 0 37 11 50 l17 20 -7 -20 c-18 -50 -13 -56 9 -10 18 36 22 51 13
57 -7 4 -2 11 16 17 15 6 27 17 27 26 0 8 5 15 12 15 6 0 9 3 5 6 -3 3 20 28
51 56 31 28 62 55 67 60 10 9 -70 4 -137 -8 -27 -5 -28 -4 -28 39 0 24 3 59 6
77 l7 32 66 -6 c36 -3 67 -5 69 -6 2 0 0 -4 -3 -10 -3 -5 6 -12 20 -16 14 -3
25 -11 25 -16 0 -6 6 -8 14 -5 8 3 27 1 43 -5 23 -9 38 -6 88 15 199 83 410
130 724 160 l124 12 11 45 c10 41 14 45 44 48 35 4 45 22 12 22 -13 0 -20 7
-20 20 0 24 11 25 50 5 26 -14 30 -21 30 -59 0 -26 5 -47 12 -50 7 -3 4 -4 -7
-1 -11 2 -36 1 -55 -4 l-35 -7 52 -7 c29 -4 125 -12 214 -17 88 -6 164 -12
168 -14 3 -2 58 -11 121 -20 63 -9 165 -27 225 -41 104 -24 346 -95 390 -115
177 -81 191 -85 223 -55 15 14 32 25 39 25 7 0 13 5 13 10 0 6 -6 10 -12 10
-8 0 -9 3 -3 8 6 4 17 20 25 35 11 22 11 30 2 36 -9 5 -9 15 1 41 9 26 9 34 0
37 -7 3 -13 17 -13 33 0 16 6 31 13 34 10 5 10 7 0 12 -7 3 -13 14 -13 25 0
11 -7 31 -17 45 -9 15 -16 44 -15 72 0 57 -12 82 -40 82 -21 0 -93 68 -83 78
2 3 18 -9 34 -27 19 -20 39 -31 56 -31 23 0 26 2 15 15 -7 8 -21 15 -31 15
-11 0 -32 18 -49 42 -18 24 -30 34 -30 25 0 -29 -16 -18 -35 23 l-18 40 -339
0 -339 0 -23 -25 c-13 -14 -26 -25 -30 -25 -4 0 -21 -13 -39 -30 -17 -16 -45
-35 -62 -42 -16 -7 -36 -18 -43 -25 -16 -15 -46 -18 -37 -3 4 6 -12 10 -42 10
-26 0 -74 4 -105 9 -32 6 -89 6 -127 2 -90 -9 -126 8 -162 74 -9 17 -21 29
-27 28 -7 -2 -12 4 -12 12 0 13 -123 15 -1050 15 -693 0 -1050 -3 -1050 -10 0
-5 10 -10 22 -10 32 0 158 -41 158 -51 0 -5 9 -9 19 -9 11 0 23 -5 26 -10 7
-12 119 -70 134 -70 15 0 61 -49 61 -65 0 -8 -4 -15 -8 -15 -5 0 0 -33 10 -72
28 -108 24 -168 -12 -168 -9 0 -20 -9 -23 -20 -3 -13 -17 -22 -36 -26 -17 -4
-36 -13 -42 -20 -6 -8 -32 -23 -58 -35 -25 -11 -55 -28 -66 -39 -41 -38 -131
-70 -195 -70 -100 0 -146 35 -210 160 -20 38 -23 60 -23 145 0 55 2 107 4 115
12 39 75 151 89 155 8 3 21 18 28 35 12 26 12 34 -2 55 l-16 25 -755 0 -754 0
-13 -22z m3392 -177 c0 -12 -21 -19 -42 -13 -29 7 -21 22 12 22 17 0 30 -4 30
-9z m-689 -794 c-10 -9 -11 -8 -5 6 3 10 9 15 12 12 3 -3 0 -11 -7 -18z m4924
-37 c3 -5 -1 -10 -9 -10 -9 0 -16 5 -16 10 0 6 4 10 9 10 6 0 13 -4 16 -10z
m-5482 -681 c-1 -15 -16 -52 -35 -84 -18 -31 -43 -75 -56 -98 -12 -22 -29 -48
-37 -57 -8 -9 -15 -20 -15 -24 0 -10 -122 -180 -132 -184 -4 -2 -8 -12 -8 -22
0 -30 -78 -104 -146 -138 -134 -68 -167 -87 -171 -101 -2 -9 -9 -24 -14 -34
-12 -22 -15 -20 39 -36 23 -6 40 -16 37 -20 -2 -5 2 -14 10 -21 16 -13 20 -31
8 -29 -18 3 -30 -2 -57 -26 -16 -14 -33 -25 -38 -25 -4 0 -8 -7 -8 -15 0 -8
-9 -15 -19 -15 -11 0 -26 -7 -34 -15 -8 -8 -17 -11 -21 -8 -3 4 -6 1 -6 -6 0
-7 -7 -11 -15 -8 -8 4 -17 2 -20 -3 -4 -6 -15 -10 -26 -10 -10 0 -19 -7 -19
-15 0 -10 -10 -15 -29 -15 -17 0 -33 -4 -36 -10 -3 -5 -15 -10 -27 -10 -23 0
-90 -29 -100 -44 -3 -5 -34 -12 -67 -14 -34 -2 -61 -9 -61 -14 0 -13 -67 -78
-73 -71 -3 3 -15 2 -26 -2 -28 -8 -15 -28 13 -21 26 7 97 -4 91 -14 -2 -3 14
-6 35 -5 21 1 37 -1 35 -5 -2 -4 2 -18 10 -33 7 -14 10 -29 7 -33 -4 -4 -2 -4
5 0 13 7 37 -27 26 -38 -3 -3 3 -6 15 -6 12 0 22 -6 22 -13 0 -13 36 -36 53
-33 5 0 13 -7 18 -16 6 -10 14 -18 19 -18 6 0 32 -16 60 -36 44 -32 56 -46 48
-57 -2 -2 16 -26 39 -54 23 -27 40 -53 36 -57 -3 -3 -1 -6 5 -6 7 0 12 -7 12
-15 0 -8 7 -15 15 -15 8 0 15 -7 15 -15 0 -9 11 -28 25 -43 37 -39 32 -98 -10
-124 -56 -33 -138 -60 -182 -59 -13 1 -23 -3 -23 -8 0 -5 -24 -12 -52 -16 -29
-3 -65 -8 -79 -11 -16 -3 -32 1 -42 10 -8 8 -17 12 -21 9 -3 -4 -6 -1 -6 5 0
7 -3 11 -7 11 -20 -3 -33 2 -33 13 0 6 -7 19 -16 29 -8 9 -16 26 -17 38 -1 11
-5 21 -9 21 -4 0 -8 9 -8 21 0 11 -4 17 -10 14 -5 -3 -10 1 -10 9 0 9 -5 16
-10 16 -6 0 -9 3 -8 8 3 15 -15 42 -27 42 -35 0 -106 208 -75 218 6 2 9 31 9
65 -2 58 -2 59 -9 22 l-7 -40 -2 38 c0 21 -8 45 -16 54 -9 8 -19 29 -22 45 -4
21 -8 26 -14 16 -7 -11 -11 -10 -19 2 -9 13 -11 13 -21 0 -9 -13 -10 -12 -5 2
6 20 -10 34 -17 16 -3 -7 -5 -2 -5 12 1 14 -8 44 -20 68 -11 24 -18 51 -15 60
10 27 40 62 47 55 3 -3 15 4 25 16 11 12 29 23 41 24 13 1 23 10 27 27 3 14
13 30 22 37 11 9 12 12 3 13 -7 0 -23 10 -35 21 l-22 21 23 -11 c20 -11 22 -9
22 14 0 14 -7 28 -15 31 -8 3 -17 14 -20 25 -7 21 -31 26 -37 7 -3 -8 -11 -4
-24 9 -27 29 -54 66 -54 74 0 4 -13 12 -30 19 -18 8 -30 20 -30 31 0 11 -2 19
-4 19 -2 0 -11 3 -20 6 -11 4 -16 1 -16 -10 0 -9 -2 -16 -4 -16 -10 0 -71 69
-68 78 1 5 -8 7 -23 5 -15 -3 -25 -1 -25 6 0 6 5 11 10 11 6 0 10 5 10 10 0 6
-9 10 -21 10 -15 0 -20 5 -17 23 2 17 9 22 28 20 14 -1 19 1 13 3 -18 8 -16
27 1 21 18 -7 58 21 50 35 -4 7 -2 8 4 4 7 -4 12 -2 12 3 0 6 7 11 15 11 8 0
15 6 15 13 0 6 14 18 30 25 17 8 36 19 43 25 16 16 70 36 137 52 30 7 100 25
155 40 55 15 123 31 150 36 106 18 364 75 424 94 25 8 87 26 136 41 50 15 142
52 205 82 136 64 155 71 195 69 26 -2 30 -6 28 -28z m-2443 -988 c0 -11 -4
-23 -10 -26 -6 -4 -10 5 -10 19 0 14 5 26 10 26 6 0 10 -9 10 -19z m-20 -71
c0 -20 -5 -30 -15 -30 -18 0 -18 1 -5 34 13 34 20 33 20 -4z m4420 26 c0 -3
-4 -8 -10 -11 -5 -3 -10 -1 -10 4 0 6 5 11 10 11 6 0 10 -2 10 -4z m-192 -468
c2 -29 1 -50 -1 -48 -9 10 -18 100 -10 100 4 0 9 -24 11 -52z m-1667 -40 c3
-5 13 -6 22 -2 10 3 37 -7 68 -26 28 -17 62 -32 76 -33 13 -1 27 -7 31 -12 4
-6 19 -16 35 -24 15 -8 27 -20 27 -26 0 -14 50 -62 51 -49 0 5 6 -13 14 -41 9
-33 10 -53 4 -60 -13 -13 -102 -13 -112 0 -6 7 -10 6 -14 -2 -2 -7 -9 -13 -14
-13 -6 0 -7 4 -4 10 3 5 0 8 -7 5 -7 -3 -17 -1 -23 3 -16 11 -75 90 -75 99 0
5 -9 14 -20 21 -11 7 -20 19 -20 27 0 8 -9 15 -20 15 -15 0 -20 7 -20 25 0 14
-6 25 -13 25 -8 0 -22 9 -31 19 -10 11 -28 21 -39 23 -12 2 -23 11 -25 20 -3
15 3 16 50 11 29 -3 56 -10 59 -15z m1656 -83 c0 -8 -4 -12 -9 -9 -5 3 -6 10
-3 15 9 13 12 11 12 -6z m58 -95 c3 -6 -1 -7 -9 -4 -18 7 -21 14 -7 14 6 0 13
-4 16 -10z m-4335 -291 c0 -5 4 -8 9 -5 12 8 42 -4 36 -14 -3 -5 4 -6 15 -3
14 4 20 0 20 -11 0 -10 5 -14 10 -11 6 4 10 3 9 -2 -4 -20 3 -29 32 -42 23
-10 28 -16 18 -22 -11 -7 -10 -9 4 -9 9 0 17 -4 17 -10 0 -5 10 -19 23 -32 18
-18 22 -34 21 -78 0 -47 -5 -60 -31 -87 -38 -41 -67 -42 -89 -4 -14 23 -23 28
-53 27 -32 -1 -38 3 -53 34 -12 23 -18 29 -18 16 0 -18 -1 -18 -20 -1 -11 10
-22 26 -25 36 -4 11 -10 17 -14 15 -3 -2 -2 32 3 76 7 65 6 82 -5 88 -10 7 -1
14 31 29 52 24 60 25 60 10z m5508 -108 c4 -27 -14 -51 -39 -51 -15 0 -16 5
-9 30 5 16 11 34 15 40 10 17 30 6 33 -19z m-1292 -62 c3 -6 1 -16 -6 -22 -10
-9 -11 -9 -6 1 4 6 3 12 -3 12 -5 0 -11 -6 -14 -12 -3 -7 -4 -3 -4 10 1 23 21
30 33 11z m1193 -2 c-2 -1 -15 -11 -29 -22 l-25 -20 19 23 c11 12 24 22 29 22
6 0 8 -1 6 -3z m-5165 -103 c9 -24 7 -27 -9 -10 -17 17 -19 26 -6 26 5 0 12
-7 15 -16z m-264 -14 c0 -5 -2 -10 -4 -10 -3 0 -8 5 -11 10 -3 6 -1 10 4 10 6
0 11 -4 11 -10z m240 -39 c0 -6 -4 -13 -10 -16 -5 -3 -10 1 -10 9 0 9 5 16 10
16 6 0 10 -4 10 -9z m4768 -375 c-10 -7 -15 -16 -12 -19 3 -3 -14 -11 -37 -17
-107 -27 -153 -42 -175 -57 -19 -12 -37 -13 -86 -7 -58 7 -60 8 -28 14 48 8
63 19 57 40 -4 14 9 19 88 29 51 7 104 15 119 19 14 4 41 8 59 9 28 2 30 1 15
-11z m-723 -86 c19 -8 19 -9 -2 -9 -12 -1 -25 4 -28 9 -7 12 2 12 30 0z m68
-7 c-7 -2 -19 -2 -25 0 -7 3 -2 5 12 5 14 0 19 -2 13 -5z m-2142 -44 c38 -26
38 -68 2 -146 -22 -49 -86 -156 -103 -173 -3 -3 -14 -21 -25 -40 -10 -19 -38
-54 -62 -77 -24 -24 -43 -52 -43 -64 0 -11 -5 -29 -10 -39 -7 -13 -7 -21 0
-25 6 -4 8 -10 5 -15 -3 -5 -2 -11 3 -14 12 -7 6 -67 -8 -76 -6 -4 -12 -16
-13 -28 0 -12 -3 -19 -5 -17 -8 8 -59 -24 -66 -40 -3 -9 -10 -13 -16 -10 -5 3
-10 3 -10 -2 0 -4 -11 -13 -25 -20 -19 -8 -23 -8 -19 0 5 8 2 7 -7 0 -7 -7
-21 -13 -31 -13 -10 0 -18 -4 -18 -8 0 -5 -19 -15 -42 -22 -24 -7 -61 -20 -83
-30 -70 -32 -114 -36 -230 -24 -51 5 -73 12 -83 25 -7 11 -18 19 -24 19 -17 0
-48 41 -48 63 0 13 5 17 15 13 9 -3 15 0 15 9 0 8 8 20 18 27 9 7 25 30 34 50
15 33 16 39 3 52 -8 8 -15 26 -15 40 0 19 -5 26 -20 26 -17 0 -20 7 -20 40 0
22 -4 40 -10 40 -5 0 -10 18 -10 40 0 32 4 40 18 40 11 0 27 9 37 20 10 11 24
20 32 20 7 0 13 9 13 20 0 15 7 20 25 20 14 0 25 6 25 13 0 6 18 21 41 31 22
11 45 28 50 37 5 10 29 25 54 34 25 10 45 23 45 30 0 13 42 35 65 35 8 0 15 4
15 9 0 14 110 59 173 70 32 6 72 17 90 25 18 8 57 22 87 30 112 30 144 31 181
5z m2132 14 c-7 -2 -19 -2 -25 0 -7 3 -2 5 12 5 14 0 19 -2 13 -5z m-2446
-969 c-3 -3 -12 -4 -19 -1 -8 3 -5 6 6 6 11 1 17 -2 13 -5z m91 -21 c-10 -2
-28 -2 -40 0 -13 2 -5 4 17 4 22 1 32 -1 23 -4z"/>
<path d="M1520 3190 c0 -5 5 -10 10 -10 6 0 10 5 10 10 0 6 -4 10 -10 10 -5 0
-10 -4 -10 -10z"/>
<path d="M1600 2730 c0 -5 5 -10 11 -10 5 0 7 5 4 10 -3 6 -8 10 -11 10 -2 0
-4 -4 -4 -10z"/>
<path d="M260 1830 c0 -5 5 -10 10 -10 6 0 10 5 10 10 0 6 -4 10 -10 10 -5 0
-10 -4 -10 -10z"/>
<path d="M5880 5674 c0 -3 6 -12 14 -20 20 -19 26 -18 26 6 0 13 -7 20 -20 20
-11 0 -20 -3 -20 -6z"/>
<path d="M5190 5162 c0 -9 32 -17 205 -57 66 -15 142 -36 170 -46 60 -23 145
-36 145 -22 0 19 -244 89 -414 119 -93 16 -106 17 -106 6z"/>
<path d="M5806 4991 c-3 -4 18 -17 47 -29 28 -11 76 -30 105 -41 79 -32 52 -5
-41 40 -83 40 -102 45 -111 30z"/>
<path d="M3610 4880 c-13 -8 -12 -10 3 -10 9 0 17 5 17 10 0 12 -1 12 -20 0z"/>
<path d="M8022 4817 c-12 -13 -22 -31 -22 -40 0 -15 12 -17 80 -17 l80 0 0 40
0 40 -58 0 c-48 0 -62 -4 -80 -23z"/>
<path d="M4320 4810 c0 -5 5 -10 11 -10 5 0 7 5 4 10 -3 6 -8 10 -11 10 -2 0
-4 -4 -4 -10z"/>
<path d="M4200 4790 c-12 -8 -10 -10 10 -9 14 0 34 4 45 9 17 7 16 9 -10 9
-16 0 -37 -4 -45 -9z"/>
<path d="M5344 4786 c-3 -8 -15 -11 -30 -8 -48 9 -23 -16 29 -28 63 -14 177
-47 231 -67 21 -8 39 -13 40 -11 1 2 8 11 16 22 14 18 13 18 -20 11 -29 -6
-33 -5 -22 6 6 7 12 18 12 24 0 12 -55 35 -86 35 -14 0 -16 2 -6 9 9 6 5 8
-15 9 -15 0 -41 3 -58 6 -23 5 -26 4 -10 -3 27 -13 0 -14 -43 -2 -25 8 -34 7
-38 -3z"/>
<path d="M6235 4780 c5 -8 25 -37 45 -65 60 -83 81 -145 83 -243 1 -78 -2 -93
-28 -147 -39 -79 -140 -179 -240 -239 -44 -26 -71 -45 -60 -41 11 3 38 9 60
12 22 3 47 11 55 18 8 8 18 13 22 12 4 -1 16 6 27 15 11 9 22 14 24 11 11 -11
55 19 125 88 112 108 119 290 19 440 -33 49 -151 174 -132 139z"/>
<path d="M5648 4663 c7 -3 16 -2 19 1 4 3 -2 6 -13 5 -11 0 -14 -3 -6 -6z"/>
<path d="M3386 4347 c3 -10 9 -15 12 -12 3 3 0 11 -7 18 -10 9 -11 8 -5 -6z"/>
<path d="M4738 4238 c-6 -57 -2 -66 28 -60 20 3 24 10 24 37 0 46 -9 65 -30
65 -14 0 -19 -10 -22 -42z"/>
<path d="M6386 4123 c-6 -14 -5 -15 5 -6 7 7 10 15 7 18 -3 3 -9 -2 -12 -12z"/>
<path d="M3677 2813 c1 -218 6 -253 34 -253 6 0 8 100 7 231 -3 221 -4 232
-23 239 -20 7 -20 4 -18 -217z"/>
<path d="M3528 2938 c-30 -30 -22 -145 16 -222 15 -31 31 -56 35 -56 5 0 -2
21 -15 47 -19 37 -24 62 -24 123 0 76 10 103 40 112 10 3 7 6 -9 11 -15 4 -29
-1 -43 -15z"/>
<path d="M3764 2925 c-4 -10 2 -25 15 -38 19 -19 23 -20 31 -7 6 10 5 22 -4
34 -17 27 -35 31 -42 11z"/>
<path d="M3861 2723 c-1 -115 -4 -217 -7 -229 -4 -15 2 -23 22 -32 14 -7 28
-11 29 -10 2 2 5 106 6 232 4 221 3 229 -16 237 -11 4 -23 8 -26 8 -4 1 -7
-92 -8 -206z"/>
<path d="M3758 2677 l-3 -146 28 -16 27 -16 0 155 c0 88 -4 156 -9 156 -5 0
-16 3 -25 6 -13 5 -15 -14 -18 -139z"/>
<path d="M4004 2670 c-51 -20 -70 -103 -40 -175 47 -112 229 -190 298 -128 43
38 43 110 1 145 -14 12 -14 10 0 -19 41 -79 2 -139 -85 -130 -65 6 -121 46
-153 110 -40 82 -30 162 26 193 l24 13 -25 0 c-14 0 -35 -4 -46 -9z"/>
<path d="M4158 2650 c29 -18 72 -73 72 -94 0 -4 -12 -5 -27 -2 -75 18 -75 18
7 -17 44 -19 80 -17 80 4 0 26 -56 87 -101 110 -50 25 -73 25 -31 -1z"/>
<path d="M3880 2030 c0 -34 -7 -38 -26 -12 -7 9 -14 12 -14 6 0 -17 37 -47 49
-39 14 8 14 75 1 75 -5 0 -10 -13 -10 -30z"/>
<path d="M3961 1989 c-15 -43 -14 -54 3 -40 11 10 17 7 30 -11 19 -27 21 -11
5 45 -12 45 -24 47 -38 6z"/>
<path d="M4084 1966 c19 -16 19 -16 -4 -41 l-23 -24 28 -11 c15 -6 33 -9 39
-6 6 3 1 8 -11 11 -28 9 -29 16 -2 39 23 19 18 30 -21 40 -24 7 -24 6 -6 -8z"/>
<path d="M4190 1893 c0 -27 4 -43 8 -37 4 6 15 13 25 17 13 5 17 1 17 -14 0
-11 5 -17 10 -14 17 10 12 85 -5 85 -8 0 -15 -8 -16 -17 0 -14 -3 -13 -11 5
-17 35 -28 26 -28 -25z"/>
<path d="M4330 1909 c-11 -8 -12 -12 -2 -16 6 -2 12 -15 12 -28 0 -13 -6 -25
-12 -28 -17 -6 -8 -14 25 -22 17 -5 27 -3 27 4 0 6 -4 11 -10 11 -14 0 -12 47
3 54 9 5 9 7 -1 12 -6 3 -10 10 -6 15 7 12 -18 11 -36 -2z"/>
<path d="M4538 1903 c7 -3 16 -2 19 1 4 3 -2 6 -13 5 -11 0 -14 -3 -6 -6z"/>
</g>
</svg>
